<svg class="svg-figure" version="1.1" xmlns="http://www.w3.org/2000/svg" xmlns:xlink="http://www.w3.org/1999/xlink" width="1200" height="700"><defs><style type="text/css"><![CDATA[
:root {
	--bq-axis-tick-stroke:     #424242;
	--bq-axis-tick-stroke-width:  1;
	--bq-axis-tick-opacity:  1;
	--bq-axis-tick-text-fill:   rgba(255, 255, 255, 0.7);
	--bq-axis-tick-text-font:   12px sans-serif;
	--bq-axis-path-stroke:    rgba(255, 255, 255, 0.7);
	--bq-axislabel-fill:   orange;
	--bq-axislabel-font:  14px sans-serif;
	--bq-mainheading-fill:   orange;
	--bq-mainheading-font-size:  large;
	--bq-content-scatter-font-color:   rgba(255, 255, 255, 1);
	--bq-plotarea-background-fill:   #111111;
}
*, ::before, ::after { box-sizing: inherit; }
                                    *, ::before, ::after { box-sizing: unset; }
                                    .svg-background { position: absolute; width: 100%; height: 100%; z-index: 0; }
                                    svg { z-index: 0; font: 11px sans-serif; user-select: none; flex-grow: 1; }
                                    svg .axis .tick line { stroke: var(--bq-axis-tick-stroke); stroke-width: var(--bq-axis-tick-stroke-width); opacity: var(--bq-axis-tick-opacity); }
                                    svg .axis .tick text { fill: var(--bq-axis-tick-text-fill); font: var(--bq-axis-tick-text-font); }
                                    svg .axis line { shape-rendering: crispedges; font: 10px sans-serif; stroke-width: 1px; }
                                    svg .axis path, svg .axis line { fill: none; }
                                    svg .axis path { stroke: var(--bq-axis-path-stroke); }
                                    svg .axis text.axislabel, svg .axis tspan.axislabel { text-anchor: end; fill: var(--bq-axislabel-fill); font: var(--bq-axislabel-font); }
                                    svg .axis .tick text { cursor: default; }
                                    svg text.mainheading { text-anchor: middle; fill: var(--bq-mainheading-fill); font-style: ; font-variant-ligatures: ; font-variant-caps: ; font-variant-numeric: ; font-variant-east-asian: ; font-weight: ; font-stretch: ; line-height: ; font-family: ; font-size: var(--bq-mainheading-font-size); }
                                    svg text.dot_text { fill: var(--bq-content-scatter-font-color); }
                                    svg .plotarea_background { fill: var(--bq-plotarea-background-fill); }
                                    svg .plotarea_events { opacity: 0; }
                                    .g_legend { fill: none; }
                                    svg { font-size: 10px; }

]]></style></defs><g transform="translate(50,60)"><rect class="plotarea_background" x="0" y="0" width="1150" height="600" style="pointer-events: inherit;"></rect><g><g style="display: inline;"><g class="axis" transform="translate(0, 600)" fill="none" font-size="10" font-family="sans-serif" text-anchor="middle"><path class="domain" stroke="currentColor" d="M0.5,6V0.5H1150.5V6"></path><g class="tick" opacity="1" transform="translate(5.5, 0)"><line stroke="currentColor" y2="-600"></line><text fill="currentColor" y="3" dy="0.71em" transform="rotate(0)">-1</text></g><g class="tick" opacity="1" transform="translate(81.5, 0)"><line stroke="currentColor" y2="-600"></line><text fill="currentColor" y="3" dy="0.71em" transform="rotate(0)">-0.8</text></g><g class="tick" opacity="1" transform="translate(157.5, 0)"><line stroke="currentColor" y2="-600"></line><text fill="currentColor" y="3" dy="0.71em" transform="rotate(0)">-0.6</text></g><g class="tick" opacity="1" transform="translate(233.5, 0)"><line stroke="currentColor" y2="-600"></line><text fill="currentColor" y="3" dy="0.71em" transform="rotate(0)">-0.4</text></g><g class="tick" opacity="1" transform="translate(309.5, 0)"><line stroke="currentColor" y2="-600"></line><text fill="currentColor" y="3" dy="0.71em" transform="rotate(0)">-0.2</text></g><g class="tick" opacity="1" transform="translate(385.5, 0)"><line stroke="currentColor" y2="-600"></line><text fill="currentColor" y="3" dy="0.71em" transform="rotate(0)">0</text></g><g class="tick" opacity="1" transform="translate(461.5, 0)"><line stroke="currentColor" y2="-600"></line><text fill="currentColor" y="3" dy="0.71em" transform="rotate(0)">0.2</text></g><g class="tick" opacity="1" transform="translate(537.5, 0)"><line stroke="currentColor" y2="-600"></line><text fill="currentColor" y="3" dy="0.71em" transform="rotate(0)">0.4</text></g><g class="tick" opacity="1" transform="translate(613.5, 0)"><line stroke="currentColor" y2="-600"></line><text fill="currentColor" y="3" dy="0.71em" transform="rotate(0)">0.6</text></g><g class="tick" opacity="1" transform="translate(689.5, 0)"><line stroke="currentColor" y2="-600"></line><text fill="currentColor" y="3" dy="0.71em" transform="rotate(0)">0.8</text></g><g class="tick" opacity="1" transform="translate(765.5, 0)"><line stroke="currentColor" y2="-600"></line><text fill="currentColor" y="3" dy="0.71em" transform="rotate(0)">1</text></g><g class="tick" opacity="1" transform="translate(841.5, 0)"><line stroke="currentColor" y2="-600"></line><text fill="currentColor" y="3" dy="0.71em" transform="rotate(0)">1.2</text></g><g class="tick" opacity="1" transform="translate(917.5, 0)"><line stroke="currentColor" y2="-600"></line><text fill="currentColor" y="3" dy="0.71em" transform="rotate(0)">1.4</text></g><g class="tick" opacity="1" transform="translate(993.5, 0)"><line stroke="currentColor" y2="-600"></line><text fill="currentColor" y="3" dy="0.71em" transform="rotate(0)">1.6</text></g><g class="tick" opacity="1" transform="translate(1069.5, 0)"><line stroke="currentColor" y2="-600"></line><text fill="currentColor" y="3" dy="0.71em" transform="rotate(0)">1.8</text></g><g class="tick" opacity="1" transform="translate(1145.5, 0)"><line stroke="currentColor" y2="-600"></line><text fill="currentColor" y="3" dy="0.71em" transform="rotate(0)">2</text></g><text class="axislabel" x="575" y="2em" dy="0.25ex" dx="0em" transform="" style="text-anchor: middle;">X</text></g></g><g style="display: inline;"><g class="axis" transform="translate(0, 0)" fill="none" font-size="10" font-family="sans-serif" text-anchor="end"><path class="domain" stroke="currentColor" d="M-6,600.5H0.5V0.5H-6"></path><g class="tick" opacity="1" transform="translate(0, 580.5)"><line stroke="currentColor" x2="1150"></line><text fill="currentColor" x="-3" dy="0.32em" transform="rotate(0)">-2</text></g><g class="tick" opacity="1" transform="translate(0, 510.5)"><line stroke="currentColor" x2="1150"></line><text fill="currentColor" x="-3" dy="0.32em" transform="rotate(0)">-1.5</text></g><g class="tick" opacity="1" transform="translate(0, 440.5)"><line stroke="currentColor" x2="1150"></line><text fill="currentColor" x="-3" dy="0.32em" transform="rotate(0)">-1</text></g><g class="tick" opacity="1" transform="translate(0, 370.5)"><line stroke="currentColor" x2="1150"></line><text fill="currentColor" x="-3" dy="0.32em" transform="rotate(0)">-0.5</text></g><g class="tick" opacity="1" transform="translate(0,300.5)"><line stroke="currentColor" x2="1150"></line><text fill="currentColor" x="-3" dy="0.32em" transform="rotate(0)">0</text></g><g class="tick" opacity="1" transform="translate(0, 230.5)"><line stroke="currentColor" x2="1150"></line><text fill="currentColor" x="-3" dy="0.32em" transform="rotate(0)">0.5</text></g><g class="tick" opacity="1" transform="translate(0, 160.5)"><line stroke="currentColor" x2="1150"></line><text fill="currentColor" x="-3" dy="0.32em" transform="rotate(0)">1</text></g><g class="tick" opacity="1" transform="translate(0, 90.5)"><line stroke="currentColor" x2="1150"></line><text fill="currentColor" x="-3" dy="0.32em" transform="rotate(0)">1.5</text></g><g class="tick" opacity="1" transform="translate(0, 20.5)"><line stroke="currentColor" x2="1150"></line><text fill="currentColor" x="-3" dy="0.32em" transform="rotate(0)">2</text></g><text class="axislabel" transform="rotate(-90)" x="-300" y="-4ex" dy="0em" dx="0em" style="text-anchor: middle;">Y</text></g></g></g><rect class="plotarea_events" x="0" y="0" width="1150" height="600" style="pointer-events: inherit;"></rect><g><g clip-path="url(#clip_path_3c899252-d4c9-49e6-9b91-99c3facaf837)" style="display: inline;"><g class="curve" display="inline"><path class="line" fill="none" id="curve1" style="stroke: white; stroke-width: 2; stroke-dasharray: 10, 5, 2, 5;" d="M5,392.2431988716185L24.000000000000014,356.00307827204375L43.000000000000036,321.36681676726374L62.00000000000005,288.77427956520154L81.00000000000007,258.63515472283876L100.00000000000009,231.31975243569087L119.0000000000001,207.15068866915757L138.0000000000001,186.39563989945813L157.00000000000014,169.26133167705254L176.00000000000014,155.88889601645127L195.00000000000017,146.35070187543235L214.0000000000002,140.6487299042677L233.0000000000002,138.71452796458829L252.00000000000023,140.41074841683763L271.0000000000002,145.5342326521524L290.0000000000002,153.8205735967333L309.0000000000003,164.95005372469524L328.0000000000003,178.55482522442796L347.0000000000003,194.22717106741274L366.00000000000034,211.52866145369637L385.00000000000034,230.0000000000003L404.00000000000034,249.1713385463042L423.0000000000004,268.572828932588L442.0000000000004,287.74517477557265L461.0000000000004,306.2499462753054L480.0000000000004,323.67942640326714L499.00000000000045,339.66576734784803L518.0000000000005,353.8892515831627L537.0000000000005,366.085472035412L556.0000000000006,376.0512700957325L575.0000000000005,383.6492981245678L594.0000000000006,388.8111039835487L613.0000000000006,391.53866832294744L632.0000000000006,391.9043601005417L651.0000000000006,390.0493113308422L670.0000000000006,386.18024756430884L689.0000000000006,380.5648452771609L708.0000000000007,373.5257204347981L727.0000000000007,365.43318323273587L746.0000000000007,356.69692172795595L765.0000000000007,347.7568011283811L784.0000000000007,339.072985368599L803.0000000000007,331.11560281994497L822.0000000000007,324.35418822081965L841.0000000000008,319.24713793872047L860.0000000000007,316.23141537607177L879.0000000000008,315.71273771424364L898.0000000000009,318.05646438033284L917.0000000000008,323.5793918620981L936.0000000000007,332.5426391418176L955.0000000000008,345.14578352688704L974.000000000001,361.5223785737578L993.0000000000009,381.7369547629834L1012.0000000000009,405.78357028374626L1031.000000000001,433.5859444741189L1050.0000000000011,464.9991709202789L1069.000000000001,499.81297174216354L1088.000000000001,537.7564199813252L1107.0000000000011,578.5040240363329L1126.000000000001,621.6830375024223"></path><path class="area" style="fill: white;"></path><text class="curve_label" x="3" dy=".35em" display="none" transform="translate(1126, 621.6830444335938)">C1</text></g></g><g style="display: inline;"><g class="curve" display="inline"><path class="line" fill="none" id="curve1" style="stroke: rgb(31, 119, 180); stroke-width: 0; stroke-dasharray: none;" d="M5,336.6755157758647L24.000000000000014,334.9393916120053L43.000000000000036,334.15086442770587L62.00000000000005,334.3268258772024L81.00000000000007,335.4569578376129L100.00000000000009,337.49684627120166L119.0000000000001,340.3635192302848L138.0000000000001,343.9355903940188L157.00000000000014,348.05911164855854L176.00000000000014,352.55832519516866L195.00000000000017,357.24883774697815L214.0000000000002,361.95028720322483L233.0000000000002,366.4963796046037L252.00000000000023,370.7414972868401L271.0000000000002,374.5641489223983L290.0000000000002,377.8680427056817L309.0000000000003,380.5816142266806L328.0000000000003,382.6566611223449L347.0000000000003,384.06650752953084L366.00000000000034,384.80393106842985L385.00000000000034,384.8789573795568L404.00000000000034,384.3165564765236L423.0000000000004,383.1542479946592L442.0000000000004,381.43962641314266L461.0000000000004,379.2278421994584L480.0000000000004,376.5791104657047L499.00000000000045,373.55635335108167L518.0000000000005,370.22310264676673L537.0000000000005,366.64178345857346L556.0000000000006,362.87246300911767L575.0000000000005,358.9720869470259L594.0000000000006,354.99415517981777L613.0000000000006,350.98873114021205L632.0000000000006,347.00264896745625L651.0000000000006,343.0797878076863L670.0000000000006,339.2613151295008L689.0000000000006,335.58584839884867L708.0000000000007,332.089532804059L727.0000000000007,328.80607211538876L746.0000000000007,325.7667758525547L765.0000000000007,323.00069885353986L784.0000000000007,320.5349516158458L803.0000000000007,318.3952542809806L822.0000000000007,316.6067954687L841.0000000000008,315.1954385013267L860.0000000000007,314.1892875160188L879.0000000000008,313.6205756026994L898.0000000000009,313.52775256060704L917.0000000000008,313.9575147435334L936.0000000000007,314.9663244406153L955.0000000000008,316.62073206187284L974.000000000001,318.99562956394556L993.0000000000009,322.1696146179148L1012.0000000000009,326.2171729270294L1031.000000000001,331.1984876931025L1050.0000000000011,337.1490175251861L1069.000000000001,344.0717202686496L1088.000000000001,351.9341951677518L1107.0000000000011,360.67122176213405L1126.000000000001,370.1912901851405"></path><path class="area" style="fill: yellow; opacity: 0.2;" d="M5,336.6755157758647L24.000000000000014,334.9393916120053L43.000000000000036,334.15086442770587L62.00000000000005,334.3268258772024L81.00000000000007,335.4569578376129L100.00000000000009,337.49684627120166L119.0000000000001,340.3635192302848L138.0000000000001,343.9355903940188L157.00000000000014,348.05911164855854L176.00000000000014,352.55832519516866L195.00000000000017,357.24883774697815L214.0000000000002,361.95028720322483L233.0000000000002,366.4963796046037L252.00000000000023,370.7414972868401L271.0000000000002,374.5641489223983L290.0000000000002,377.8680427056817L309.0000000000003,380.5816142266806L328.0000000000003,382.6566611223449L347.0000000000003,384.06650752953084L366.00000000000034,384.80393106842985L385.00000000000034,384.8789573795568L404.00000000000034,384.3165564765236L423.0000000000004,383.1542479946592L442.0000000000004,381.43962641314266L461.0000000000004,379.2278421994584L480.0000000000004,376.5791104657047L499.00000000000045,373.55635335108167L518.0000000000005,370.22310264676673L537.0000000000005,366.64178345857346L556.0000000000006,362.87246300911767L575.0000000000005,358.9720869470259L594.0000000000006,354.99415517981777L613.0000000000006,350.98873114021205L632.0000000000006,347.00264896745625L651.0000000000006,343.0797878076863L670.0000000000006,339.2613151295008L689.0000000000006,335.58584839884867L708.0000000000007,332.089532804059L727.0000000000007,328.80607211538876L746.0000000000007,325.7667758525547L765.0000000000007,323.00069885353986L784.0000000000007,320.5349516158458L803.0000000000007,318.3952542809806L822.0000000000007,316.6067954687L841.0000000000008,315.1954385013267L860.0000000000007,314.1892875160188L879.0000000000008,313.6205756026994L898.0000000000009,313.52775256060704L917.0000000000008,313.9575147435334L936.0000000000007,314.9663244406153L955.0000000000008,316.62073206187284L974.000000000001,318.99562956394556L993.0000000000009,322.1696146179148L1012.0000000000009,326.2171729270294L1031.000000000001,331.1984876931025L1050.0000000000011,337.1490175251861L1069.000000000001,344.0717202686496L1088.000000000001,351.9341951677518L1107.0000000000011,360.67122176213405L1126.000000000001,370.1912901851405L1126.000000000001,209.28475686207554L1107.0000000000011,210.30200673000152L1088.000000000001,210.68300763241652L1069.000000000001,210.43681238254115L1050.0000000000011,209.5993025965364L1031.000000000001,208.23813271608935L1012.0000000000009,206.45362611881728L993.0000000000009,204.3742471736813L974.000000000001,202.1471587668447L955.0000000000008,199.92617015218264L936.0000000000007,197.85998568305064L917.0000000000008,196.0829287119056L898.0000000000009,194.7089818139044L879.0000000000008,193.82888130486003L860.0000000000007,193.50947377421681L841.0000000000008,193.79448822418598L822.0000000000007,194.7060585067641L803.0000000000007,196.24656059273582L784.0000000000007,198.4005193780471L765.0000000000007,201.13646958858138L746.0000000000007,204.40873432132037L727.0000000000007,208.15912937724232L708.0000000000007,212.3186257993382L689.0000000000006,216.80901600678047L670.0000000000006,221.5446351263265L651.0000000000006,226.43418953780804L632.0000000000006,231.38273778638708L613.0000000000006,236.2938521248864L594.0000000000006,241.07195961235243L575.0000000000005,245.6248198629737L556.0000000000006,249.8660466325281L537.0000000000005,253.71753234692073L518.0000000000005,257.1116023002229L499.00000000000045,259.9927217921569L480.0000000000004,262.3186110940538L461.0000000000004,264.06068430824075L442.0000000000004,265.20380241347226L423.0000000000004,265.7453971162509L404.00000000000034,265.6940640209803L385.00000000000034,265.0677350330268L366.00000000000034,263.89152563037936L347.0000000000003,262.19532423534304L328.0000000000003,260.01116154398835L309.0000000000003,257.3703789625213L290.0000000000002,254.30061721323403L271.0000000000002,250.8226788753065L252.00000000000023,246.9473943887025L233.0000000000002,242.6727531264528L214.0000000000002,237.98175508117725L195.00000000000017,232.8416706227203L176.00000000000014,227.20557723266006L157.00000000000014,221.01699294343697L138.0000000000001,214.21791586854243L119.0000000000001,206.7595087915305L100.00000000000009,198.61334319168435L81.00000000000007,189.78030742247464L62.00000000000005,180.29473299167398L43.000000000000036,170.22295727849072L24.000000000000014,159.6574500206908L5,148.70870437678883Z"></path><text class="curve_label" x="3" dy=".35em" display="none" transform="translate(1126, 370.1912841796875)">C1</text></g><g class="curve" display="inline"><path class="line" fill="none" id="curve2" style="stroke: rgb(255, 127, 14); stroke-width: 0; stroke-dasharray: none;" d="M5,148.70870437678883L24.000000000000014,159.6574500206908L43.000000000000036,170.22295727849072L62.00000000000005,180.29473299167398L81.00000000000007,189.78030742247464L100.00000000000009,198.61334319168435L119.0000000000001,206.7595087915305L138.0000000000001,214.21791586854243L157.00000000000014,221.01699294343697L176.00000000000014,227.20557723266006L195.00000000000017,232.8416706227203L214.0000000000002,237.98175508117725L233.0000000000002,242.6727531264528L252.00000000000023,246.9473943887025L271.0000000000002,250.8226788753065L290.0000000000002,254.30061721323403L309.0000000000003,257.3703789625213L328.0000000000003,260.01116154398835L347.0000000000003,262.19532423534304L366.00000000000034,263.89152563037936L385.00000000000034,265.0677350330268L404.00000000000034,265.6940640209803L423.0000000000004,265.7453971162509L442.0000000000004,265.20380241347226L461.0000000000004,264.06068430824075L480.0000000000004,262.3186110940538L499.00000000000045,259.9927217921569L518.0000000000005,257.1116023002229L537.0000000000005,253.71753234692073L556.0000000000006,249.8660466325281L575.0000000000005,245.6248198629737L594.0000000000006,241.07195961235243L613.0000000000006,236.2938521248864L632.0000000000006,231.38273778638708L651.0000000000006,226.43418953780804L670.0000000000006,221.5446351263265L689.0000000000006,216.80901600678047L708.0000000000007,212.3186257993382L727.0000000000007,208.15912937724232L746.0000000000007,204.40873432132037L765.0000000000007,201.13646958858138L784.0000000000007,198.4005193780471L803.0000000000007,196.24656059273582L822.0000000000007,194.7060585067641L841.0000000000008,193.79448822418598L860.0000000000007,193.50947377421681L879.0000000000008,193.82888130486003L898.0000000000009,194.7089818139044L917.0000000000008,196.0829287119056L936.0000000000007,197.85998568305064L955.0000000000008,199.92617015218264L974.000000000001,202.1471587668447L993.0000000000009,204.3742471736813L1012.0000000000009,206.45362611881728L1031.000000000001,208.23813271608935L1050.0000000000011,209.5993025965364L1069.000000000001,210.43681238254115L1088.000000000001,210.68300763241652L1107.0000000000011,210.30200673000152L1126.000000000001,209.28475686207554"></path><path class="area" d="M5,148.70870437678883L24.000000000000014,159.6574500206908L43.000000000000036,170.22295727849072L62.00000000000005,180.29473299167398L81.00000000000007,189.78030742247464L100.00000000000009,198.61334319168435L119.0000000000001,206.7595087915305L138.0000000000001,214.21791586854243L157.00000000000014,221.01699294343697L176.00000000000014,227.20557723266006L195.00000000000017,232.8416706227203L214.0000000000002,237.98175508117725L233.0000000000002,242.6727531264528L252.00000000000023,246.9473943887025L271.0000000000002,250.8226788753065L290.0000000000002,254.30061721323403L309.0000000000003,257.3703789625213L328.0000000000003,260.01116154398835L347.0000000000003,262.19532423534304L366.00000000000034,263.89152563037936L385.00000000000034,265.0677350330268L404.00000000000034,265.6940640209803L423.0000000000004,265.7453971162509L442.0000000000004,265.20380241347226L461.0000000000004,264.06068430824075L480.0000000000004,262.3186110940538L499.00000000000045,259.9927217921569L518.0000000000005,257.1116023002229L537.0000000000005,253.71753234692073L556.0000000000006,249.8660466325281L575.0000000000005,245.6248198629737L594.0000000000006,241.07195961235243L613.0000000000006,236.2938521248864L632.0000000000006,231.38273778638708L651.0000000000006,226.43418953780804L670.0000000000006,221.5446351263265L689.0000000000006,216.80901600678047L708.0000000000007,212.3186257993382L727.0000000000007,208.15912937724232L746.0000000000007,204.40873432132037L765.0000000000007,201.13646958858138L784.0000000000007,198.4005193780471L803.0000000000007,196.24656059273582L822.0000000000007,194.7060585067641L841.0000000000008,193.79448822418598L860.0000000000007,193.50947377421681L879.0000000000008,193.82888130486003L898.0000000000009,194.7089818139044L917.0000000000008,196.0829287119056L936.0000000000007,197.85998568305064L955.0000000000008,199.92617015218264L974.000000000001,202.1471587668447L993.0000000000009,204.3742471736813L1012.0000000000009,206.45362611881728L1031.000000000001,208.23813271608935L1050.0000000000011,209.5993025965364L1069.000000000001,210.43681238254115L1088.000000000001,210.68300763241652L1107.0000000000011,210.30200673000152L1126.000000000001,209.28475686207554L1126.000000000001,209.28475686207554L1107.0000000000011,210.30200673000152L1088.000000000001,210.68300763241652L1069.000000000001,210.43681238254115L1050.0000000000011,209.5993025965364L1031.000000000001,208.23813271608935L1012.0000000000009,206.45362611881728L993.0000000000009,204.3742471736813L974.000000000001,202.1471587668447L955.0000000000008,199.92617015218264L936.0000000000007,197.85998568305064L917.0000000000008,196.0829287119056L898.0000000000009,194.7089818139044L879.0000000000008,193.82888130486003L860.0000000000007,193.50947377421681L841.0000000000008,193.79448822418598L822.0000000000007,194.7060585067641L803.0000000000007,196.24656059273582L784.0000000000007,198.4005193780471L765.0000000000007,201.13646958858138L746.0000000000007,204.40873432132037L727.0000000000007,208.15912937724232L708.0000000000007,212.3186257993382L689.0000000000006,216.80901600678047L670.0000000000006,221.5446351263265L651.0000000000006,226.43418953780804L632.0000000000006,231.38273778638708L613.0000000000006,236.2938521248864L594.0000000000006,241.07195961235243L575.0000000000005,245.6248198629737L556.0000000000006,249.8660466325281L537.0000000000005,253.71753234692073L518.0000000000005,257.1116023002229L499.00000000000045,259.9927217921569L480.0000000000004,262.3186110940538L461.0000000000004,264.06068430824075L442.0000000000004,265.20380241347226L423.0000000000004,265.7453971162509L404.00000000000034,265.6940640209803L385.00000000000034,265.0677350330268L366.00000000000034,263.89152563037936L347.0000000000003,262.19532423534304L328.0000000000003,260.01116154398835L309.0000000000003,257.3703789625213L290.0000000000002,254.30061721323403L271.0000000000002,250.8226788753065L252.00000000000023,246.9473943887025L233.0000000000002,242.6727531264528L214.0000000000002,237.98175508117725L195.00000000000017,232.8416706227203L176.00000000000014,227.20557723266006L157.00000000000014,221.01699294343697L138.0000000000001,214.21791586854243L119.0000000000001,206.7595087915305L100.00000000000009,198.61334319168435L81.00000000000007,189.78030742247464L62.00000000000005,180.29473299167398L43.000000000000036,170.22295727849072L24.000000000000014,159.6574500206908L5,148.70870437678883Z"></path><text class="curve_label" x="3" dy=".35em" display="none" transform="translate(1126, 209.28475952148438)">C2</text></g></g><g clip-path="url(#clip_path_3c899252-d4c9-49e6-9b91-99c3facaf837)" style="display: inline;"><g class="object_grp" transform="translate(129.67330932617188, 267.9034423828125)"><path class="dot element" style="fill: magenta; stroke: magenta; opacity: 1; stroke-width: 1.5;" d="M-4,-4L4,-4 4,4 -4,4Z"></path><text class="dot_text" transform="translate(4, -4)" display="none">Dot0</text></g><g class="object_grp" transform="translate(393.6733093261719, 341.9034423828125)"><path class="dot element" style="fill: magenta; stroke: magenta; opacity: 1; stroke-width: 1.5;" d="M-4,-4L4,-4 4,4 -4,4Z"></path><text class="dot_text" transform="translate(4, -4)" display="none">Dot1</text></g><g class="object_grp" transform="translate(660.67333984375, 283.9034423828125)"><path class="dot element" style="fill: magenta; stroke: magenta; opacity: 1; stroke-width: 1.5;" d="M-4,-4L4,-4 4,4 -4,4Z"></path><text class="dot_text" transform="translate(4, -4)" display="none">Dot2</text></g><g class="object_grp" transform="translate(907.67333984375, 242.90342712402344)"><path class="dot element" style="fill: magenta; stroke: magenta; opacity: 1; stroke-width: 1.5;" d="M-4,-4L4,-4 4,4 -4,4Z"></path><text class="dot_text" transform="translate(4, -4)" display="none">Dot3</text></g><g class="object_grp" transform="translate(1046.67333984375, 281.9034423828125)"><path class="dot element" style="fill: magenta; stroke: magenta; opacity: 1; stroke-width: 1.5;" d="M-4,-4L4,-4 4,4 -4,4Z"></path><text class="dot_text" transform="translate(4, -4)" display="none">Dot4</text></g><g class="object_grp" transform="translate(531.67333984375, 302.9034423828125)"><path class="dot element" style="fill: magenta; stroke: magenta; opacity: 1; stroke-width: 1.5;" d="M-4,-4L4,-4 4,4 -4,4Z"></path><text class="dot_text" transform="translate(4, -4)" display="none">Dot5</text></g></g><g style="display: inline;"><g class="curve" display="inline"><path class="line" fill="none" id="curve1" style="stroke: rgb(204, 204, 204); stroke-width: 1; stroke-dasharray: none;" d="M5,238.81648182663167L24.000000000000014,239.8060602121958L43.000000000000036,240.95457505394162L62.00000000000005,242.21568740991972L81.00000000000007,243.54700056808446L100.00000000000009,244.91126776392508L119.0000000000001,246.27763463195058L138.0000000000001,247.62240917317254L157.00000000000014,248.9299063967368L176.00000000000014,250.19293663092787L195.00000000000017,251.4129685973163L214.0000000000002,252.60021333632307L233.0000000000002,253.7732835737554L252.00000000000023,254.95875168897612L271.0000000000002,256.1901870894071L290.0000000000002,257.50721851583484L309.0000000000003,258.9542463594666L328.0000000000003,260.57897103657655L347.0000000000003,262.4306459141873L366.00000000000034,264.5584060817975L385.00000000000034,267.00938538519296L404.00000000000034,269.82678019974463L423.0000000000004,273.0479941850847L442.0000000000004,276.7028097165211L461.0000000000004,280.8117181317401L480.0000000000004,285.3843383357902L499.00000000000045,290.4182966123947L518.0000000000005,295.8980087800875L537.0000000000005,301.79423201072143L556.0000000000006,308.06360781869785L575.0000000000005,314.64874468330333L594.0000000000006,321.47885752028657L613.0000000000006,328.47051145843227L632.0000000000006,335.5290081109198L651.0000000000006,342.55011572911076L670.0000000000006,349.4220465343953L689.0000000000006,356.0279114141853L708.0000000000007,362.24828702345326L727.0000000000007,367.9641058490138L746.0000000000007,373.0594264971709L765.0000000000007,377.42445304685714L784.0000000000007,380.95842285877166L803.0000000000007,383.5722368516046L822.0000000000007,385.19104270138473L841.0000000000008,385.75615739694706L860.0000000000007,385.2270353677115L879.0000000000008,383.58244112216585L898.0000000000009,380.82115840337684L917.0000000000008,376.96243994669845L936.0000000000007,372.0454832329397L955.0000000000008,366.1287360001249L974.000000000001,359.2885328073694L993.0000000000009,351.6172933610088L1012.0000000000009,343.22122950754743L1031.000000000001,334.21794757219635L1050.0000000000011,324.7334455077752L1069.000000000001,314.8992639902587L1088.000000000001,304.84938628550134L1107.0000000000011,294.71724144399764L1126.000000000001,284.632703278446"></path><path class="area" style="fill: rgb(204, 204, 204);"></path><text class="curve_label" x="3" dy=".35em" display="none" transform="translate(1126, 284.6326904296875)">C1</text></g><g class="curve" display="inline"><path class="line" fill="none" id="curve2" style="stroke: rgb(204, 204, 204); stroke-width: 1; stroke-dasharray: none;" d="M5,448.82765733196806L24.000000000000014,455.2541843224312L43.000000000000036,462.0003707164686L62.00000000000005,468.9680742907168L81.00000000000007,476.05465671815654L100.00000000000009,483.15484899744047L119.0000000000001,490.16273808838406L138.0000000000001,496.9738356021304L157.00000000000014,503.4872391769506L176.00000000000014,509.6077464571842L195.00000000000017,515.2479106969263L214.0000000000002,520.3299869415451L233.0000000000002,524.7878316958688L252.00000000000023,528.568347081437L271.0000000000002,531.6329404335125L290.0000000000002,533.9584336371338L309.0000000000003,535.5378098691714L328.0000000000003,536.380409210915L347.0000000000003,536.5117568772772L366.00000000000034,535.9731400396894L385.00000000000034,534.8204892370968L404.00000000000034,533.1231215422162L423.0000000000004,530.9618712756237L442.0000000000004,528.4271420238261L461.0000000000004,525.6165032149931L480.0000000000004,522.6321091973147L499.00000000000045,519.5780075831611L518.0000000000005,516.557375273848L537.0000000000005,513.6696974129823L556.0000000000006,511.00810111913887L575.0000000000005,508.6567876101709L594.0000000000006,506.68874760512887L613.0000000000006,505.1637328910477L632.0000000000006,504.1265293591475L651.0000000000006,503.6057409600925L670.0000000000006,503.61291798617066L689.0000000000006,504.1420299858562L708.0000000000007,505.1696387284738L727.0000000000007,506.65533214364734L746.0000000000007,508.54255141099213L765.0000000000007,510.7600179706095L784.0000000000007,513.2233737213979L803.0000000000007,515.8371824681042L822.0000000000007,518.4971564194947L841.0000000000008,521.0927205671609L860.0000000000007,523.5094868102035L879.0000000000008,525.6320484706529L898.0000000000009,527.3466061342152L917.0000000000008,528.5434969090193L936.0000000000007,529.1197606434664L955.0000000000008,528.9814627997939L974.000000000001,528.0454958571477L993.0000000000009,526.2415347289516L1012.0000000000009,523.5133961034252L1031.000000000001,519.820033769601L1050.0000000000011,515.1361941168421L1069.000000000001,509.45282729181145L1088.000000000001,502.7768954594011L1107.0000000000011,495.13109363439014L1126.000000000001,486.5529544583387"></path><path class="area" style="fill: rgb(204, 204, 204);"></path><text class="curve_label" x="3" dy=".35em" display="none" transform="translate(1126, 486.5529479980469)">C2</text></g><g class="curve" display="inline"><path class="line" fill="none" id="curve3" style="stroke: rgb(204, 204, 204); stroke-width: 1; stroke-dasharray: none;" d="M5,430.4941640392047L24.000000000000014,433.68203925468157L43.000000000000036,435.95043891581497L62.00000000000005,437.28234701895815L81.00000000000007,437.6701588047569L100.00000000000009,437.11614735585573L119.0000000000001,435.6327160433781L138.0000000000001,433.2424855333099L157.00000000000014,429.97829631307485L176.00000000000014,425.8829159563907L195.00000000000017,421.00858943039907L214.0000000000002,415.4165852536296L233.0000000000002,409.17631954457823L252.00000000000023,402.36450841194574L271.0000000000002,395.06418878927667L290.0000000000002,387.3634092685541L309.0000000000003,379.35415432096045L328.0000000000003,371.13074625132737L347.0000000000003,362.7885020240459L366.00000000000034,354.4222041382277L385.00000000000034,346.12449817723746L404.00000000000034,337.9843042963375L423.0000000000004,330.0853450262615L442.0000000000004,322.5045901021153L461.0000000000004,315.3108172261961L480.0000000000004,308.5633969585082L499.00000000000045,302.3111643425725L518.0000000000005,296.59151119915947L537.0000000000005,291.42964571233296L556.0000000000006,286.8383440683167L575.0000000000005,282.8177337332272L594.0000000000006,279.3556146076461L613.0000000000006,276.42795282256407L632.0000000000006,273.9998333846165L651.0000000000006,272.02665692955355L670.0000000000006,270.4556531490051L689.0000000000006,269.22774188438575L708.0000000000007,268.27946164305615L727.0000000000007,267.54517752459253L746.0000000000007,266.95926801795173L765.0000000000007,266.45868725706373L784.0000000000007,265.98484801646885L803.0000000000007,265.48598447065996L822.0000000000007,264.9189781751378L841.0000000000008,264.25096412532923L860.0000000000007,263.4607105248864L879.0000000000008,262.5393977430947L898.0000000000009,261.4911825801855L917.0000000000008,260.33316669985373L936.0000000000007,259.09489076640466L955.0000000000008,257.81757795000175L974.000000000001,256.5526489447441L993.0000000000009,255.36012923086054L1012.0000000000009,254.30650939725447L1031.000000000001,253.46255765165122L1050.0000000000011,252.90069110509106L1069.000000000001,252.69258344163413L1088.000000000001,252.90639614800187L1107.0000000000011,253.60436394205223L1126.000000000001,254.84045352384254"></path><path class="area" style="fill: rgb(204, 204, 204);"></path><text class="curve_label" x="3" dy=".35em" display="none" transform="translate(1126, 254.8404541015625)">C3</text></g><g class="curve" display="inline"><path class="line" fill="none" id="curve4" style="stroke: rgb(204, 204, 204); stroke-width: 1; stroke-dasharray: none;" d="M5,383.71339803956045L24.000000000000014,379.7824731652456L43.000000000000036,376.7148282809111L62.00000000000005,374.52560400691283L81.00000000000007,373.2155386446111L100.00000000000009,372.7716963543049L119.0000000000001,373.1680700648144L138.0000000000001,374.3666240565694L157.00000000000014,376.3184572583813L176.00000000000014,378.96499121513875L195.00000000000017,382.2394683173081L214.0000000000002,386.0682625624043L233.0000000000002,390.372274174804L252.00000000000023,395.0685188473195L271.0000000000002,400.0714060397707L290.0000000000002,405.2941098981777L309.0000000000003,410.64986329103886L328.0000000000003,416.0531485229653L347.0000000000003,421.4207137045823L366.00000000000034,426.6726852835188L385.00000000000034,431.73331803663365L404.00000000000034,436.53189211285826L423.0000000000004,441.0032119021037L442.0000000000004,445.0881959493468L461.0000000000004,448.73437194171794L480.0000000000004,451.8960275462233L499.00000000000045,454.5345505248097L518.0000000000005,456.61832025062887L537.0000000000005,458.12289709959026L556.0000000000006,459.03065665626167L575.0000000000005,459.33077204886456L594.0000000000006,459.01884704655714L613.0000000000006,458.0964640360971L632.0000000000006,456.5709451033742L651.0000000000006,454.45471278073074L670.0000000000006,451.7649602393989L689.0000000000006,448.5229977078748L708.0000000000007,444.7539745270289L727.0000000000007,440.48629529772916L746.0000000000007,435.75118445205396L765.0000000000007,430.5824620109757L784.0000000000007,425.01606408735836L803.0000000000007,419.08989718210677L822.0000000000007,412.8436178340123L841.0000000000008,406.3183971770664L860.0000000000007,399.5568746797049L879.0000000000008,392.60307122598664L898.0000000000009,385.5022172003024L917.0000000000008,378.30067591400416L936.0000000000007,371.04579839433484L955.0000000000008,363.78575236699214L974.000000000001,356.56914950443417L993.0000000000009,349.4447824413625L1012.0000000000009,342.4611631669961L1031.000000000001,335.6659385027763L1050.0000000000011,329.1053638656669L1069.000000000001,322.82348783363483L1088.000000000001,316.8615307330219L1107.0000000000011,311.25700935896725L1126.000000000001,306.04304102152827"></path><path class="area" style="fill: rgb(204, 204, 204);"></path><text class="curve_label" x="3" dy=".35em" display="none" transform="translate(1126, 306.04302978515625)">C4</text></g><g class="curve" display="inline"><path class="line" fill="none" id="curve5" style="stroke: rgb(204, 204, 204); stroke-width: 1; stroke-dasharray: none;" d="M5,158.52782397206033L24.000000000000014,166.8689441701505L43.000000000000036,175.47566460060654L62.00000000000005,184.2880975518909L81.00000000000007,193.24582579333673L100.00000000000009,202.2883955250284L119.0000000000001,211.35576737363084L138.0000000000001,220.38877679472682L157.00000000000014,229.32955500788805L176.00000000000014,238.12205203892088L195.00000000000017,246.71239762783492L214.0000000000002,255.04936685426964L233.0000000000002,263.0847734342666L252.00000000000023,270.77381436577303L271.0000000000002,278.07546519837354L290.0000000000002,284.95281021851633L309.0000000000003,291.37332685476326L328.0000000000003,297.308873080339L347.0000000000003,302.7362186075L366.00000000000034,307.6367485520375L385.00000000000034,311.9966915000753L404.00000000000034,315.80691389608626L423.0000000000004,319.0627721498789L442.0000000000004,321.76388400582465L461.0000000000004,323.9138155341247L480.0000000000004,325.5196713479173L499.00000000000045,326.59170476884367L518.0000000000005,327.14302515461L537.0000000000005,327.1889698577076L556.0000000000006,326.74690592626416L575.0000000000005,325.8358378535249L594.0000000000006,324.4761235970946L613.0000000000006,322.68937555289034L632.0000000000006,320.4983063381875L651.0000000000006,317.92690893120226L670.0000000000006,315.00043290019164L689.0000000000006,311.745738132458L708.0000000000007,308.19156629685676L727.0000000000007,304.36895574603653L746.0000000000007,300.31156556151785L765.0000000000007,296.0561347885252L784.0000000000007,291.64282214900135L803.0000000000007,287.1154968292494L822.0000000000007,282.5218216721429L841.0000000000008,277.91334146592243L860.0000000000007,273.3453564979383L879.0000000000008,268.876424592637L898.0000000000009,264.5679748292649L917.0000000000008,260.4834330090507L936.0000000000007,256.6873493581459L955.0000000000008,253.24414170547627L974.000000000001,250.2169301533369L993.0000000000009,247.6660542661754L1012.0000000000009,245.64764693312358L1031.000000000001,244.21207725495725L1050.0000000000011,243.40252834279164L1069.000000000001,243.25361127122846L1088.000000000001,243.79003407117898L1107.0000000000011,245.0255621741585L1126.000000000001,246.96222281369145"></path><path class="area" style="fill: rgb(204, 204, 204);"></path><text class="curve_label" x="3" dy=".35em" display="none" transform="translate(1126, 246.96221923828125)">C5</text></g></g><g style="display: inline;"><g class="curve" display="inline"><path class="line" fill="none" id="curve1" style="stroke: rgb(31, 119, 180); stroke-width: 1; stroke-dasharray: none;" d="M5,259.43910321487806L24.000000000000014,259.7641666364329L43.000000000000036,260.6716297552925L62.00000000000005,262.13788186854117L81.00000000000007,264.1322435153947L100.00000000000009,266.6171414110997L119.0000000000001,269.5484497004517L138.0000000000001,272.8758539407588L157.00000000000014,276.54345675880114L176.00000000000014,280.49030727283827L195.00000000000017,284.6512237217112L214.0000000000002,288.95759552379764L233.0000000000002,293.3383875582832L252.00000000000023,297.72115644325737L271.0000000000002,302.03321577327677L290.0000000000002,306.20284938656187L309.0000000000003,310.1605754039534L328.0000000000003,313.8403706954429L347.0000000000003,317.18102061927397L366.00000000000034,320.12728502899574L385.00000000000034,322.63104927777357L404.00000000000034,324.65238719862407L423.0000000000004,326.1604609797496L442.0000000000004,327.1342305284567L461.0000000000004,327.5629368288192L480.0000000000004,327.44646034072986L499.00000000000045,326.7952991306428L518.0000000000005,325.63042315688847L537.0000000000005,323.9827626330984L556.0000000000006,321.89252134577936L575.0000000000005,319.4082612171085L594.0000000000006,316.585724759918L613.0000000000006,313.4865691618205L632.0000000000006,310.1769253515481L651.0000000000006,306.725886336928L670.0000000000006,303.20400587546305L689.0000000000006,299.6817790377125L708.0000000000007,296.22820722688226L727.0000000000007,292.9095656351184L746.0000000000007,289.78822945046204L765.0000000000007,286.92178698586645L784.0000000000007,284.3623785272221L803.0000000000007,282.15625485870754L822.0000000000007,280.3435841266678L841.0000000000008,278.95854035433376L860.0000000000007,278.0295670141928L879.0000000000008,277.5798396783333L898.0000000000009,277.62787274657865L917.0000000000008,278.18821211948864L936.0000000000007,279.2722300830728L955.0000000000008,280.8887897576883L974.000000000001,283.04500747662496L993.0000000000009,285.7467601898029L1012.0000000000009,288.99915969241306L1031.000000000001,292.8067886374524L1050.0000000000011,297.17377262855877L1069.000000000001,302.1036340520181L1088.000000000001,307.5989676993914L1107.0000000000011,313.66092530324966L1126.000000000001,320.2885681753638"></path><path class="area" style="fill: rgb(31, 119, 180);"></path><text class="curve_label" x="3" dy=".35em" display="none" transform="translate(1126, 320.28857421875)">C1</text></g><g class="curve" display="inline"><path class="line" fill="none" id="curve2" style="stroke: rgb(255, 127, 14); stroke-width: 1; stroke-dasharray: none;" d="M5,262.68372514095563L24.000000000000014,267.8100889072831L43.000000000000036,272.875871895629L62.00000000000005,277.81198791531654L81.00000000000007,282.5510105613621L100.00000000000009,287.0279074300414L119.0000000000001,291.18063037429624L138.0000000000001,294.9507989935424L157.00000000000014,298.2843851459866L176.00000000000014,301.1323707292694L195.00000000000017,303.4514643628393L214.0000000000002,305.20469058736205L233.0000000000002,306.3620814263141L252.00000000000023,306.9012303540611L271.0000000000002,306.8077848507842L290.0000000000002,306.07589818338494L309.0000000000003,304.7085964227478L328.0000000000003,302.71795980675677L347.0000000000003,300.12525682754443L366.00000000000034,296.9608945118637L385.00000000000034,293.2641689265021L404.00000000000034,289.0829223656009L423.0000000000004,284.4729618408628L442.0000000000004,279.49730300528205L461.0000000000004,274.22527543413923L480.0000000000004,268.7313836647203L499.00000000000045,263.09408091286116L518.0000000000005,257.3943845811816L537.0000000000005,251.7143801964662L556.0000000000006,246.13564957030366L575.0000000000005,240.7376719324838L594.0000000000006,235.59625557437116L613.0000000000006,230.78192678648173L632.0000000000006,226.35854664809904L651.0000000000006,222.38191709289268L670.0000000000006,218.8986558721454L689.0000000000006,215.94524621521L708.0000000000007,213.54734432172094L727.0000000000007,211.71929079019299L746.0000000000007,210.46400401888417L765.0000000000007,209.77305939792691L784.0000000000007,209.62714231189597L803.0000000000007,209.99673687148066L822.0000000000007,210.84313856267187L841.0000000000008,212.11962298898712L860.0000000000007,213.77295145223042L879.0000000000008,215.74496229287323L898.0000000000009,217.974357691417L917.0000000000008,220.3985343794812L936.0000000000007,222.95550792330798L955.0000000000008,225.58576067399227L974.000000000001,228.23410453214095L993.0000000000009,230.85131503370715L1012.0000000000009,233.3957405705713L1031.000000000001,235.8345217930213L1050.0000000000011,238.14468343670742L1069.000000000001,240.31391072289364L1088.000000000001,242.34091934872868L1107.0000000000011,244.23557782917905L1126.000000000001,246.01865313284554"></path><path class="area" style="fill: rgb(255, 127, 14);"></path><text class="curve_label" x="3" dy=".35em" display="none" transform="translate(1126, 246.01864624023438)">C2</text></g><g class="curve" display="inline"><path class="line" fill="none" id="curve3" style="stroke: rgb(44, 160, 44); stroke-width: 1; stroke-dasharray: none;" d="M5,242.47099761622695L24.000000000000014,246.26178349061792L43.000000000000036,250.7257937531043L62.00000000000005,255.86034194878567L81.00000000000007,261.6511264366684L100.00000000000009,268.0713985834969L119.0000000000001,275.0814536119184L138.0000000000001,282.62858069592164L157.00000000000014,290.64722066081765L176.00000000000014,299.05964179218853L195.00000000000017,307.7769435298115L214.0000000000002,316.70040075579703L233.0000000000002,325.7231249485816L252.00000000000023,334.73203772671275L271.0000000000002,343.61000694037716L290.0000000000002,352.23821508804986L309.0000000000003,360.4986082667496L328.0000000000003,368.27638134552683L347.0000000000003,375.46248147145127L366.00000000000034,381.95595731400033L385.00000000000034,387.6662631433745L404.00000000000034,392.51524598816326L423.0000000000004,396.43901330299514L442.0000000000004,399.3893529219764L461.0000000000004,401.33493823184847L480.0000000000004,402.2621176629252L499.00000000000045,402.17530116392385L518.0000000000005,401.09695612449525L537.0000000000005,399.0672441028433L556.0000000000006,396.1431563859368L575.0000000000005,392.3973913907349L594.0000000000006,387.9167880635765L613.0000000000006,382.8004647172917L632.0000000000006,377.15769853795763L651.0000000000006,371.105547005205L670.0000000000006,364.76636638382223L689.0000000000006,358.2651525499627L708.0000000000007,351.7269106733442L727.0000000000007,345.274050851972L746.0000000000007,339.0238899416171L765.0000000000007,333.08630041081324L784.0000000000007,327.5617071094855L803.0000000000007,322.5392611055905L822.0000000000007,318.0954422052801L841.0000000000008,314.2930145765474L860.0000000000007,311.18039640534306L879.0000000000008,308.79145282370104L898.0000000000009,307.1456645147134L917.0000000000008,306.2487430271799L936.0000000000007,306.0935575475287L955.0000000000008,306.66139534102365L974.000000000001,307.92342970057825L993.0000000000009,309.8424485634415L1012.0000000000009,312.3746438549974L1031.000000000001,315.47145031204707L1050.0000000000011,319.08136991168647L1069.000000000001,323.1516771519813L1088.000000000001,327.6300049445177L1107.0000000000011,332.4656638733033L1126.000000000001,337.61074774575"></path><path class="area" style="fill: rgb(44, 160, 44);"></path><text class="curve_label" x="3" dy=".35em" display="none" transform="translate(1126, 337.6107482910156)">C3</text></g><g class="curve" display="inline"><path class="line" fill="none" id="curve4" style="stroke: rgb(214, 39, 40); stroke-width: 1; stroke-dasharray: none;" d="M5,244.75439184885485L24.000000000000014,250.44752730001773L43.000000000000036,256.59252726265424L62.00000000000005,263.1187458632483L81.00000000000007,269.9441692618925L100.00000000000009,276.976837456886L119.0000000000001,284.11669704553185L138.0000000000001,291.2576065906751L157.00000000000014,298.2896890173681L176.00000000000014,305.1017867566565L195.00000000000017,311.5839924117963L214.0000000000002,317.63036054058995L233.0000000000002,323.1413373752135L252.00000000000023,328.0263156003834L271.0000000000002,332.20583730275536L290.0000000000002,335.61359880801456L309.0000000000003,338.19812297030956L328.0000000000003,339.9240722508838L347.0000000000003,340.77319052192735L366.00000000000034,340.7446974484139L385.00000000000034,339.85536929315396L404.00000000000034,338.1391083068586L423.0000000000004,335.64607164575654L442.0000000000004,332.4414026435631L461.0000000000004,328.60362129509116L480.0000000000004,324.22264560165866L499.00000000000045,319.39757004001484L518.0000000000005,314.234268465106L537.0000000000005,308.842829935018L556.0000000000006,303.3349128898491L575.0000000000005,297.8211450040645L594.0000000000006,292.4085668379568L613.0000000000006,287.19822835980915L632.0000000000006,282.282917162562L651.0000000000006,277.7451898346392L670.0000000000006,273.6556135172132L689.0000000000006,270.0714198947231L708.0000000000007,267.0353471248936L727.0000000000007,264.5749684849352L746.0000000000007,262.7022835975905L765.0000000000007,261.4137200354402L784.0000000000007,260.6904517844954L803.0000000000007,260.4990424052112L822.0000000000007,260.79239049961586L841.0000000000008,261.51101627274284L860.0000000000007,262.58446359459646L879.0000000000008,263.93307236062986L898.0000000000009,265.46977536376767L917.0000000000008,267.1021643243836L936.0000000000007,268.73450269599596L955.0000000000008,270.26993392393683L974.000000000001,271.61255135972533L993.0000000000009,272.6695747223628L1012.0000000000009,273.35332570611615L1031.000000000001,273.5831378927948L1050.0000000000011,273.28713920033914L1069.000000000001,272.40378155939004L1088.000000000001,270.88320480584247L1107.0000000000011,268.6883228820559L1126.000000000001,265.79567423501845"></path><path class="area" style="fill: rgb(214, 39, 40);"></path><text class="curve_label" x="3" dy=".35em" display="none" transform="translate(1126, 265.7956848144531)">C4</text></g><g class="curve" display="inline"><path class="line" fill="none" id="curve5" style="stroke: rgb(148, 103, 189); stroke-width: 1; stroke-dasharray: none;" d="M5,239.31620741772713L24.000000000000014,241.75154321856473L43.000000000000036,244.48282452207437L62.00000000000005,247.55547198801818L81.00000000000007,251.00019996121512L100.00000000000009,254.8321180927215L119.0000000000001,259.0503540522619L138.0000000000001,263.6381556788706L157.00000000000014,268.5635266129289L176.00000000000014,273.78023243970904L195.00000000000017,279.2292218362018L214.0000000000002,284.8404006520509L233.0000000000002,290.5345397903065L252.00000000000023,296.2256002729329L271.0000000000002,301.8229373423463L290.0000000000002,307.23380145665544L309.0000000000003,312.365691204947L328.0000000000003,317.12871826156487L347.0000000000003,321.4379249484874L366.00000000000034,325.2153917076514L385.00000000000034,328.39219524006893L404.00000000000034,330.9102365274937L423.0000000000004,332.72367058505307L442.0000000000004,333.80022369678886L461.0000000000004,334.1221576304189L480.0000000000004,333.6869378372382L499.00000000000045,332.5075554811013L518.0000000000005,330.6125705691293L537.0000000000005,328.0457285316757L556.0000000000006,324.86529998463106L575.0000000000005,321.14302179045444L594.0000000000006,316.9627399188837L613.0000000000006,312.41868355269037L632.0000000000006,307.6134819360501L651.0000000000006,302.65587195191637L670.0000000000006,297.65825430326606L689.0000000000006,292.73403837010176L708.0000000000007,287.99488940766037L727.0000000000007,283.54796746241044L746.0000000000007,279.4932187488064L765.0000000000007,275.92075278569445L784.0000000000007,272.90846731722L803.0000000000007,270.51994374053413L822.0000000000007,268.8026683063465L841.0000000000008,267.78668649517675L860.0000000000007,267.48372868198373L879.0000000000008,267.88679941021866L898.0000000000009,268.97029096463297L917.0000000000008,270.6906132931684L936.0000000000007,272.9873388892296L955.0000000000008,275.7847711240395L974.000000000001,278.9939763877843L993.0000000000009,282.5151030862469L1012.0000000000009,286.24002464221684L1031.000000000001,290.05514325771725L1050.0000000000011,293.8443167818218L1069.000000000001,297.491726044061L1088.000000000001,300.88473901026134L1107.0000000000011,303.91654434602475L1126.000000000001,306.4885669891451"></path><path class="area" style="fill: rgb(148, 103, 189);"></path><text class="curve_label" x="3" dy=".35em" display="none" transform="translate(1126, 306.4885559082031)">C5</text></g></g><g clip-path="url(#clip_path_3c899252-d4c9-49e6-9b91-99c3facaf837)" style="display: inline;"><g class="curve" display="inline"><path class="line" fill="none" id="curve1" style="stroke: magenta; stroke-width: 2; stroke-dasharray: none;" d="M5,242.69211007632683L24.000000000000014,247.29842081634806L43.000000000000036,252.18691085309825L62.00000000000005,257.3107794344382L81.00000000000007,262.6186326300438L100.00000000000009,268.05509473144303L119.0000000000001,273.5615140109077L138.0000000000001,279.07675313128067L157.00000000000014,284.5380522959978L176.00000000000014,289.88195121391436L195.00000000000017,295.04525418484917L214.0000000000002,299.966021142201L233.0000000000002,304.58456636552825L252.00000000000023,308.84444583777133L271.0000000000002,312.69341389885244L290.0000000000002,316.0843299594579L309.0000000000003,318.97599659460093L328.0000000000003,321.33391133316655L347.0000000000003,323.1309158824369L366.00000000000034,324.3477283494046L385.00000000000034,324.97334620629175L404.00000000000034,325.0053102487519L423.0000000000004,324.44982255545506L442.0000000000004,323.3217144133075L461.0000000000004,321.64426325384954L480.0000000000004,319.4488607798793L499.00000000000045,316.77453757161925L518.0000000000005,313.66735247349476L537.0000000000005,310.17965790274707L556.0000000000006,306.3692548208228L575.0000000000005,302.2984534049998L594.0000000000006,298.03305739608516L613.0000000000006,293.6412916325492L632.0000000000006,289.1926933769217L651.0000000000006,284.75698867274724L670.0000000000006,280.4029751279137L689.0000000000006,276.1974322028145L708.0000000000007,272.2040793016985L727.0000000000007,268.48260074631554L746.0000000000007,265.08775508693753L765.0000000000007,262.0685842210607L784.0000000000007,259.4677354969465L803.0000000000007,257.3209074368582L822.0000000000007,255.656426987732L841.0000000000008,254.49496336275635L860.0000000000007,253.84938064511783L879.0000000000008,253.72472845377973L898.0000000000009,254.1183671872557L917.0000000000008,255.02022172771944L936.0000000000007,256.413155061833L955.0000000000008,258.27345110702777L974.000000000001,260.57139416539513L993.0000000000009,263.27193089579805L1012.0000000000009,266.33539952292335L1031.000000000001,269.718310204596L1050.0000000000011,273.37416006086124L1069.000000000001,277.25426632559544L1088.000000000001,281.30860140008417L1107.0000000000011,285.4866142460678L1126.000000000001,289.738023523608"></path><path class="area" style="fill: magenta;"></path><text class="curve_label" x="3" dy=".35em" display="none" transform="translate(1126, 289.738037109375)">C1</text></g></g><g class="g_legend" transform="translate(1102 0) "></g></g><g></g><text class="mainheading" x="575" y="-30" dy="1em">Gaussian Process Regression</text></g><defs><clipPath id="clip_path_3c899252-d4c9-49e6-9b91-99c3facaf837"><rect x="0" y="0" width="1150" height="600"></rect></clipPath></defs></svg>
