<svg class="svg-figure" version="1.1" xmlns="http://www.w3.org/2000/svg" xmlns:xlink="http://www.w3.org/1999/xlink" width="720" height="499.9999694824219"><defs><style type="text/css"><![CDATA[
:root {
	--bq-axis-tick-stroke:     #424242;
	--bq-axis-tick-stroke-width:  1;
	--bq-axis-tick-opacity:  1;
	--bq-axis-tick-text-fill:   rgba(255, 255, 255, 0.7);
	--bq-axis-tick-text-font:   12px sans-serif;
	--bq-axis-path-stroke:    rgba(255, 255, 255, 0.7);
	--bq-axislabel-fill:   orange;
	--bq-axislabel-font:  14px sans-serif;
	--bq-mainheading-fill:   orange;
	--bq-mainheading-font-size:  large;
	--bq-content-scatter-font-color:   rgba(255, 255, 255, 1);
	--bq-plotarea-background-fill:   #111111;
}
*, ::before, ::after { box-sizing: inherit; }
                                    *, ::before, ::after { box-sizing: unset; }
                                    .svg-background { position: absolute; width: 100%; height: 100%; z-index: 0; }
                                    svg { z-index: 0; font: 11px sans-serif; user-select: none; flex-grow: 1; }
                                    svg .axis .tick line { stroke: var(--bq-axis-tick-stroke); stroke-width: var(--bq-axis-tick-stroke-width); opacity: var(--bq-axis-tick-opacity); }
                                    svg .axis .tick text { fill: var(--bq-axis-tick-text-fill); font: var(--bq-axis-tick-text-font); }
                                    svg .axis line { shape-rendering: crispedges; font: 10px sans-serif; stroke-width: 1px; }
                                    svg .axis path, svg .axis line { fill: none; }
                                    svg .axis path { stroke: var(--bq-axis-path-stroke); }
                                    svg .axis text.axislabel, svg .axis tspan.axislabel { text-anchor: end; fill: var(--bq-axislabel-fill); font: var(--bq-axislabel-font); }
                                    svg .axis .tick text { cursor: default; }
                                    svg text.mainheading { text-anchor: middle; fill: var(--bq-mainheading-fill); font-style: ; font-variant-ligatures: ; font-variant-caps: ; font-variant-numeric: ; font-variant-east-asian: ; font-weight: ; font-stretch: ; line-height: ; font-family: ; font-size: var(--bq-mainheading-font-size); }
                                    svg text.dot_text { fill: var(--bq-content-scatter-font-color); }
                                    svg .plotarea_background { fill: var(--bq-plotarea-background-fill); }
                                    svg .plotarea_events { opacity: 0; }
                                    .g_legend { fill: none; }
                                    svg { font-size: 10px; }

]]></style></defs><g transform="translate(60,60)"><rect class="plotarea_background" x="0" y="0" width="600" height="379.9999694824219" style="pointer-events: inherit;"></rect><g><g style="display: inline;"><g class="axis" transform="translate(0, 379.9999694824219)" fill="none" font-size="10" font-family="sans-serif" text-anchor="middle"><path class="domain" stroke="currentColor" d="M0.5,6V0.5H600.5V6"></path><g class="tick" opacity="1" transform="translate(33.41246032714844, 0)"><line stroke="currentColor" y2="-379.9999694824219"></line><text fill="currentColor" y="3" dy="0.71em" transform="rotate(0)">0.6</text></g><g class="tick" opacity="1" transform="translate(92.76525115966797, 0)"><line stroke="currentColor" y2="-379.9999694824219"></line><text fill="currentColor" y="3" dy="0.71em" transform="rotate(0)">0.8</text></g><g class="tick" opacity="1" transform="translate(152.11802673339844, 0)"><line stroke="currentColor" y2="-379.9999694824219"></line><text fill="currentColor" y="3" dy="0.71em" transform="rotate(0)">1</text></g><g class="tick" opacity="1" transform="translate(211.4708251953125, 0)"><line stroke="currentColor" y2="-379.9999694824219"></line><text fill="currentColor" y="3" dy="0.71em" transform="rotate(0)">1.2</text></g><g class="tick" opacity="1" transform="translate(270.8236083984375, 0)"><line stroke="currentColor" y2="-379.9999694824219"></line><text fill="currentColor" y="3" dy="0.71em" transform="rotate(0)">1.4</text></g><g class="tick" opacity="1" transform="translate(330.1763916015625, 0)"><line stroke="currentColor" y2="-379.9999694824219"></line><text fill="currentColor" y="3" dy="0.71em" transform="rotate(0)">1.6</text></g><g class="tick" opacity="1" transform="translate(389.5291748046875, 0)"><line stroke="currentColor" y2="-379.9999694824219"></line><text fill="currentColor" y="3" dy="0.71em" transform="rotate(0)">1.8</text></g><g class="tick" opacity="1" transform="translate(448.8819580078125, 0)"><line stroke="currentColor" y2="-379.9999694824219"></line><text fill="currentColor" y="3" dy="0.71em" transform="rotate(0)">2</text></g><g class="tick" opacity="1" transform="translate(508.2347412109375, 0)"><line stroke="currentColor" y2="-379.9999694824219"></line><text fill="currentColor" y="3" dy="0.71em" transform="rotate(0)">2.2</text></g><g class="tick" opacity="1" transform="translate(567.5875244140625, 0)"><line stroke="currentColor" y2="-379.9999694824219"></line><text fill="currentColor" y="3" dy="0.71em" transform="rotate(0)">2.4</text></g><text class="axislabel" x="300" y="2em" dy="0.25ex" dx="0em" transform="" style="text-anchor: middle;"></text></g></g><g style="display: inline;"><g class="axis" transform="translate(0, 0)" fill="none" font-size="10" font-family="sans-serif" text-anchor="end"><path class="domain" stroke="currentColor" d="M-6,380.4999694824219H0.5V0.5H-6"></path><g class="tick" opacity="1" transform="translate(0, 368.9463195800781)"><line stroke="currentColor" x2="600"></line><text fill="currentColor" x="-3" dy="0.32em" transform="rotate(0)">-0.4</text></g><g class="tick" opacity="1" transform="translate(0, 322.32586669921875)"><line stroke="currentColor" x2="600"></line><text fill="currentColor" x="-3" dy="0.32em" transform="rotate(0)">-0.3</text></g><g class="tick" opacity="1" transform="translate(0, 275.7054138183594)"><line stroke="currentColor" x2="600"></line><text fill="currentColor" x="-3" dy="0.32em" transform="rotate(0)">-0.2</text></g><g class="tick" opacity="1" transform="translate(0, 229.08494567871094)"><line stroke="currentColor" x2="600"></line><text fill="currentColor" x="-3" dy="0.32em" transform="rotate(0)">-0.1</text></g><g class="tick" opacity="1" transform="translate(0, 182.4644775390625)"><line stroke="currentColor" x2="600"></line><text fill="currentColor" x="-3" dy="0.32em" transform="rotate(0)">0</text></g><g class="tick" opacity="1" transform="translate(0, 135.84400939941406)"><line stroke="currentColor" x2="600"></line><text fill="currentColor" x="-3" dy="0.32em" transform="rotate(0)">0.1</text></g><g class="tick" opacity="1" transform="translate(0, 89.22355651855469)"><line stroke="currentColor" x2="600"></line><text fill="currentColor" x="-3" dy="0.32em" transform="rotate(0)">0.2</text></g><g class="tick" opacity="1" transform="translate(0, 42.603092193603516)"><line stroke="currentColor" x2="600"></line><text fill="currentColor" x="-3" dy="0.32em" transform="rotate(0)">0.3</text></g><text class="axislabel" transform="rotate(-90)" x="-189.99998474121094" y="-4ex" dy="0em" dx="0em" style="text-anchor: middle;"></text></g></g></g><rect class="plotarea_events" x="0" y="0" width="600" height="379.9999694824219" style="pointer-events: inherit;"></rect><g><g clip-path="url(#clip_path_8a6f426a-c8fd-43d1-9fef-6f4ea13f736f)" style="display: inline;"><g class="curve" display="inline"><path class="line" fill="none" id="curve1" style="stroke: dodgerblue; stroke-width: 2; stroke-dasharray: none;" d="M3.23606797749979,12.736067214560338L4.425502574784361,17.96818801595309L5.614937172068932,23.226755611961288L6.804371769353503,28.509371366593594L7.993806366638074,33.813645790870694L9.183240963922646,39.13719946378649L10.372675561207217,44.47766394172927L11.562110158491787,49.83268265607571L12.751544755776358,55.199911798677334L13.940979353060929,60.57702119497044L15.1304139503455,65.96169516444328L16.319848547630073,71.35163336820396L17.50928314491464,76.74455164339963L18.698717742199214,82.13818282424413L19.88815233948375,87.53027754942069L21.077586936768324,92.91860505563244L22.267021534052894,98.30095395707889L23.456456131337465,103.67513301064992L24.645890728622035,109.03897186663119L25.83532532590661,114.39032180472375L27.024759923191176,119.72705645519129L28.21419452047575,125.0470725049503L29.40362911776032,130.34829038843333L30.59306371504489,135.62865496305662L31.782498312329462,140.88613616913636L32.97193290961403,146.11872967410034L34.16136750689861,151.32445750085628L35.350802104183174,156.50136864017787L36.54023670146775,161.64753964698474L37.72967129875232,166.7610752203942L38.91910589603689,171.84010876743565L40.108540493321456,176.8828029503209L41.29797509060603,181.8873502171766L42.487409687890604,186.8519733161474L43.67684428517517,191.77492579279198L44.866278882459746,196.65449247069483L46.055713479744284,201.48898991523075L47.24514807702886,206.2767668804223L48.434582674313425,211.01620473883924L49.624017271598,215.70571789449752L50.81345186888257,220.34375417871988L52.00288646616713,224.92879522893207L53.19232106345171,229.4593568503712L54.38175566073628,233.9339893606931L55.571190258020856,238.35127791747092L56.76062485530542,242.70984282858748L57.95005945258999,247.0083398455267L59.139494049874564,251.24546043957932L60.32892864715914,255.41993206098428L61.518363244443705,259.53051838103505L62.70779784172828,263.57601951718556L63.89723243901285,267.55527224119726L65.08666703629743,271.46715017037667L66.27610163358199,275.3105639419596L67.46553623086656,279.08446137070285L68.65497082815114,282.7878275897529L69.84440542543571,286.4196851748648L71.03384002272028,289.9790942520552L72.22327462000484,293.46515258877486L73.41270921728942,296.8769956686949L74.60214381457399,300.21379675020665L75.79157841185857,303.47476690874083L76.98101300914313,306.65915506301747L78.1704476064277,309.7662479853441L79.35988220371227,312.79537029608485L80.54931680099685,315.74588444243L81.73875139828141,318.61719066159935L82.92818599556598,321.4087269286193L84.11762059285056,324.11996888881833L85.30705519013513,326.7504297751917L86.4964897874197,329.2996603107896L87.68592438470424,331.76724859628916L88.87535898198881,334.1528199829161L90.06479357927337,336.45603693088503L91.25422817655794,338.67659885353254L92.44366277384252,340.81424194732443L93.63309737112709,342.868739007917L94.82253196841167,344.83989923246344L96.01196656569624,346.727568008356L97.20140116298082,348.5316266885994L98.39083576026538,350.2519923540181L99.58027035754995,351.8886175624979L100.76970495483452,353.44149008547333L101.9591395521191,354.9106326318694L103.14857414940363,356.2961025597152L104.3380087466882,357.59799157564527L105.52744334397278,358.8164254225118L106.71687794125735,359.9515635553337L107.90631253854191,361.0035988058068L109.09574713582649,361.972757035611L110.28518173311106,362.85929677874344L111.47461633039563,363.663508873117L112.6640509276802,364.3857160816619L113.85348552496477,365.0262727031722L115.04292012224934,365.58556417314105L116.2323547195339,366.0640066548299L117.42178931681848,366.46204662082073L118.61122391410305,366.7801604253011L119.80065851138762,367.01885386733375L120.9900931086722,367.1786617453632L122.17952770595677,367.26014740321796L123.36896230324135,367.26390226786157L124.5583969005259,367.19054537915235L125.74783149781048,367.0407229118711L126.93726609509505,366.81510769027705L128.12670069237961,366.51439869545413L129.31613528966417,366.1393205657098L130.50556988694876,365.69062309028845L131.69500448423332,365.16908069666664L132.8844390815179,364.57549193169086L134.07387367880247,363.91067893682566L135.26330827608703,363.1754869177753L136.45274287337162,362.3707836087473L137.64217747065618,361.4974587316195L138.83161206794077,360.556423450281L140.02104666522533,359.54860982040816L141.21048126250992,358.4749702349435L142.39991585979448,357.33647686554275L143.58935045707906,356.1341211002524L144.77878505436362,354.86891297768415L145.9682196516482,353.5418806179475L147.15765424893274,352.1540696506056L148.34708884621728,350.70654263991327L149.53652344350186,349.2003785075995L150.72595804078642,347.6366719534552L151.91539263807098,346.01653287398216L153.1048272353556,344.3410857793621L154.29426183264013,342.611469209003L155.48369642992475,340.82883514591276L156.67313102720925,338.9943484301603L157.8625656244939,337.1091861716668L159.0520002217784,335.17453716258524L160.24143481906304,333.1916012895082L161.43086941634755,331.1615889457565L162.6203040136322,329.0857204439871L163.8097386109167,326.96522542936685L164.9991732082013,324.80134229354604L166.18860780548582,322.59531758967677L167.37804240277046,320.3484054487012L168.56747700005496,318.06186699715397L169.7569115973396,315.7369697766974L170.9463461946241,313.3749871656264L172.13578079190867,310.97719780256165L173.32521538919326,308.54488501255776L174.51464998647782,306.0793362358419L175.7040845837624,303.5818424594032L176.89351918104697,301.05369765164403L178.08295377833156,298.49619820030506L179.27238837561612,295.9106423538714L180.4618229729007,293.29832966666476L181.65125757018527,290.66056044782215L182.84069216746983,287.99863521436123L184.03012676475439,285.3138541485242L185.21956136203897,282.60751655959484L186.40899595932353,279.8809203503751L187.5984305566081,277.13536148850596L188.78786515389268,274.37213348281546L189.97729975117724,271.59252686486855L191.16673434846183,268.79782867589665L192.3561689457464,265.98932195927466L193.54560354303098,263.168285258712L194.73503814031554,260.33599212232446L195.92447273760013,257.4937106127407L197.1139073348847,254.6427028234044L198.30334193216927,251.78422440121966L199.4927765294538,248.9195240756897L200.6822111267384,246.04984319469335L201.87164572402295,243.17641526703733L203.06108032130746,240.3004655119221L204.2505149185921,237.42321041545316L205.4399495158766,234.54585729432716L206.62938411316125,231.66960386681242L207.81881871044575,228.79563783115321L209.0082533077304,225.92513645150115L210.1976879050149,223.0592661515001L211.38712250229955,220.19918211561944L212.57655709958405,217.3460278983498L213.7659916968687,214.5009350413539L214.9554262941532,211.66502269867428L216.14486089143784,208.83939727008195L217.33429548872232,206.02515204266425L218.52373008600694,203.22336684072175L219.71316468329147,200.4351076840672L220.90259928057608,197.66142645479022L222.0920338778606,194.9033605725669L223.28146847514523,192.16193267857568L224.47090307242973,189.43815032808644L225.66033766971438,186.73300569177638L226.84977226699888,184.04747526583543L228.03920686428353,181.38251959089996L229.22864146156803,178.73908297987435L230.41807605885268,176.11809325467087L231.60751065613718,173.520461491915L232.79694525342177,170.94708177764454L233.98637985070633,168.39883097103657L235.1758144479909,165.87656847718586L236.36524904527545,163.3811360289588L237.55468364256,160.9133574779397L238.7441182398446,158.47403859448536L239.93355283712916,156.0639668768967L241.12298743441374,153.68391136971496L242.3124220316983,151.33462249114598L243.5018566289829,149.01683186960983L244.69129122626745,146.73125218941118L245.88072582355204,144.4785770455238L247.0701604208366,142.2594808074741L248.2595950181212,140.07461849230924L249.44902961540575,137.92462564663026L250.63846421269034,135.8101182376653L251.8278988099749,133.73169255335893L253.01733340725943,131.68992511144418L254.20676800454402,129.68537257746445L255.39620260182858,127.71857169170947L256.5856371991132,125.79003920502211L257.77507179639775,123.90027182343319L258.9645063936823,122.04974616157708L260.1539409909669,120.2389187048361L261.34337558825143,118.46822578016221L262.53281018553605,116.73808353551534L263.7222447828205,115.0488879278612L264.91167938010517,113.40101471966388L266.1011139773897,111.79481948380749L267.2905485746743,110.23063761687523L268.4799831719588,108.70878436071872L269.66941776924347,107.22955483223521L270.85885236652797,105.79322406128273L272.0482869638126,104.40004703664518L273.2377215610971,103.05025875996911L274.42715615838176,101.74407430758347L275.6165907556662,100.48168890011513L276.8060253529509,99.26327797980657L277.9954599502354,98.08899729544659L279.18489454752,96.9589829948118L280.3743291448045,95.87335172452681L281.5637637420891,94.83220073723727L282.7531983393737,93.83560800599557L283.9426329366583,92.88363234575355L285.1320675339428,91.97631354185464L286.3215021312274,91.1136724854148L287.510936728512,90.29571131548529L288.7003713257966,89.52241356787721L289.8898059230811,88.79374433054008L291.0792405203657,88.10965040537093L292.2686751176503,87.47006047634052L293.4581097149348,86.87488528381252L294.6475443122194,86.32401780493595L295.83697890950396,85.8173334399864L297.0264135067885,85.35469020453108L298.2158481040731,84.93592892729166L299.40528270135763,84.56087345357682L300.59471729864225,84.2293308541551L301.7841518959268,83.94109163943827L302.97358649321137,83.69592997884402L304.16302109049593,83.49360392520393L305.35245568778055,83.33385564408462L306.54189028506505,83.21641164788701L307.73132488234967,83.14098303458725L308.9207594796342,83.1072657309849L310.11019407691884,83.11494074031864L311.29962867420335,83.16367439411425L312.48906327148796,83.25311860812401L313.6784978687725,83.38291114222012L314.8679324660571,83.55267586410169L316.05736706334164,83.76202301667485L317.2468016606262,84.01054948896605L318.4362362579108,84.29783909042753L319.6256708551953,84.62346282849343L320.81510545247994,84.98697918924546L322.0045400497645,85.3879344210463L323.1939746470491,85.8258628209995L324.3834092443336,86.30028702409335L325.57284384161824,86.81071829488796L326.7622784389028,87.35665682160305L327.9517130361874,87.93759201246564L329.1411476334719,88.5530027941759L330.33058223075653,89.20235791235015L331.5200168280411,89.8851162338004L332.70945142532565,90.60072705050996L333.8988860226102,91.34863038516477L335.0883206198948,92.12825729810194L336.2777552171794,92.9390301955348L337.4671898144639,93.78036313891836L338.65662441174845,94.65166215531485L339.846059009033,95.55232554862431L341.0354936063176,96.48174421154266L342.22492820360213,97.43930193811222L343.41436280088675,98.42437573672962L344.6037973981713,99.43633614347752L345.79323199545587,100.47454753564716L346.98266659274043,101.53836844531924L348.17210119002505,102.62715187287328L349.3615357873096,103.74024560029478L350.5509703845941,104.8769925041515L351.7404049818787,106.03673086811216L352.9298395791633,107.21879469487959L354.11927417644785,108.42251401741505L355.3087087737324,109.64721520932923L356.498143371017,110.89222129431602L357.6875779683016,112.15685225451095L358.87701256558614,113.44042533765173L360.0664471628707,114.74225536292467L361.2558817601553,116.06165502537878L362.4453163574399,117.39793519879348L363.63475095472444,118.75040523688622L364.824185552009,120.11837327274624L366.0136201492936,121.50114651638704L367.2030547465782,122.89803155030593L368.3924893438627,124.30833462294581L369.5819239411473,125.73136193995197L370.77135853843185,127.16641995312234L371.9607931357164,128.61281564694735L373.150227733001,130.06985682264127L374.3396623302856,131.53685237956591L375.52909692757015,133.0131125939498L376.7185315248547,134.49794939481095L377.90796612213927,135.99067663698736L379.0974007194239,137.49061037118813L380.28683531670845,138.9970691109734L381.476269913993,140.50937409657993L382.66570451127757,142.02684955550487L383.8551391085622,143.54882295976643L385.0445737058467,145.0746252797614L386.23400830313125,146.60359123464067L387.42344290041586,148.13505953912568L388.6128774977004,149.66837314669252L389.802312094985,151.2028794890517L390.99174669226954,152.73793071185193L392.18118128955416,154.2728839065423L393.3706158868387,155.80710133832523L394.5600504841233,157.33995067013709L395.74948508140784,158.87080518259577L396.93891967869246,160.39904398985476L398.128354275977,161.92405225130773L399.3177888732615,163.44522137908743L400.5072234705461,164.96194924130813L401.6966580678307,166.4736403609978L402.8860926651152,167.9797061106756L404.07552726239976,169.4795649025256L405.2649618596844,170.97264237412375L406.4543964569689,172.4583715696772L407.6438310542535,173.93619311673407L408.83326565153806,175.4055553983292L410.0227002488227,176.8659147205287L411.2121348461072,178.31673547534098L412.4015694433918,179.75749029896366L413.59100404067635,181.1876602253371L414.78043863796097,182.60673483497987L415.9698732352455,184.01421239907867L417.1593078325301,185.40960001881447L418.34874242981465,186.79241375990236L419.5381770270992,188.16217878232794L420.72761162438377,189.51842946526534L421.91704622166833,190.8607095271624L423.10648081895295,192.18857214098236L424.29591541623745,193.50158004459232L425.48535001352207,194.79930564629208L426.6747846108066,196.08133112547648L427.86421920809124,197.34724852843067L429.05365380537575,198.59665985925542L430.24308840266036,199.82917716592462L431.4325229999449,201.04442262147683L432.62195759722954,202.24202860034737L433.81139219451404,203.4216377498477L435.00082679179866,204.5829030567994L436.1902613890832,205.72548790933652L437.3796959863678,206.84906615388667L438.56913058365234,207.9533221473474L439.7585651809369,209.0379508044735L440.9479997782215,210.1026576404938L442.137434375506,211.14715880897847L443.32686897279063,212.1711811349786L444.5163035700752,213.17446214346188L445.7057381673598,214.15675008306985L446.8951727646443,215.1178039452254L448.08460736192893,216.0573934786184L449.2740419592135,216.97529919910068L450.463476556498,217.8713123950233L451.6529111537826,218.74523512805038L452.8423457510673,219.5968802294837L454.0317803483518,220.42607129213764L455.2212149456363,221.23264265780273L456.4106495429209,222.0164394003364L457.6000841402055,222.77731730442574L458.7895187374901,223.51514284006353L459.97895333477453,224.22979313278339L461.1683879320592,224.92115592970026L462.3578225293437,225.5891295614027L463.5472571266282,226.2336228997481L464.7366917239128,226.85455531160912L465.9261263211975,227.4518566086235L467.115560918482,228.02546699300055L468.3049955157665,228.57533699943815L469.4944301130511,229.1014274332049L470.6838647103358,229.6037093044445L471.87329930762024,230.08216375875946L473.0627339049048,230.53678200413248L474.2521685021894,230.96756523424685L475.44160309947404,231.3745245482629L476.63103769675854,231.75768086711676L477.82047229404304,232.11706484639987L479.0099068913277,232.45271678588597L480.19934148861233,232.7646865357672L481.38877608589684,233.05303339966733L482.57821068318134,233.31782603449616L483.767645280466,233.55914234721257L484.95707987775063,233.77706938856414L486.14651447503513,233.97170324387145L487.33594907231964,234.14314892092622L488.5253836696043,234.29152023507254L489.7148182668889,234.4169396915421L490.90425286417343,234.51953836511396L492.09368746145793,234.59945577716994L493.28312205874255,234.65683977021865L494.4725566560272,234.69184637995912L495.66199125331167,234.70463970495805L496.85142585059623,234.69539177401364L498.04086044788085,234.66428241127875L499.23029504516546,234.6114990992194L500.41972964244997,234.53723683948058L501.6091642397345,234.44169801173544L502.7985988370191,234.32509223059256L503.98803343430376,234.1876362006356L505.17746803158826,234.02955356967104L506.36690262887277,233.85107478025967L507.5563372261574,233.65243691960669L508.745771823442,233.43388356788606L509.93520642072656,233.19566464507514L511.124641018011,232.93803625637474L512.3140756152957,232.66126053629046L513.5035102125804,232.36560549145102L514.6929448098648,232.051344842238L515.8823794071493,231.71875786330438L517.0718140044339,231.3681292230547L518.2612486017186,230.999748822164L519.4506831990032,230.61391163120908L520.6401177962877,230.21091752748677L521.8295523935723,229.79107113109464L523.0189869908568,229.35468164034708L524.2084215881413,228.90206266660095L525.3978561854259,228.43353206856435L526.5872907827105,227.94941178616125L527.776725379995,227.45002767402522L528.9661599772796,226.9357093346933L530.1555945745642,226.40678995157356L531.3450291718488,225.86360612175596L532.5344637691333,225.30649768873843L533.7238983664179,224.7358075751373L534.9133329637025,224.15188161545353L536.1027675609871,223.55506838896204L537.2922021582716,222.94571905279386L538.4816367555562,222.3241871752783L539.6710713528407,221.69082856961285L540.8605059501253,221.04600112792758L542.0499405474098,220.39006465580877L543.2393751446945,219.72338070734853L544.4288097419791,219.04631242078327L545.6182443392637,218.35922435478645L546.8076789365482,217.6624823254765L547.9971135338326,216.9564532442032L549.1865481311173,216.24150495617414L550.3759827284019,215.51800607998078L551.5654173256864,214.7863258480839L552.7548519229709,214.04683394831676L553.9442865202557,213.29990036646552L555.1337211175403,212.5458952299817L556.3231557148248,211.78518865288368L557.5125903121092,211.01815058190178L558.7020249093939,210.24515064392193L559.8914595066785,209.46655799478003L561.080894103963,208.68274116945938L562.2703287012475,207.89406793374283L563.4597632985322,207.10090513736853L564.6491978958169,206.30361856874038L565.8386324931014,205.50257281123857L567.0280670903858,204.69813110117943L568.2175016876704,203.89065518746966L569.4069362849551,203.0805051929999L570.5963708822396,202.26803947782076L571.7858054795241,201.45361450414484L572.9752400768087,200.63758470321633L574.1646746740935,199.82030234408828L575.3541092713779,199.0021174043469L576.5435438686624,198.1833774428206L577.732978465947,197.36442747431283L578.9224130632317,196.54560984639224L580.1118476605162,195.72726411827648L581.3012822578007,194.90972694184268L582.4907168550853,194.0933319447975L583.6801514523697,193.27840961603863L584.8695860496543,192.4652871932354L586.059020646939,191.65428855266163L587.2484552442236,190.84573410130469L588.4378898415081,190.03994067128042L589.6273244387927,189.23722141657657L590.8167590360773,188.43788571215242L592.0061936333619,187.6422390554146L593.1956282306463,186.85058297009346L594.3850628279309,186.0632149125394L595.5744974252156,185.28042818045904L596.7639320225002,184.5025118241113"></path><path class="area" style="fill: dodgerblue;"></path><text class="curve_label" x="3" dy=".35em" display="none" transform="translate(596.763916015625, 184.5025177001953)">C1</text></g></g><g clip-path="url(#clip_path_8a6f426a-c8fd-43d1-9fef-6f4ea13f736f)" style="display: inline;"><g class="curve" display="inline"><path class="line" fill="none" id="curve1" style="opacity: 0.7; stroke: rgb(204, 204, 204); stroke-width: 2; stroke-dasharray: none;" d="M567.0875388202502,204.65782636749103L554.2839463305917,213.08528875378747L542.3321828740875,220.23282547489774L531.7879554107834,225.65775685822274L522.967654878642,229.37385214410298L515.9183333328451,231.70842214069822L510.48349934277763,233.07930152577873L506.4036270736268,233.84524209389332L503.39842446282927,234.25836610881103L501.21378568270956,234.47580395555443L499.63999002505307,234.58833473939063"></path><path class="area" style="fill: rgb(204, 204, 204);"></path><text class="curve_label" x="3" dy=".35em" display="none" transform="translate(499.6399841308594, 234.5883331298828)">C1</text></g></g><g clip-path="url(#clip_path_8a6f426a-c8fd-43d1-9fef-6f4ea13f736f)" style="display: inline;"><g class="object_grp" transform="translate(567.0875244140625, 204.65782165527344)"><path class="dot element" style="fill: magenta; stroke: magenta; opacity: 1; stroke-width: 1.5;" d="M0,2.5231325220201604A2.5231325220201604,2.5231325220201604 0 1,1 0,-2.5231325220201604A2.5231325220201604,2.5231325220201604 0 1,1 0,2.5231325220201604Z"></path><text class="dot_text" transform="translate(2.2360680103302, -2.2360680103302)" display="none">Dot0</text></g><g class="object_grp" transform="translate(554.283935546875, 213.0852813720703)"><path class="dot element" style="fill: magenta; stroke: magenta; opacity: 1; stroke-width: 1.5;" d="M0,2.5231325220201604A2.5231325220201604,2.5231325220201604 0 1,1 0,-2.5231325220201604A2.5231325220201604,2.5231325220201604 0 1,1 0,2.5231325220201604Z"></path><text class="dot_text" transform="translate(2.2360680103302, -2.2360680103302)" display="none">Dot1</text></g><g class="object_grp" transform="translate(542.3321533203125, 220.23281860351562)"><path class="dot element" style="fill: magenta; stroke: magenta; opacity: 1; stroke-width: 1.5;" d="M0,2.5231325220201604A2.5231325220201604,2.5231325220201604 0 1,1 0,-2.5231325220201604A2.5231325220201604,2.5231325220201604 0 1,1 0,2.5231325220201604Z"></path><text class="dot_text" transform="translate(2.2360680103302, -2.2360680103302)" display="none">Dot2</text></g><g class="object_grp" transform="translate(531.7879638671875, 225.6577606201172)"><path class="dot element" style="fill: magenta; stroke: magenta; opacity: 1; stroke-width: 1.5;" d="M0,2.5231325220201604A2.5231325220201604,2.5231325220201604 0 1,1 0,-2.5231325220201604A2.5231325220201604,2.5231325220201604 0 1,1 0,2.5231325220201604Z"></path><text class="dot_text" transform="translate(2.2360680103302, -2.2360680103302)" display="none">Dot3</text></g><g class="object_grp" transform="translate(522.9676513671875, 229.3738555908203)"><path class="dot element" style="fill: magenta; stroke: magenta; opacity: 1; stroke-width: 1.5;" d="M0,2.5231325220201604A2.5231325220201604,2.5231325220201604 0 1,1 0,-2.5231325220201604A2.5231325220201604,2.5231325220201604 0 1,1 0,2.5231325220201604Z"></path><text class="dot_text" transform="translate(2.2360680103302, -2.2360680103302)" display="none">Dot4</text></g><g class="object_grp" transform="translate(515.9183349609375, 231.7084197998047)"><path class="dot element" style="fill: magenta; stroke: magenta; opacity: 1; stroke-width: 1.5;" d="M0,2.5231325220201604A2.5231325220201604,2.5231325220201604 0 1,1 0,-2.5231325220201604A2.5231325220201604,2.5231325220201604 0 1,1 0,2.5231325220201604Z"></path><text class="dot_text" transform="translate(2.2360680103302, -2.2360680103302)" display="none">Dot5</text></g><g class="object_grp" transform="translate(510.4834899902344, 233.0792999267578)"><path class="dot element" style="fill: magenta; stroke: magenta; opacity: 1; stroke-width: 1.5;" d="M0,2.5231325220201604A2.5231325220201604,2.5231325220201604 0 1,1 0,-2.5231325220201604A2.5231325220201604,2.5231325220201604 0 1,1 0,2.5231325220201604Z"></path><text class="dot_text" transform="translate(2.2360680103302, -2.2360680103302)" display="none">Dot6</text></g><g class="object_grp" transform="translate(506.40362548828125, 233.84524536132812)"><path class="dot element" style="fill: magenta; stroke: magenta; opacity: 1; stroke-width: 1.5;" d="M0,2.5231325220201604A2.5231325220201604,2.5231325220201604 0 1,1 0,-2.5231325220201604A2.5231325220201604,2.5231325220201604 0 1,1 0,2.5231325220201604Z"></path><text class="dot_text" transform="translate(2.2360680103302, -2.2360680103302)" display="none">Dot7</text></g><g class="object_grp" transform="translate(503.3984375, 234.25836181640625)"><path class="dot element" style="fill: magenta; stroke: magenta; opacity: 1; stroke-width: 1.5;" d="M0,2.5231325220201604A2.5231325220201604,2.5231325220201604 0 1,1 0,-2.5231325220201604A2.5231325220201604,2.5231325220201604 0 1,1 0,2.5231325220201604Z"></path><text class="dot_text" transform="translate(2.2360680103302, -2.2360680103302)" display="none">Dot8</text></g><g class="object_grp" transform="translate(501.2137756347656, 234.47579956054688)"><path class="dot element" style="fill: magenta; stroke: magenta; opacity: 1; stroke-width: 1.5;" d="M0,2.5231325220201604A2.5231325220201604,2.5231325220201604 0 1,1 0,-2.5231325220201604A2.5231325220201604,2.5231325220201604 0 1,1 0,2.5231325220201604Z"></path><text class="dot_text" transform="translate(2.2360680103302, -2.2360680103302)" display="none">Dot9</text></g><g class="object_grp" transform="translate(499.6399841308594, 234.5883331298828)"><path class="dot element" style="fill: magenta; stroke: magenta; opacity: 1; stroke-width: 1.5;" d="M0,2.5231325220201604A2.5231325220201604,2.5231325220201604 0 1,1 0,-2.5231325220201604A2.5231325220201604,2.5231325220201604 0 1,1 0,2.5231325220201604Z"></path><text class="dot_text" transform="translate(2.2360680103302, -2.2360680103302)" display="none">Dot10</text></g></g><g class="g_legend" transform="translate(552 0) "></g></g><g></g><text class="mainheading" x="300" y="-30" dy="1em">Gradient Descent</text></g><defs><clipPath id="clip_path_8a6f426a-c8fd-43d1-9fef-6f4ea13f736f"><rect x="0" y="0" width="600" height="379.9999694824219"></rect></clipPath></defs></svg>
