<svg class="svg-figure" version="1.1" xmlns="http://www.w3.org/2000/svg" xmlns:xlink="http://www.w3.org/1999/xlink" width="720" height="500"><defs><style type="text/css"><![CDATA[
:root {
	--bq-axis-tick-stroke:     #eeeeee;
	--bq-axis-tick-stroke-width:  1;
	--bq-axis-tick-opacity:  1;
	--bq-axis-tick-text-fill:   rgba(0, 0, 0, 0.54);
	--bq-axis-tick-text-font:   12px sans-serif;
	--bq-axis-path-stroke:    rgba(0, 0, 0, 0.54);
	--bq-axislabel-fill:    rgba(0, 0, 0, 0.87);
	--bq-axislabel-font:  14px sans-serif;
	--bq-mainheading-fill:    rgba(0, 0, 0, 0.87);
	--bq-mainheading-font-size:  large;
	--bq-content-scatter-font-color:   rgba(0, 0, 0, 0.87);
	--bq-plotarea-background-fill:   white;
}
*, ::before, ::after { box-sizing: inherit; }
                                    *, ::before, ::after { box-sizing: unset; }
                                    .svg-background { position: absolute; width: 100%; height: 100%; z-index: 0; }
                                    svg { z-index: 0; font: 11px sans-serif; user-select: none; flex-grow: 1; }
                                    svg .axis .tick line { stroke: var(--bq-axis-tick-stroke); stroke-width: var(--bq-axis-tick-stroke-width); opacity: var(--bq-axis-tick-opacity); }
                                    svg .axis .tick text { fill: var(--bq-axis-tick-text-fill); font: var(--bq-axis-tick-text-font); }
                                    svg .axis line { shape-rendering: crispedges; font: 10px sans-serif; stroke-width: 1px; }
                                    svg .axis path, svg .axis line { fill: none; }
                                    svg .axis path { stroke: var(--bq-axis-path-stroke); }
                                    svg .axis text.axislabel, svg .axis tspan.axislabel { text-anchor: end; fill: var(--bq-axislabel-fill); font: var(--bq-axislabel-font); }
                                    svg .axis .tick text { cursor: default; }
                                    svg text.mainheading { text-anchor: middle; fill: var(--bq-mainheading-fill); font-style: ; font-variant-ligatures: ; font-variant-caps: ; font-variant-numeric: ; font-variant-east-asian: ; font-weight: ; font-stretch: ; line-height: ; font-family: ; font-size: var(--bq-mainheading-font-size); }
                                    svg text.dot_text { fill: var(--bq-content-scatter-font-color); }
                                    svg .plotarea_background { fill: var(--bq-plotarea-background-fill); }
                                    svg .plotarea_events { opacity: 0; }
                                    .g_legend { fill: none; }
                                    svg { font-size: 10px; }

]]></style></defs><g transform="translate(60,60)"><rect class="plotarea_background" x="0" y="0" width="600" height="380" style="pointer-events: inherit;"></rect><g><g style="display: inline;"><g class="axis" transform="translate(0, 380)" fill="none" font-size="10" font-family="sans-serif" text-anchor="middle"><path class="domain" stroke="currentColor" d="M0.5,6V0.5H600.5V6"></path><g class="tick" opacity="1" transform="translate(33.41246032714844, 0)"><line stroke="currentColor" y2="-380"></line><text fill="currentColor" y="3" dy="0.71em" transform="rotate(0)">0.6</text></g><g class="tick" opacity="1" transform="translate(92.76525115966797, 0)"><line stroke="currentColor" y2="-380"></line><text fill="currentColor" y="3" dy="0.71em" transform="rotate(0)">0.8</text></g><g class="tick" opacity="1" transform="translate(152.11802673339844, 0)"><line stroke="currentColor" y2="-380"></line><text fill="currentColor" y="3" dy="0.71em" transform="rotate(0)">1</text></g><g class="tick" opacity="1" transform="translate(211.4708251953125, 0)"><line stroke="currentColor" y2="-380"></line><text fill="currentColor" y="3" dy="0.71em" transform="rotate(0)">1.2</text></g><g class="tick" opacity="1" transform="translate(270.8236083984375, 0)"><line stroke="currentColor" y2="-380"></line><text fill="currentColor" y="3" dy="0.71em" transform="rotate(0)">1.4</text></g><g class="tick" opacity="1" transform="translate(330.1763916015625, 0)"><line stroke="currentColor" y2="-380"></line><text fill="currentColor" y="3" dy="0.71em" transform="rotate(0)">1.6</text></g><g class="tick" opacity="1" transform="translate(389.5291748046875, 0)"><line stroke="currentColor" y2="-380"></line><text fill="currentColor" y="3" dy="0.71em" transform="rotate(0)">1.8</text></g><g class="tick" opacity="1" transform="translate(448.8819580078125, 0)"><line stroke="currentColor" y2="-380"></line><text fill="currentColor" y="3" dy="0.71em" transform="rotate(0)">2</text></g><g class="tick" opacity="1" transform="translate(508.2347412109375, 0)"><line stroke="currentColor" y2="-380"></line><text fill="currentColor" y="3" dy="0.71em" transform="rotate(0)">2.2</text></g><g class="tick" opacity="1" transform="translate(567.5875244140625, 0)"><line stroke="currentColor" y2="-380"></line><text fill="currentColor" y="3" dy="0.71em" transform="rotate(0)">2.4</text></g><text class="axislabel" x="300" y="2em" dy="0.25ex" dx="0em" transform="" style="text-anchor: middle;"></text></g></g><g style="display: inline;"><g class="axis" transform="translate(0, 0)" fill="none" font-size="10" font-family="sans-serif" text-anchor="end"><path class="domain" stroke="currentColor" d="M-6,380.5H0.5V0.5H-6"></path><g class="tick" opacity="1" transform="translate(0, 368.94635009765625)"><line stroke="currentColor" x2="600"></line><text fill="currentColor" x="-3" dy="0.32em" transform="rotate(0)">-0.4</text></g><g class="tick" opacity="1" transform="translate(0, 322.3258972167969)"><line stroke="currentColor" x2="600"></line><text fill="currentColor" x="-3" dy="0.32em" transform="rotate(0)">-0.3</text></g><g class="tick" opacity="1" transform="translate(0, 275.7054138183594)"><line stroke="currentColor" x2="600"></line><text fill="currentColor" x="-3" dy="0.32em" transform="rotate(0)">-0.2</text></g><g class="tick" opacity="1" transform="translate(0, 229.0849609375)"><line stroke="currentColor" x2="600"></line><text fill="currentColor" x="-3" dy="0.32em" transform="rotate(0)">-0.1</text></g><g class="tick" opacity="1" transform="translate(0, 182.46449279785156)"><line stroke="currentColor" x2="600"></line><text fill="currentColor" x="-3" dy="0.32em" transform="rotate(0)">0</text></g><g class="tick" opacity="1" transform="translate(0, 135.84402465820312)"><line stroke="currentColor" x2="600"></line><text fill="currentColor" x="-3" dy="0.32em" transform="rotate(0)">0.1</text></g><g class="tick" opacity="1" transform="translate(0, 89.22356414794922)"><line stroke="currentColor" x2="600"></line><text fill="currentColor" x="-3" dy="0.32em" transform="rotate(0)">0.2</text></g><g class="tick" opacity="1" transform="translate(0, 42.60309600830078)"><line stroke="currentColor" x2="600"></line><text fill="currentColor" x="-3" dy="0.32em" transform="rotate(0)">0.3</text></g><text class="axislabel" transform="rotate(-90)" x="-190" y="-4ex" dy="0em" dx="0em" style="text-anchor: middle;"></text></g></g></g><rect class="plotarea_events" x="0" y="0" width="600" height="380" style="pointer-events: inherit;"></rect><g><g clip-path="url(#clip_path_5e12c63c-1231-4189-9cf0-59f1d0d81f5b)" style="display: inline;"><g class="curve" display="inline"><path class="line" fill="none" id="curve1" style="stroke: dodgerblue; stroke-width: 2; stroke-dasharray: none;" d="M3.23606797749979,12.73606797749979L4.425502574784361,17.96818920675196L5.614937172068932,23.22675723278227L6.804371769353503,28.509373419403246L7.993806366638074,33.813648277440166L9.183240963922646,39.13720238569234L10.372675561207217,44.4776673003544L11.562110158491787,49.8326864526103L12.751544755776358,55.199916034119894L13.940979353060929,60.577025870128935L15.1304139503455,65.96170027993631L16.319848547630073,71.35163892446201L17.50928314491464,76.74455764066639L18.698717742199214,82.1381892625779L19.88815233948375,87.53028442869584L21.077586936768324,92.91861237554087L22.267021534052894,98.30096171713171L23.456456131337465,103.67514121017905L24.645890728622035,109.03898050479106L25.83532532590661,114.39033088049307L27.024759923191176,119.72706596737487L28.21419452047575,125.04708245218096L29.40362911776032,130.34830076917385L30.59306371504489,135.62866577560175L31.782498312329462,140.88614741161473L32.97193290961403,146.11874134447677L34.16136750689861,151.32446959693385L35.350802104183174,156.50138115960007L36.54023670146775,161.64755258723778L37.72967129875232,166.76108857880928L38.91910589603689,171.84012254119136L40.108540493321456,176.88281713644557L41.29797509060603,181.88736481255071L42.487409687890604,186.85198831750617L43.67684428517517,191.77494119672778L44.866278882459746,196.65450827365973L46.055713479744284,201.48900611353918L47.24514807702886,206.27678347025372L48.434582674313425,211.0162217162407L49.624017271598,215.70573525538634L50.81345186888257,220.34377191888655L52.00288646616713,224.92881334404288L53.19232106345171,229.45937533597106L54.38175566073628,233.93400821220837L55.571190258020856,238.3512971302123L56.76062485530542,242.70986239775277L57.95005945258999,247.00835976620382L59.139494049874564,251.2454807067492L60.32892864715914,255.41995266952372L61.518363244443705,259.5305393257199L62.70779784172828,263.57604079269333L63.89723243901285,267.55529384211053L65.08666703629743,271.46717209118583L66.27610163358199,275.31058617706583L67.46553623086656,279.08448391442164L68.65497082815114,282.7878504363164L69.84440542543571,286.4197083184253L71.03384002272028,289.97911768668826L72.22327462000484,293.46517630848217L73.41270921728942,296.87701966740747L74.60214381457399,300.2138210217879L75.79157841185857,303.47479144698957L76.98101300914313,306.6591798616712L78.1704476064277,309.766273038082L79.35988220371227,312.79539559653085L80.54931680099685,315.7459099841558L81.73875139828141,318.61721643812774L82.92818599556598,321.408752933427L84.11762059285056,324.1199951153393L85.30705519013513,326.75045621682L86.4964897874197,329.2996869608825L87.68592438470424,331.76727544817044L88.87535898198881,334.1528470298787L90.06479357927337,336.45606416619444L91.25422817655794,338.6766262704295L92.44366277384252,340.81426953902826L93.63309737112709,342.8687667676284L94.82253196841167,344.83992715336746L96.01196656569624,346.72759608362514L97.20140116298082,348.5316549113964L98.39083576026538,350.25202071749897L99.58027035754995,351.8886460598147L100.76970495483452,353.44151870977703L101.9591395521191,354.910661376313L103.14857414940363,356.29613141745637L104.3380087466882,357.598020539849L105.52744334397278,358.8164544863537L106.71687794125735,359.95159271200197L107.90631253854191,361.00362804850585L109.09574713582649,361.97278635756345L110.28518173311106,362.8593261731932L111.47461633039563,363.66353833333164L112.6640509276802,364.38574560093537L113.85348552496477,365.0263022748276L115.04292012224934,365.58559379053276L116.2323547195339,366.06403631134646L117.42178931681848,366.46207630988727L118.61122391410305,366.7801901403816L119.80065851138762,367.01888360193345L120.9900931086722,367.17869149303124L122.17952770595677,367.26017715754955L123.36896230324135,367.2639320225002L124.5583969005259,367.1905751277922L125.74783149781048,367.0407526482591L126.93726609509505,366.8151374082153L128.12670069237961,366.5144283888018L129.31613528966417,366.13935022838524L130.50556988694876,365.69065271627136L131.69500448423332,365.16911028000015L132.8844390815179,364.57552146648334L134.07387367880247,363.9107084172527L135.26330827608703,363.17551633808165L136.45274287337162,362.37081296324857L137.64217747065618,361.49748801470423L138.83161206794077,360.5564526564121L140.02104666522533,359.5486389441247L141.21048126250992,358.47499927086267L142.39991585979448,357.33650580836104L143.58935045707906,356.1341499447474L144.77878505436362,354.86894171871603L145.9682196516482,353.54190925046066L147.15765424893274,352.15409816962983L148.34708884621728,350.7065710405652L149.53652344350186,349.20040678508406L150.72595804078642,347.63670010306686L151.91539263807098,346.0165608911061L153.1048272353556,344.34111365947547L154.29426183264013,342.611496947676L155.48369642992475,340.82886273880996L156.67313102720925,338.9943758730414L157.8625656244939,337.1092134603878L159.0520002217784,335.1745642930993L160.24143481906304,333.19162825786657L161.43086941634755,331.16161574810957L162.6203040136322,329.085747076585L163.8097386109167,326.9652518885601L164.9991732082013,324.8013685757867L166.18860780548582,322.59534369151856L167.37804240277046,320.34843136680064L168.56747700005496,318.0618927282705L169.7569115973396,315.7369953176942L170.9463461946241,313.3750125134708L172.13578079190867,310.97722295432567L173.32521538919326,308.54490996541807L174.51464998647782,306.07936098708063L175.7040845837624,303.5818670064081L176.89351918104697,301.05372199190856L178.08295377833156,298.4962223314288L179.27238837561612,295.9106662735599L180.4618229729007,293.29835337272993L181.65125757018527,290.6605839381824L182.84069216746983,287.99865848704127L184.03012676475439,285.31387720165475L185.21956136203897,282.60753939141335L186.40899595932353,279.8809429592247L187.5984305566081,277.1353838728361L188.78786515389268,274.37215564118117L189.97729975117724,271.5925487959304L191.16673434846183,268.79785037842066L192.3561689457464,265.98934343213153L193.54560354303098,263.1683065008771L194.73503814031554,260.33601313287727L195.92447273760013,257.4937313908645L197.1139073348847,254.64272336838556L198.30334193216927,251.78424471244722L199.4927765294538,248.9195441526549L200.6822111267384,246.0498630369889L201.87164572402295,243.1764348743568L203.06108032130746,240.3004848840593L204.2505149185921,237.4232295523013L205.4399495158766,234.54587619587826L206.62938411316125,231.66962253315637L207.81881871044575,228.7956562624771L209.0082533077304,225.92515464808827L210.1976879050149,223.05928411372923L211.38712250229955,220.19919984396364L212.57655709958405,217.34604539337585L213.7659916968687,214.50095230372096L214.9554262941532,211.66503972913313L216.14486089143784,208.83941406947383L217.33429548872232,206.02516861191975L218.52373008600694,203.2233831808598L219.71316468329147,200.43512379619386L220.90259928057608,197.66144234009764L222.0920338778606,194.9033762323321L223.28146847514523,192.16194811415915L224.47090307242973,189.43816554093115L225.66033766971438,186.73302068340652L226.84977226699888,184.0474900378549L228.03920686428353,181.3825341449913L229.22864146156803,178.73909731779727L230.41807605885268,176.11810737826096L231.60751065613718,173.52047540308243L232.79694525342177,170.9470954783725L233.98637985070633,168.39884446338L235.1758144479909,165.87658176326994L236.36524904527545,163.38114911097756L237.55468364256,160.9133703581546L238.7441182398446,158.4740512752237L239.93355283712916,156.06397936055012L241.12298743441374,153.6839236587381L242.3124220316983,151.3346345880548L243.5018566289829,149.0168437769801L244.69129122626745,146.731263909877L245.88072582355204,144.47858858177594L247.0701604208366,142.25949216225845L248.2595950181212,140.0746296684254L249.44902961540575,137.9246366469296L250.63846421269034,135.81012906504967L251.8278988099749,133.73170321077896L253.01733340725943,131.6899356018976L254.20676800454402,129.68538290399454L255.39620260182858,127.7185818574034L256.5856371991132,125.79004921300928L257.77507179639775,123.90028167688362L258.9645063936823,122.04975586369983L260.1539409909669,120.23892825887748L261.34337558825143,118.46823518940424L262.53281018553605,116.7380928032741L263.7222447828205,115.04889705748509L264.91167938010517,113.40102371453209L266.1011139773897,111.79482834732823L267.2905485746743,110.2306463524842L268.4799831719588,108.70879297187733L269.66941776924347,107.22956332242904L270.85885236652797,105.79323243401987L272.0482869638126,104.40005529545452L273.2377215610971,103.05026690839883L274.42715615838176,101.74408234919927L275.6165907556662,100.48169683849872L276.8060253529509,99.26328581855397L277.9954599502354,98.08900503816655L279.18489454752,96.95899064512426L280.3743291448045,95.87335928606122L281.5637637420891,94.83220821363099L282.7531983393737,93.83561540089241L283.9426329366583,92.8836396628021L285.1320675339428,91.97632078470669L286.3215021312274,91.11367965772392L287.510936728512,90.29571842090523L288.7003713257966,89.52242061006032L289.8898059230811,88.79375131313587L291.0792405203657,88.10965733202457L292.2686751176503,87.47006735069138L293.4581097149348,86.8748921094926L294.6475443122194,86.32402458556857L295.83697890950396,85.81734017918464L297.0264135067885,85.35469690589643L298.2158481040731,84.93593559441258L299.40528270135763,84.56088009002738L300.59471729864225,84.2293374634936L301.7841518959268,83.94109822520586L302.97358649321137,83.69593654456338L304.16302109049593,83.49361047437796L305.35245568778055,83.33386218019517L306.54189028506505,83.21641817439352L307.73132488234967,83.14098955492554L308.9207594796342,83.10727224856595L310.11019407691884,83.11494725852731L311.29962867420335,83.16368091630814L312.48906327148796,83.25312513763224L313.6784978687725,83.3829176823422L314.8679324660571,83.55268241810637L316.05736706334164,83.76202958779899L317.2468016606262,84.01055608041358L318.4362362579108,84.29784570536832L319.6256708551953,84.62346947006226L320.81510545247994,84.98698586054105L322.0045400497645,85.3879411251302L323.1939746470491,85.82586956089524L324.3834092443336,86.30029380278536L325.57284384161824,86.81072511532075L326.7622784389028,87.35666368668028L327.9517130361874,87.93759892504913L329.1411476334719,88.55300975708492L330.33058223075653,89.20236492836054L331.5200168280411,89.8851233056437L332.70945142532565,90.6007341808727L333.8988860226102,91.34863757668771L335.0883206198948,92.12826455337927L336.2777552171794,92.93903751711352L337.4671898144639,93.78037052929751L338.65662441174845,94.65166961694494L339.846059009033,95.55233308390662L341.0354936063176,96.48175182282867L342.22492820360213,97.43930962770301L343.41436280088675,98.42438350687532L344.6037973981713,99.43634399637682L345.79323199545587,100.47455547344677L346.98266659274043,101.53837647011333L348.17210119002505,102.62715998670322L349.3615357873096,103.74025380514854L350.5509703845941,104.87700080196335L351.7404049818787,106.0367392607622L352.9298395791633,107.21880318419352L354.11927417644785,108.42252260516376L355.3087087737324,109.64722389722853L356.498143371017,110.89223008402632L357.6875779683016,112.1568611476371L358.87701256558614,113.44043433574276L360.0664471628707,114.74226446747353L361.2558817601553,116.06166423782224L362.4453163574399,117.39794452051194L363.63475095472444,118.75041466920362L364.824185552009,120.11838281692994L366.0136201492936,121.50115617364776L367.2030547465782,122.89804132179765L368.3924893438627,124.3083445097658L369.5819239411473,125.73137194314077L370.77135853843185,127.16643007366376L371.9607931357164,128.61282588576853L373.150227733001,130.06986718061276L374.3396623302856,131.53686285750172L375.52909692757015,133.01312319260757L376.7185315248547,134.497960114892L377.90796612213927,135.990687479137L379.0974007194239,137.49062133599563L380.28683531670845,138.99708019897238L381.476269913993,140.50938530824843L382.66570451127757,142.0268608912657L383.8551391085622,143.5488344199874L385.0445737058467,145.0746368647557L386.23400830313125,146.60360294466693L387.42344290041586,148.13507137438856L388.6128774977004,149.66838510734294L389.802312094985,151.20289157518718L390.99174669226954,152.73794292351704L392.18118128955416,154.27289624372895L393.3706158868387,155.80711380097333L394.5600504841233,157.3399632581348L395.74948508140784,158.87081789577988L396.93891967869246,160.3990568280114L398.128354275977,161.9240652141727L399.3177888732615,163.44523446634682L400.5072234705461,164.96196245259873L401.6966580678307,166.47365369590773L402.8860926651152,167.97971956874485L404.07552726239976,169.47957848324657L405.2649618596844,170.97265607694195L406.4543964569689,172.45838539399168L407.6438310542535,173.93620706189816L408.83326565153806,175.40556946365115L410.0227002488227,176.8659289052723L411.2121348461072,178.31674977872623L412.4015694433918,179.7575047201674L413.59100404067635,181.18767476349373L414.78043863796097,182.60674948918208L415.9698732352455,184.01422716837806L417.1593078325301,185.40961490222242L418.34874242981465,186.79242875639062L419.5381770270992,188.16219389082946L420.72761162438377,189.51844468467493L421.91704622166833,190.8607248563377L423.10648081895295,192.1885875787443L424.29591541623745,193.50159558972618L425.48535001352207,194.79932129754812L426.6747846108066,196.0813468815708L427.86421920809124,197.34726438804603L429.05365380537575,198.59667582104208L430.24308840266036,199.82919322850105L431.4325229999449,201.0444387834306L432.62195759722954,202.24204486023595L433.81139219451404,203.42165410619944L435.00082679179866,204.58291950811426L436.1902613890832,205.7255044540868L437.3796959863678,206.84908279051817L438.56913058365234,207.95333887428L439.7585651809369,209.0379676201022L440.9479997782215,210.10267454318944L442.137434375506,211.14717579708878L443.32686897279063,212.17119820682885L444.5163035700752,213.17447929735596L445.7057381673598,214.15676731729104L446.8951727646443,215.11782125803728L448.08460736192893,216.05741086826566L449.2740419592135,216.9753166638102L450.463476556498,217.87132993300477L451.6529111537826,218.7452527374973L452.8423457510673,219.59689790857433L454.0317803483518,220.42608903903582L455.2212149456363,221.2326604706587L456.4106495429209,222.0164572772878L457.6000841402055,222.77733524359832L458.7895187374901,223.51516083957216L459.97895333477453,224.22981119073293L461.1683879320592,224.92117404418636L462.3578225293437,225.5891477305127L463.5472571266282,226.23364112156187L464.7366917239128,226.85457358419995L465.9261263211975,227.45187493005898L467.115560918482,228.02548536134333L468.3049955157665,228.57535541274683L469.4944301130511,229.10144588953492L470.6838647103358,229.60372780184886L471.87329930762024,230.08218229528967L473.0627339049048,230.53680057783936L474.2521685021894,230.96758384318125L475.44160309947404,231.37454319047663L476.63103769675854,231.75769954066328L477.82047229404304,232.1170835493352L479.0099068913277,232.4527355162694L480.19934148861233,232.76470529166212L481.38877608589684,233.05305217914196L482.57821068318134,233.31784483562436L483.767645280466,233.55916116807452L484.95707987775063,233.7770882272472L486.14651447503513,233.9717220984708L487.33594907231964,234.14316778954566L488.5253836696043,234.2915391158251L489.7148182668889,234.4169585825509L490.90425286417343,234.51955726451277L492.09368746145793,234.59947468310403L493.28312205874255,234.6568586808454L494.4725566560272,234.69186529344853L495.66199125331167,234.70465861949367L496.85142585059623,234.695410687793L498.04086044788085,234.6643013225141L499.23029504516546,234.6115180061384L500.41972964244997,234.5372557403267L501.6091642397345,234.44171690476884L502.7985988370191,234.3251111140905L503.98803343430376,234.18765507289297L505.17746803158826,234.0295724290011L506.36690262887277,233.85109362499455L507.5563372261574,233.65245574809785L508.745771823442,233.4339023785049L509.93520642072656,233.1956834362135L511.124641018011,232.93805502644543L512.3140756152957,232.66127928372768L513.5035102125804,232.36562421471086L514.6929448098648,232.051363539799L515.8823794071493,231.71877653366795L517.0718140044339,231.36814786474542L518.2612486017186,230.99976743373023L519.4506831990032,230.61393021122325L520.6401177962877,230.21093607454588L521.8295523935723,229.7910896438206L523.0189869908568,229.35470011738707L524.2084215881413,228.9020811066278L525.3978561854259,228.43355047027686L526.5872907827105,227.94943014828456L527.776725379995,227.45004599531114L528.9661599772796,226.9357276139206L530.1555945745642,226.40680818754814L531.3450291718488,225.86362431331142L532.5344637691333,225.30651583473605L533.7238983664179,224.73582567446644L534.9133329637025,224.1518996670318L536.1027675609871,223.5550863917356L537.2922021582716,222.94573700573758L538.4816367555562,222.3242050773959L539.6710713528407,221.69084641993723L540.8605059501253,221.04601892552088L542.0499405474098,220.39008239976252L543.2393751446945,219.72339839678384L544.4288097419791,219.04633005485098L545.6182443392637,218.35924193266715L546.8076789365482,217.66249984638077L547.9971135338326,216.95647070737158L549.1865481311173,216.24152236087724L550.3759827284019,215.5180234255194L551.5654173256864,214.786343133789L552.7548519229709,214.04685117354947L553.9442865202557,213.29991753061736L555.1337211175403,212.5459123324744L556.3231557148248,211.7852056931692L557.5125903121092,211.01816755946234L558.7020249093939,210.24516755827003L559.8914595066785,209.46657484545833L561.080894103963,208.6827579560406L562.2703287012475,207.89408465582991L563.4597632985322,207.1009217945943L564.6491978958169,206.3036351607676L565.8386324931014,205.50258933775984L567.0280670903858,204.69814756191707L568.2175016876704,203.89067158217554L569.4069362849551,203.08052152145538L570.5963708822396,202.2680557398364L571.7858054795241,201.45363069956048L572.9752400768087,200.6376008319007L574.1646746740935,199.82031840593896L575.3541092713779,199.00213339929007L576.5435438686624,198.18339337081088L577.732978465947,197.36444333533302L578.9224130632317,196.5456256404532L580.1118476605162,195.7272798454168L581.3012822578007,194.90974260212846L582.4907168550853,194.0933475383222L583.6801514523697,193.2784251429226L584.8695860496543,192.46530265362586L586.059020646939,191.65430394673226L587.2484552442236,190.84574942925533L588.4378898415081,190.0399559333369L589.6273244387927,189.23723661299024L590.8167590360773,188.4379008432L592.0061936333619,187.64225412139774L593.1956282306463,186.85059797133854L594.3850628279309,186.06322984939703L595.5744974252156,185.2804430533039L596.7639320225002,184.50252663334163"></path><path class="area" style="fill: dodgerblue;"></path><text class="curve_label" x="3" dy=".35em" display="none" transform="translate(596.763916015625, 184.50253295898438)">C1</text></g></g><g clip-path="url(#clip_path_5e12c63c-1231-4189-9cf0-59f1d0d81f5b)" style="display: inline;"><g class="curve" display="inline"><path class="line" fill="none" id="curve1" style="opacity: 0.7; stroke: rgb(204, 204, 204); stroke-width: 2; stroke-dasharray: none;" d="M567.0875388202502,204.65784282493274L554.2839463305917,213.08530590038933L542.3321828740875,220.23284320599316L531.7879554107834,225.65777503294476L522.967654878642,229.37387062271068L515.9183333328451,231.70844081021656L510.48349934277763,233.07932030740145L506.4036270736268,233.84526093815126L503.39842446282927,234.25838498685235L501.21378568270956,234.47582285137685"></path><path class="area" style="fill: rgb(204, 204, 204);"></path><text class="curve_label" x="3" dy=".35em" display="none" transform="translate(501.2137756347656, 234.475830078125)">C1</text></g></g><g clip-path="url(#clip_path_5e12c63c-1231-4189-9cf0-59f1d0d81f5b)" style="display: inline;"><g class="object_grp" transform="translate(567.0875244140625, 204.6578369140625)"><path class="dot element" style="fill: magenta; stroke: magenta; opacity: 1; stroke-width: 1.5;" d="M0,2.5231325220201604A2.5231325220201604,2.5231325220201604 0 1,1 0,-2.5231325220201604A2.5231325220201604,2.5231325220201604 0 1,1 0,2.5231325220201604Z"></path><text class="dot_text" transform="translate(2.2360680103302, -2.2360680103302)" display="none">Dot0</text></g><g class="object_grp" transform="translate(554.283935546875, 213.08531188964844)"><path class="dot element" style="fill: magenta; stroke: magenta; opacity: 1; stroke-width: 1.5;" d="M0,2.5231325220201604A2.5231325220201604,2.5231325220201604 0 1,1 0,-2.5231325220201604A2.5231325220201604,2.5231325220201604 0 1,1 0,2.5231325220201604Z"></path><text class="dot_text" transform="translate(2.2360680103302, -2.2360680103302)" display="none">Dot1</text></g><g class="object_grp" transform="translate(542.3321533203125, 220.23284912109375)"><path class="dot element" style="fill: magenta; stroke: magenta; opacity: 1; stroke-width: 1.5;" d="M0,2.5231325220201604A2.5231325220201604,2.5231325220201604 0 1,1 0,-2.5231325220201604A2.5231325220201604,2.5231325220201604 0 1,1 0,2.5231325220201604Z"></path><text class="dot_text" transform="translate(2.2360680103302, -2.2360680103302)" display="none">Dot2</text></g><g class="object_grp" transform="translate(531.7879638671875, 225.65777587890625)"><path class="dot element" style="fill: magenta; stroke: magenta; opacity: 1; stroke-width: 1.5;" d="M0,2.5231325220201604A2.5231325220201604,2.5231325220201604 0 1,1 0,-2.5231325220201604A2.5231325220201604,2.5231325220201604 0 1,1 0,2.5231325220201604Z"></path><text class="dot_text" transform="translate(2.2360680103302, -2.2360680103302)" display="none">Dot3</text></g><g class="object_grp" transform="translate(522.9676513671875, 229.37387084960938)"><path class="dot element" style="fill: magenta; stroke: magenta; opacity: 1; stroke-width: 1.5;" d="M0,2.5231325220201604A2.5231325220201604,2.5231325220201604 0 1,1 0,-2.5231325220201604A2.5231325220201604,2.5231325220201604 0 1,1 0,2.5231325220201604Z"></path><text class="dot_text" transform="translate(2.2360680103302, -2.2360680103302)" display="none">Dot4</text></g><g class="object_grp" transform="translate(515.9183349609375, 231.70843505859375)"><path class="dot element" style="fill: magenta; stroke: magenta; opacity: 1; stroke-width: 1.5;" d="M0,2.5231325220201604A2.5231325220201604,2.5231325220201604 0 1,1 0,-2.5231325220201604A2.5231325220201604,2.5231325220201604 0 1,1 0,2.5231325220201604Z"></path><text class="dot_text" transform="translate(2.2360680103302, -2.2360680103302)" display="none">Dot5</text></g><g class="object_grp" transform="translate(510.4834899902344, 233.07931518554688)"><path class="dot element" style="fill: magenta; stroke: magenta; opacity: 1; stroke-width: 1.5;" d="M0,2.5231325220201604A2.5231325220201604,2.5231325220201604 0 1,1 0,-2.5231325220201604A2.5231325220201604,2.5231325220201604 0 1,1 0,2.5231325220201604Z"></path><text class="dot_text" transform="translate(2.2360680103302, -2.2360680103302)" display="none">Dot6</text></g><g class="object_grp" transform="translate(506.40362548828125, 233.8452606201172)"><path class="dot element" style="fill: magenta; stroke: magenta; opacity: 1; stroke-width: 1.5;" d="M0,2.5231325220201604A2.5231325220201604,2.5231325220201604 0 1,1 0,-2.5231325220201604A2.5231325220201604,2.5231325220201604 0 1,1 0,2.5231325220201604Z"></path><text class="dot_text" transform="translate(2.2360680103302, -2.2360680103302)" display="none">Dot7</text></g><g class="object_grp" transform="translate(503.3984375, 234.25839233398438)"><path class="dot element" style="fill: magenta; stroke: magenta; opacity: 1; stroke-width: 1.5;" d="M0,2.5231325220201604A2.5231325220201604,2.5231325220201604 0 1,1 0,-2.5231325220201604A2.5231325220201604,2.5231325220201604 0 1,1 0,2.5231325220201604Z"></path><text class="dot_text" transform="translate(2.2360680103302, -2.2360680103302)" display="none">Dot8</text></g><g class="object_grp" transform="translate(501.2137756347656, 234.475830078125)"><path class="dot element" style="fill: magenta; stroke: magenta; opacity: 1; stroke-width: 1.5;" d="M0,2.5231325220201604A2.5231325220201604,2.5231325220201604 0 1,1 0,-2.5231325220201604A2.5231325220201604,2.5231325220201604 0 1,1 0,2.5231325220201604Z"></path><text class="dot_text" transform="translate(2.2360680103302, -2.2360680103302)" display="none">Dot9</text></g><g class="object_grp"><path class="dot element" style="fill: magenta; stroke: magenta; opacity: 1; stroke-width: 1.5;"></path><text class="dot_text">Dot10</text></g></g><g class="g_legend" transform="translate(552 0) "></g></g><g></g><text class="mainheading" x="300" y="-30" dy="1em">Gradient Descent</text></g><defs><clipPath id="clip_path_5e12c63c-1231-4189-9cf0-59f1d0d81f5b"><rect x="0" y="0" width="600" height="380"></rect></clipPath></defs></svg>
