<svg class="svg-figure" version="1.1" xmlns="http://www.w3.org/2000/svg" xmlns:xlink="http://www.w3.org/1999/xlink" width="999.9999389648438" height="800"><defs><style type="text/css"><![CDATA[
:root {
	--bq-axis-rect-stroke:    rgba(255, 255, 255, 0.7);
	--bq-axis-rect-opacity:  1;
	--bq-axis-tick-stroke:     #424242;
	--bq-axis-tick-stroke-width:  1;
	--bq-axis-tick-opacity:  1;
	--bq-axis-tick-text-fill:   rgba(255, 255, 255, 0.7);
	--bq-axis-tick-text-font:   12px sans-serif;
	--bq-axis-path-stroke:    rgba(255, 255, 255, 0.7);
	--bq-axislabel-fill:   orange;
	--bq-axislabel-font:  14px sans-serif;
	--bq-mainheading-fill:   orange;
	--bq-mainheading-font-size:  large;
	--bq-content-scatter-font-color:   rgba(255, 255, 255, 1);
	--bq-plotarea-background-fill:   #111111;
}
*, ::before, ::after { box-sizing: inherit; }
                                    *, ::before, ::after { box-sizing: unset; }
                                    .svg-background { position: absolute; width: 100%; height: 100%; z-index: 0; }
                                    svg { z-index: 0; font: 11px sans-serif; user-select: none; flex-grow: 1; }
                                    svg .axis rect { stroke: var(--bq-axis-rect-stroke); opacity: var(--bq-axis-rect-opacity); }
                                    svg .axis .tick line { stroke: var(--bq-axis-tick-stroke); stroke-width: var(--bq-axis-tick-stroke-width); opacity: var(--bq-axis-tick-opacity); }
                                    svg .axis .tick text { fill: var(--bq-axis-tick-text-fill); font: var(--bq-axis-tick-text-font); }
                                    svg .axis line { shape-rendering: crispedges; font: 10px sans-serif; stroke-width: 1px; }
                                    svg .axis path, svg .axis line { fill: none; }
                                    svg .axis path { stroke: var(--bq-axis-path-stroke); }
                                    svg .axis text.axislabel, svg .axis tspan.axislabel { text-anchor: end; fill: var(--bq-axislabel-fill); font: var(--bq-axislabel-font); }
                                    svg .axis .tick text { cursor: default; }
                                    svg text.mainheading { text-anchor: middle; fill: var(--bq-mainheading-fill); font-style: ; font-variant-ligatures: ; font-variant-caps: ; font-variant-numeric: ; font-variant-east-asian: ; font-weight: ; font-stretch: ; line-height: ; font-family: ; font-size: var(--bq-mainheading-font-size); }
                                    svg text.dot_text { fill: var(--bq-content-scatter-font-color); }
                                    svg .plotarea_background { fill: var(--bq-plotarea-background-fill); }
                                    svg .plotarea_events { opacity: 0; }
                                    .g_legend { fill: none; }
                                    svg { font-size: 10px; }

]]></style></defs><g transform="translate(60,60)"><rect class="plotarea_background" x="0" y="0" width="879.9999389648438" height="680" style="pointer-events: inherit;"></rect><g><g style="display: inline;"><g class="axis" transform="translate(0, 680)" fill="none" font-size="10" font-family="sans-serif" text-anchor="middle"><path class="domain" stroke="currentColor" d="M0.5,6V0.5H880.4999389648438V6"></path><text class="axislabel" x="439.9999694824219" y="2em" dy="0.25ex" dx="0em" transform="" style="text-anchor: middle;">X1</text><g class="tick" opacity="1" transform="translate(19.309565573897704,0)"><line stroke="currentColor" y2="-680"></line><text fill="currentColor" y="3" dy="0.71em" transform="rotate(0)">-8</text></g><g class="tick" opacity="1" transform="translate(113.87833946536324,0)"><line stroke="currentColor" y2="-680"></line><text fill="currentColor" y="3" dy="0.71em" transform="rotate(0)">-6</text></g><g class="tick" opacity="1" transform="translate(208.44711335682882,0)"><line stroke="currentColor" y2="-680"></line><text fill="currentColor" y="3" dy="0.71em" transform="rotate(0)">-4</text></g><g class="tick" opacity="1" transform="translate(303.01588724829435,0)"><line stroke="currentColor" y2="-680"></line><text fill="currentColor" y="3" dy="0.71em" transform="rotate(0)">-2</text></g><g class="tick" opacity="1" transform="translate(397.58466113975993,0)"><line stroke="currentColor" y2="-680"></line><text fill="currentColor" y="3" dy="0.71em" transform="rotate(0)">0</text></g><g class="tick" opacity="1" transform="translate(492.15343503122546,0)"><line stroke="currentColor" y2="-680"></line><text fill="currentColor" y="3" dy="0.71em" transform="rotate(0)">2</text></g><g class="tick" opacity="1" transform="translate(586.722208922691,0)"><line stroke="currentColor" y2="-680"></line><text fill="currentColor" y="3" dy="0.71em" transform="rotate(0)">4</text></g><g class="tick" opacity="1" transform="translate(681.2909828141566,0)"><line stroke="currentColor" y2="-680"></line><text fill="currentColor" y="3" dy="0.71em" transform="rotate(0)">6</text></g><g class="tick" opacity="1" transform="translate(775.8597567056222,0)"><line stroke="currentColor" y2="-680"></line><text fill="currentColor" y="3" dy="0.71em" transform="rotate(0)">8</text></g><g class="tick" opacity="1" transform="translate(870.4285305970877,0)"><line stroke="currentColor" y2="-680"></line><text fill="currentColor" y="3" dy="0.71em" transform="rotate(0)">10</text></g></g></g><g style="display: inline;"><g class="axis" transform="translate(0, 0)" fill="none" font-size="10" font-family="sans-serif" text-anchor="end"><path class="domain" stroke="currentColor" d="M-6,680.5H0.5V0.5H-6"></path><text class="axislabel" transform="rotate(-90)" x="-340" y="-4ex" dy="0em" dx="0em" style="text-anchor: middle;">X2</text><g class="tick" opacity="1" transform="translate(0,624.2107747778687)"><line stroke="currentColor" x2="879.9999389648438"></line><text fill="currentColor" x="-3" dy="0.32em" transform="rotate(0)">-10</text></g><g class="tick" opacity="1" transform="translate(0,554.8149285700404)"><line stroke="currentColor" x2="879.9999389648438"></line><text fill="currentColor" x="-3" dy="0.32em" transform="rotate(0)">-8</text></g><g class="tick" opacity="1" transform="translate(0,485.41908236221184)"><line stroke="currentColor" x2="879.9999389648438"></line><text fill="currentColor" x="-3" dy="0.32em" transform="rotate(0)">-6</text></g><g class="tick" opacity="1" transform="translate(0,416.0232361543834)"><line stroke="currentColor" x2="879.9999389648438"></line><text fill="currentColor" x="-3" dy="0.32em" transform="rotate(0)">-4</text></g><g class="tick" opacity="1" transform="translate(0,346.627389946555)"><line stroke="currentColor" x2="879.9999389648438"></line><text fill="currentColor" x="-3" dy="0.32em" transform="rotate(0)">-2</text></g><g class="tick" opacity="1" transform="translate(0,277.23154373872654)"><line stroke="currentColor" x2="879.9999389648438"></line><text fill="currentColor" x="-3" dy="0.32em" transform="rotate(0)">0</text></g><g class="tick" opacity="1" transform="translate(0,207.83569753089805)"><line stroke="currentColor" x2="879.9999389648438"></line><text fill="currentColor" x="-3" dy="0.32em" transform="rotate(0)">2</text></g><g class="tick" opacity="1" transform="translate(0,138.43985132306963)"><line stroke="currentColor" x2="879.9999389648438"></line><text fill="currentColor" x="-3" dy="0.32em" transform="rotate(0)">4</text></g><g class="tick" opacity="1" transform="translate(0,69.04400511524116)"><line stroke="currentColor" x2="879.9999389648438"></line><text fill="currentColor" x="-3" dy="0.32em" transform="rotate(0)">6</text></g></g></g><g class="ColorBar" display="none" transform="translate(0, 696)"><g transform="translate(95, 10)" class="axis label_g"><text><tspan id="text_elem" dy="0.5ex" class="axislabel" style="text-anchor: end;"></tspan></text></g><g id="colorBarGview407" transform="translate(100, 0)"><g class="axis" fill="none" font-size="10" font-family="sans-serif" text-anchor="middle" transform="translate(0, 20)"><path class="domain" stroke="currentColor" d="M0.5,6V0.5H680.4999389648438V6"></path><g class="tick" opacity="1" transform="translate(118.5, 0)"><line stroke="currentColor" y2="6"></line><text fill="currentColor" y="9" dy="0.71em" transform="rotate(0)">1</text></g><g class="tick" opacity="1" transform="translate(340.5, 0)"><line stroke="currentColor" y2="6"></line><text fill="currentColor" y="9" dy="0.71em" transform="rotate(0)">0</text></g><g class="tick" opacity="1" transform="translate(562.5, 0)"><line stroke="currentColor" y2="6"></line><text fill="currentColor" y="9" dy="0.71em" transform="rotate(0)">2</text></g></g><g class="g-rect axis"><rect y="0" height="20" width="226.6666463216146" x="0" style="fill: rgb(31, 119, 180);"></rect><rect y="0" height="20" width="226.6666463216146" x="226.6666463216146" style="fill: rgb(255, 127, 14);"></rect><rect y="0" height="20" width="226.6666463216146" x="453.3332926432292" style="fill: rgb(44, 160, 44);"></rect></g></g></g></g><rect class="plotarea_events" x="0" y="0" width="879.9999389648438" height="680" style="pointer-events: inherit;"></rect><g><g clip-path="url(#clip_path_2fba14e4-d59f-492a-bb75-27a73a8a8628)" style="display: inline;"><g class="object_grp" transform="translate(719.261474609375, 500.8345947265625)"><path class="dot element" style="fill: rgb(70, 130, 180); stroke: black; opacity: 1; stroke-width: 1.5;" d="M0,4.51351666838205A4.51351666838205,4.51351666838205 0 1,1 0,-4.51351666838205A4.51351666838205,4.51351666838205 0 1,1 0,4.51351666838205Z"></path><text class="dot_text" transform="translate(4, -4)" display="none">Dot0</text></g><g class="object_grp" transform="translate(766.603759765625, 516.772216796875)"><path class="dot element" style="fill: rgb(70, 130, 180); stroke: black; opacity: 1; stroke-width: 1.5;" d="M0,4.51351666838205A4.51351666838205,4.51351666838205 0 1,1 0,-4.51351666838205A4.51351666838205,4.51351666838205 0 1,1 0,4.51351666838205Z"></path><text class="dot_text" transform="translate(4, -4)" display="none">Dot1</text></g><g class="object_grp" transform="translate(321.9103698730469, 80.59427642822266)"><path class="dot element" style="fill: rgb(70, 130, 180); stroke: black; opacity: 1; stroke-width: 1.5;" d="M0,4.51351666838205A4.51351666838205,4.51351666838205 0 1,1 0,-4.51351666838205A4.51351666838205,4.51351666838205 0 1,1 0,4.51351666838205Z"></path><text class="dot_text" transform="translate(4, -4)" display="none">Dot2</text></g><g class="object_grp" transform="translate(723.8223876953125, 489.8894958496094)"><path class="dot element" style="fill: rgb(70, 130, 180); stroke: black; opacity: 1; stroke-width: 1.5;" d="M0,4.51351666838205A4.51351666838205,4.51351666838205 0 1,1 0,-4.51351666838205A4.51351666838205,4.51351666838205 0 1,1 0,4.51351666838205Z"></path><text class="dot_text" transform="translate(4, -4)" display="none">Dot3</text></g><g class="object_grp" transform="translate(772.061279296875, 513.4835205078125)"><path class="dot element" style="fill: rgb(70, 130, 180); stroke: black; opacity: 1; stroke-width: 1.5;" d="M0,4.51351666838205A4.51351666838205,4.51351666838205 0 1,1 0,-4.51351666838205A4.51351666838205,4.51351666838205 0 1,1 0,4.51351666838205Z"></path><text class="dot_text" transform="translate(4, -4)" display="none">Dot4</text></g><g class="object_grp" transform="translate(93.6205825805664, 543.4971923828125)"><path class="dot element" style="fill: rgb(70, 130, 180); stroke: black; opacity: 1; stroke-width: 1.5;" d="M0,4.51351666838205A4.51351666838205,4.51351666838205 0 1,1 0,-4.51351666838205A4.51351666838205,4.51351666838205 0 1,1 0,4.51351666838205Z"></path><text class="dot_text" transform="translate(4, -4)" display="none">Dot5</text></g><g class="object_grp" transform="translate(326.4347839355469, 106.4644546508789)"><path class="dot element" style="fill: rgb(70, 130, 180); stroke: black; opacity: 1; stroke-width: 1.5;" d="M0,4.51351666838205A4.51351666838205,4.51351666838205 0 1,1 0,-4.51351666838205A4.51351666838205,4.51351666838205 0 1,1 0,4.51351666838205Z"></path><text class="dot_text" transform="translate(4, -4)" display="none">Dot6</text></g><g class="object_grp" transform="translate(821.29052734375, 500.3767395019531)"><path class="dot element" style="fill: rgb(70, 130, 180); stroke: black; opacity: 1; stroke-width: 1.5;" d="M0,4.51351666838205A4.51351666838205,4.51351666838205 0 1,1 0,-4.51351666838205A4.51351666838205,4.51351666838205 0 1,1 0,4.51351666838205Z"></path><text class="dot_text" transform="translate(4, -4)" display="none">Dot7</text></g><g class="object_grp" transform="translate(763.0540771484375, 500.62689208984375)"><path class="dot element" style="fill: rgb(70, 130, 180); stroke: black; opacity: 1; stroke-width: 1.5;" d="M0,4.51351666838205A4.51351666838205,4.51351666838205 0 1,1 0,-4.51351666838205A4.51351666838205,4.51351666838205 0 1,1 0,4.51351666838205Z"></path><text class="dot_text" transform="translate(4, -4)" display="none">Dot8</text></g><g class="object_grp" transform="translate(74.54210662841797, 581.3662109375)"><path class="dot element" style="fill: rgb(70, 130, 180); stroke: black; opacity: 1; stroke-width: 1.5;" d="M0,4.51351666838205A4.51351666838205,4.51351666838205 0 1,1 0,-4.51351666838205A4.51351666838205,4.51351666838205 0 1,1 0,4.51351666838205Z"></path><text class="dot_text" transform="translate(4, -4)" display="none">Dot9</text></g><g class="object_grp" transform="translate(92.7820053100586, 586.4346923828125)"><path class="dot element" style="fill: rgb(70, 130, 180); stroke: black; opacity: 1; stroke-width: 1.5;" d="M0,4.51351666838205A4.51351666838205,4.51351666838205 0 1,1 0,-4.51351666838205A4.51351666838205,4.51351666838205 0 1,1 0,4.51351666838205Z"></path><text class="dot_text" transform="translate(4, -4)" display="none">Dot10</text></g><g class="object_grp" transform="translate(127.43170166015625, 605.55322265625)"><path class="dot element" style="fill: rgb(70, 130, 180); stroke: black; opacity: 1; stroke-width: 1.5;" d="M0,4.51351666838205A4.51351666838205,4.51351666838205 0 1,1 0,-4.51351666838205A4.51351666838205,4.51351666838205 0 1,1 0,4.51351666838205Z"></path><text class="dot_text" transform="translate(4, -4)" display="none">Dot11</text></g><g class="object_grp" transform="translate(74.06661224365234, 564.1008911132812)"><path class="dot element" style="fill: rgb(70, 130, 180); stroke: black; opacity: 1; stroke-width: 1.5;" d="M0,4.51351666838205A4.51351666838205,4.51351666838205 0 1,1 0,-4.51351666838205A4.51351666838205,4.51351666838205 0 1,1 0,4.51351666838205Z"></path><text class="dot_text" transform="translate(4, -4)" display="none">Dot12</text></g><g class="object_grp" transform="translate(315.76556396484375, 60.371646881103516)"><path class="dot element" style="fill: rgb(70, 130, 180); stroke: black; opacity: 1; stroke-width: 1.5;" d="M0,4.51351666838205A4.51351666838205,4.51351666838205 0 1,1 0,-4.51351666838205A4.51351666838205,4.51351666838205 0 1,1 0,4.51351666838205Z"></path><text class="dot_text" transform="translate(4, -4)" display="none">Dot13</text></g><g class="object_grp" transform="translate(278.2903747558594, 72.91886138916016)"><path class="dot element" style="fill: rgb(70, 130, 180); stroke: black; opacity: 1; stroke-width: 1.5;" d="M0,4.51351666838205A4.51351666838205,4.51351666838205 0 1,1 0,-4.51351666838205A4.51351666838205,4.51351666838205 0 1,1 0,4.51351666838205Z"></path><text class="dot_text" transform="translate(4, -4)" display="none">Dot14</text></g><g class="object_grp" transform="translate(321.81884765625, 56.93363952636719)"><path class="dot element" style="fill: rgb(70, 130, 180); stroke: black; opacity: 1; stroke-width: 1.5;" d="M0,4.51351666838205A4.51351666838205,4.51351666838205 0 1,1 0,-4.51351666838205A4.51351666838205,4.51351666838205 0 1,1 0,4.51351666838205Z"></path><text class="dot_text" transform="translate(4, -4)" display="none">Dot15</text></g><g class="object_grp" transform="translate(148.1605682373047, 592.9070434570312)"><path class="dot element" style="fill: rgb(70, 130, 180); stroke: black; opacity: 1; stroke-width: 1.5;" d="M0,4.51351666838205A4.51351666838205,4.51351666838205 0 1,1 0,-4.51351666838205A4.51351666838205,4.51351666838205 0 1,1 0,4.51351666838205Z"></path><text class="dot_text" transform="translate(4, -4)" display="none">Dot16</text></g><g class="object_grp" transform="translate(263.6014709472656, 80.45030975341797)"><path class="dot element" style="fill: rgb(70, 130, 180); stroke: black; opacity: 1; stroke-width: 1.5;" d="M0,4.51351666838205A4.51351666838205,4.51351666838205 0 1,1 0,-4.51351666838205A4.51351666838205,4.51351666838205 0 1,1 0,4.51351666838205Z"></path><text class="dot_text" transform="translate(4, -4)" display="none">Dot17</text></g><g class="object_grp" transform="translate(311.9461669921875, 77.4817123413086)"><path class="dot element" style="fill: rgb(70, 130, 180); stroke: black; opacity: 1; stroke-width: 1.5;" d="M0,4.51351666838205A4.51351666838205,4.51351666838205 0 1,1 0,-4.51351666838205A4.51351666838205,4.51351666838205 0 1,1 0,4.51351666838205Z"></path><text class="dot_text" transform="translate(4, -4)" display="none">Dot18</text></g><g class="object_grp" transform="translate(58.47941970825195, 579.58251953125)"><path class="dot element" style="fill: rgb(70, 130, 180); stroke: black; opacity: 1; stroke-width: 1.5;" d="M0,4.51351666838205A4.51351666838205,4.51351666838205 0 1,1 0,-4.51351666838205A4.51351666838205,4.51351666838205 0 1,1 0,4.51351666838205Z"></path><text class="dot_text" transform="translate(4, -4)" display="none">Dot19</text></g><g class="object_grp" transform="translate(309.5446472167969, 99.1376724243164)"><path class="dot element" style="fill: rgb(70, 130, 180); stroke: black; opacity: 1; stroke-width: 1.5;" d="M0,4.51351666838205A4.51351666838205,4.51351666838205 0 1,1 0,-4.51351666838205A4.51351666838205,4.51351666838205 0 1,1 0,4.51351666838205Z"></path><text class="dot_text" transform="translate(4, -4)" display="none">Dot20</text></g><g class="object_grp" transform="translate(292.3307189941406, 95.9015884399414)"><path class="dot element" style="fill: rgb(70, 130, 180); stroke: black; opacity: 1; stroke-width: 1.5;" d="M0,4.51351666838205A4.51351666838205,4.51351666838205 0 1,1 0,-4.51351666838205A4.51351666838205,4.51351666838205 0 1,1 0,4.51351666838205Z"></path><text class="dot_text" transform="translate(4, -4)" display="none">Dot21</text></g><g class="object_grp" transform="translate(313.7997131347656, 94.36699676513672)"><path class="dot element" style="fill: rgb(70, 130, 180); stroke: black; opacity: 1; stroke-width: 1.5;" d="M0,4.51351666838205A4.51351666838205,4.51351666838205 0 1,1 0,-4.51351666838205A4.51351666838205,4.51351666838205 0 1,1 0,4.51351666838205Z"></path><text class="dot_text" transform="translate(4, -4)" display="none">Dot22</text></g><g class="object_grp" transform="translate(30.275815963745117, 598.5919799804688)"><path class="dot element" style="fill: rgb(70, 130, 180); stroke: black; opacity: 1; stroke-width: 1.5;" d="M0,4.51351666838205A4.51351666838205,4.51351666838205 0 1,1 0,-4.51351666838205A4.51351666838205,4.51351666838205 0 1,1 0,4.51351666838205Z"></path><text class="dot_text" transform="translate(4, -4)" display="none">Dot23</text></g><g class="object_grp" transform="translate(158.76434326171875, 596.1882934570312)"><path class="dot element" style="fill: rgb(70, 130, 180); stroke: black; opacity: 1; stroke-width: 1.5;" d="M0,4.51351666838205A4.51351666838205,4.51351666838205 0 1,1 0,-4.51351666838205A4.51351666838205,4.51351666838205 0 1,1 0,4.51351666838205Z"></path><text class="dot_text" transform="translate(4, -4)" display="none">Dot24</text></g><g class="object_grp" transform="translate(771.0740966796875, 519.4430541992188)"><path class="dot element" style="fill: rgb(70, 130, 180); stroke: black; opacity: 1; stroke-width: 1.5;" d="M0,4.51351666838205A4.51351666838205,4.51351666838205 0 1,1 0,-4.51351666838205A4.51351666838205,4.51351666838205 0 1,1 0,4.51351666838205Z"></path><text class="dot_text" transform="translate(4, -4)" display="none">Dot25</text></g><g class="object_grp" transform="translate(364.2752685546875, 42.71866989135742)"><path class="dot element" style="fill: rgb(70, 130, 180); stroke: black; opacity: 1; stroke-width: 1.5;" d="M0,4.51351666838205A4.51351666838205,4.51351666838205 0 1,1 0,-4.51351666838205A4.51351666838205,4.51351666838205 0 1,1 0,4.51351666838205Z"></path><text class="dot_text" transform="translate(4, -4)" display="none">Dot26</text></g><g class="object_grp" transform="translate(280.9502868652344, 44.03044891357422)"><path class="dot element" style="fill: rgb(70, 130, 180); stroke: black; opacity: 1; stroke-width: 1.5;" d="M0,4.51351666838205A4.51351666838205,4.51351666838205 0 1,1 0,-4.51351666838205A4.51351666838205,4.51351666838205 0 1,1 0,4.51351666838205Z"></path><text class="dot_text" transform="translate(4, -4)" display="none">Dot27</text></g><g class="object_grp" transform="translate(76.14087677001953, 619.9638671875)"><path class="dot element" style="fill: rgb(70, 130, 180); stroke: black; opacity: 1; stroke-width: 1.5;" d="M0,4.51351666838205A4.51351666838205,4.51351666838205 0 1,1 0,-4.51351666838205A4.51351666838205,4.51351666838205 0 1,1 0,4.51351666838205Z"></path><text class="dot_text" transform="translate(4, -4)" display="none">Dot28</text></g><g class="object_grp" transform="translate(277.69769287109375, 76.88783264160156)"><path class="dot element" style="fill: rgb(70, 130, 180); stroke: black; opacity: 1; stroke-width: 1.5;" d="M0,4.51351666838205A4.51351666838205,4.51351666838205 0 1,1 0,-4.51351666838205A4.51351666838205,4.51351666838205 0 1,1 0,4.51351666838205Z"></path><text class="dot_text" transform="translate(4, -4)" display="none">Dot29</text></g><g class="object_grp" transform="translate(60.290218353271484, 608.4901733398438)"><path class="dot element" style="fill: rgb(70, 130, 180); stroke: black; opacity: 1; stroke-width: 1.5;" d="M0,4.51351666838205A4.51351666838205,4.51351666838205 0 1,1 0,-4.51351666838205A4.51351666838205,4.51351666838205 0 1,1 0,4.51351666838205Z"></path><text class="dot_text" transform="translate(4, -4)" display="none">Dot30</text></g><g class="object_grp" transform="translate(81.89069366455078, 564.52734375)"><path class="dot element" style="fill: rgb(70, 130, 180); stroke: black; opacity: 1; stroke-width: 1.5;" d="M0,4.51351666838205A4.51351666838205,4.51351666838205 0 1,1 0,-4.51351666838205A4.51351666838205,4.51351666838205 0 1,1 0,4.51351666838205Z"></path><text class="dot_text" transform="translate(4, -4)" display="none">Dot31</text></g><g class="object_grp" transform="translate(289.22576904296875, 42.044593811035156)"><path class="dot element" style="fill: rgb(70, 130, 180); stroke: black; opacity: 1; stroke-width: 1.5;" d="M0,4.51351666838205A4.51351666838205,4.51351666838205 0 1,1 0,-4.51351666838205A4.51351666838205,4.51351666838205 0 1,1 0,4.51351666838205Z"></path><text class="dot_text" transform="translate(4, -4)" display="none">Dot32</text></g><g class="object_grp" transform="translate(135.69679260253906, 605.3084716796875)"><path class="dot element" style="fill: rgb(70, 130, 180); stroke: black; opacity: 1; stroke-width: 1.5;" d="M0,4.51351666838205A4.51351666838205,4.51351666838205 0 1,1 0,-4.51351666838205A4.51351666838205,4.51351666838205 0 1,1 0,4.51351666838205Z"></path><text class="dot_text" transform="translate(4, -4)" display="none">Dot33</text></g><g class="object_grp" transform="translate(254.83499145507812, 123.78330993652344)"><path class="dot element" style="fill: rgb(70, 130, 180); stroke: black; opacity: 1; stroke-width: 1.5;" d="M0,4.51351666838205A4.51351666838205,4.51351666838205 0 1,1 0,-4.51351666838205A4.51351666838205,4.51351666838205 0 1,1 0,4.51351666838205Z"></path><text class="dot_text" transform="translate(4, -4)" display="none">Dot34</text></g><g class="object_grp" transform="translate(776.9750366210938, 568.5538330078125)"><path class="dot element" style="fill: rgb(70, 130, 180); stroke: black; opacity: 1; stroke-width: 1.5;" d="M0,4.51351666838205A4.51351666838205,4.51351666838205 0 1,1 0,-4.51351666838205A4.51351666838205,4.51351666838205 0 1,1 0,4.51351666838205Z"></path><text class="dot_text" transform="translate(4, -4)" display="none">Dot35</text></g><g class="object_grp" transform="translate(272.0987548828125, 88.0188980102539)"><path class="dot element" style="fill: rgb(70, 130, 180); stroke: black; opacity: 1; stroke-width: 1.5;" d="M0,4.51351666838205A4.51351666838205,4.51351666838205 0 1,1 0,-4.51351666838205A4.51351666838205,4.51351666838205 0 1,1 0,4.51351666838205Z"></path><text class="dot_text" transform="translate(4, -4)" display="none">Dot36</text></g><g class="object_grp" transform="translate(841.5177001953125, 502.5797424316406)"><path class="dot element" style="fill: rgb(70, 130, 180); stroke: black; opacity: 1; stroke-width: 1.5;" d="M0,4.51351666838205A4.51351666838205,4.51351666838205 0 1,1 0,-4.51351666838205A4.51351666838205,4.51351666838205 0 1,1 0,4.51351666838205Z"></path><text class="dot_text" transform="translate(4, -4)" display="none">Dot37</text></g><g class="object_grp" transform="translate(90.0761947631836, 591.2705078125)"><path class="dot element" style="fill: rgb(70, 130, 180); stroke: black; opacity: 1; stroke-width: 1.5;" d="M0,4.51351666838205A4.51351666838205,4.51351666838205 0 1,1 0,-4.51351666838205A4.51351666838205,4.51351666838205 0 1,1 0,4.51351666838205Z"></path><text class="dot_text" transform="translate(4, -4)" display="none">Dot38</text></g><g class="object_grp" transform="translate(282.0648498535156, 95.24616241455078)"><path class="dot element" style="fill: rgb(70, 130, 180); stroke: black; opacity: 1; stroke-width: 1.5;" d="M0,4.51351666838205A4.51351666838205,4.51351666838205 0 1,1 0,-4.51351666838205A4.51351666838205,4.51351666838205 0 1,1 0,4.51351666838205Z"></path><text class="dot_text" transform="translate(4, -4)" display="none">Dot39</text></g><g class="object_grp" transform="translate(706.4503173828125, 502.82794189453125)"><path class="dot element" style="fill: rgb(70, 130, 180); stroke: black; opacity: 1; stroke-width: 1.5;" d="M0,4.51351666838205A4.51351666838205,4.51351666838205 0 1,1 0,-4.51351666838205A4.51351666838205,4.51351666838205 0 1,1 0,4.51351666838205Z"></path><text class="dot_text" transform="translate(4, -4)" display="none">Dot40</text></g><g class="object_grp" transform="translate(328.3348388671875, 56.06266403198242)"><path class="dot element" style="fill: rgb(70, 130, 180); stroke: black; opacity: 1; stroke-width: 1.5;" d="M0,4.51351666838205A4.51351666838205,4.51351666838205 0 1,1 0,-4.51351666838205A4.51351666838205,4.51351666838205 0 1,1 0,4.51351666838205Z"></path><text class="dot_text" transform="translate(4, -4)" display="none">Dot41</text></g><g class="object_grp" transform="translate(138.2117462158203, 580.4398193359375)"><path class="dot element" style="fill: rgb(70, 130, 180); stroke: black; opacity: 1; stroke-width: 1.5;" d="M0,4.51351666838205A4.51351666838205,4.51351666838205 0 1,1 0,-4.51351666838205A4.51351666838205,4.51351666838205 0 1,1 0,4.51351666838205Z"></path><text class="dot_text" transform="translate(4, -4)" display="none">Dot42</text></g><g class="object_grp" transform="translate(134.93328857421875, 620.1112060546875)"><path class="dot element" style="fill: rgb(70, 130, 180); stroke: black; opacity: 1; stroke-width: 1.5;" d="M0,4.51351666838205A4.51351666838205,4.51351666838205 0 1,1 0,-4.51351666838205A4.51351666838205,4.51351666838205 0 1,1 0,4.51351666838205Z"></path><text class="dot_text" transform="translate(4, -4)" display="none">Dot43</text></g><g class="object_grp" transform="translate(298.5743408203125, 107.24923706054688)"><path class="dot element" style="fill: rgb(70, 130, 180); stroke: black; opacity: 1; stroke-width: 1.5;" d="M0,4.51351666838205A4.51351666838205,4.51351666838205 0 1,1 0,-4.51351666838205A4.51351666838205,4.51351666838205 0 1,1 0,4.51351666838205Z"></path><text class="dot_text" transform="translate(4, -4)" display="none">Dot44</text></g><g class="object_grp" transform="translate(64.4942626953125, 614.53271484375)"><path class="dot element" style="fill: rgb(70, 130, 180); stroke: black; opacity: 1; stroke-width: 1.5;" d="M0,4.51351666838205A4.51351666838205,4.51351666838205 0 1,1 0,-4.51351666838205A4.51351666838205,4.51351666838205 0 1,1 0,4.51351666838205Z"></path><text class="dot_text" transform="translate(4, -4)" display="none">Dot45</text></g><g class="object_grp" transform="translate(333.888916015625, 119.98954010009766)"><path class="dot element" style="fill: rgb(70, 130, 180); stroke: black; opacity: 1; stroke-width: 1.5;" d="M0,4.51351666838205A4.51351666838205,4.51351666838205 0 1,1 0,-4.51351666838205A4.51351666838205,4.51351666838205 0 1,1 0,4.51351666838205Z"></path><text class="dot_text" transform="translate(4, -4)" display="none">Dot46</text></g><g class="object_grp" transform="translate(324.4853210449219, 98.49327087402344)"><path class="dot element" style="fill: rgb(70, 130, 180); stroke: black; opacity: 1; stroke-width: 1.5;" d="M0,4.51351666838205A4.51351666838205,4.51351666838205 0 1,1 0,-4.51351666838205A4.51351666838205,4.51351666838205 0 1,1 0,4.51351666838205Z"></path><text class="dot_text" transform="translate(4, -4)" display="none">Dot47</text></g><g class="object_grp" transform="translate(729.07177734375, 522.8703002929688)"><path class="dot element" style="fill: rgb(70, 130, 180); stroke: black; opacity: 1; stroke-width: 1.5;" d="M0,4.51351666838205A4.51351666838205,4.51351666838205 0 1,1 0,-4.51351666838205A4.51351666838205,4.51351666838205 0 1,1 0,4.51351666838205Z"></path><text class="dot_text" transform="translate(4, -4)" display="none">Dot48</text></g><g class="object_grp" transform="translate(700.8276977539062, 555.0455932617188)"><path class="dot element" style="fill: rgb(70, 130, 180); stroke: black; opacity: 1; stroke-width: 1.5;" d="M0,4.51351666838205A4.51351666838205,4.51351666838205 0 1,1 0,-4.51351666838205A4.51351666838205,4.51351666838205 0 1,1 0,4.51351666838205Z"></path><text class="dot_text" transform="translate(4, -4)" display="none">Dot49</text></g><g class="object_grp" transform="translate(762.1504516601562, 570.135009765625)"><path class="dot element" style="fill: rgb(70, 130, 180); stroke: black; opacity: 1; stroke-width: 1.5;" d="M0,4.51351666838205A4.51351666838205,4.51351666838205 0 1,1 0,-4.51351666838205A4.51351666838205,4.51351666838205 0 1,1 0,4.51351666838205Z"></path><text class="dot_text" transform="translate(4, -4)" display="none">Dot50</text></g><g class="object_grp" transform="translate(11, 549.0870971679688)"><path class="dot element" style="fill: rgb(70, 130, 180); stroke: black; opacity: 1; stroke-width: 1.5;" d="M0,4.51351666838205A4.51351666838205,4.51351666838205 0 1,1 0,-4.51351666838205A4.51351666838205,4.51351666838205 0 1,1 0,4.51351666838205Z"></path><text class="dot_text" transform="translate(4, -4)" display="none">Dot51</text></g><g class="object_grp" transform="translate(338.54400634765625, 106.62940216064453)"><path class="dot element" style="fill: rgb(70, 130, 180); stroke: black; opacity: 1; stroke-width: 1.5;" d="M0,4.51351666838205A4.51351666838205,4.51351666838205 0 1,1 0,-4.51351666838205A4.51351666838205,4.51351666838205 0 1,1 0,4.51351666838205Z"></path><text class="dot_text" transform="translate(4, -4)" display="none">Dot52</text></g><g class="object_grp" transform="translate(119.29728698730469, 636.9633178710938)"><path class="dot element" style="fill: rgb(70, 130, 180); stroke: black; opacity: 1; stroke-width: 1.5;" d="M0,4.51351666838205A4.51351666838205,4.51351666838205 0 1,1 0,-4.51351666838205A4.51351666838205,4.51351666838205 0 1,1 0,4.51351666838205Z"></path><text class="dot_text" transform="translate(4, -4)" display="none">Dot53</text></g><g class="object_grp" transform="translate(788.5927124023438, 493.239501953125)"><path class="dot element" style="fill: rgb(70, 130, 180); stroke: black; opacity: 1; stroke-width: 1.5;" d="M0,4.51351666838205A4.51351666838205,4.51351666838205 0 1,1 0,-4.51351666838205A4.51351666838205,4.51351666838205 0 1,1 0,4.51351666838205Z"></path><text class="dot_text" transform="translate(4, -4)" display="none">Dot54</text></g><g class="object_grp" transform="translate(680.291015625, 540.9815063476562)"><path class="dot element" style="fill: rgb(70, 130, 180); stroke: black; opacity: 1; stroke-width: 1.5;" d="M0,4.51351666838205A4.51351666838205,4.51351666838205 0 1,1 0,-4.51351666838205A4.51351666838205,4.51351666838205 0 1,1 0,4.51351666838205Z"></path><text class="dot_text" transform="translate(4, -4)" display="none">Dot55</text></g><g class="object_grp" transform="translate(65.04682922363281, 587.3746948242188)"><path class="dot element" style="fill: rgb(70, 130, 180); stroke: black; opacity: 1; stroke-width: 1.5;" d="M0,4.51351666838205A4.51351666838205,4.51351666838205 0 1,1 0,-4.51351666838205A4.51351666838205,4.51351666838205 0 1,1 0,4.51351666838205Z"></path><text class="dot_text" transform="translate(4, -4)" display="none">Dot56</text></g><g class="object_grp" transform="translate(292.38690185546875, 118.34215545654297)"><path class="dot element" style="fill: rgb(70, 130, 180); stroke: black; opacity: 1; stroke-width: 1.5;" d="M0,4.51351666838205A4.51351666838205,4.51351666838205 0 1,1 0,-4.51351666838205A4.51351666838205,4.51351666838205 0 1,1 0,4.51351666838205Z"></path><text class="dot_text" transform="translate(4, -4)" display="none">Dot57</text></g><g class="object_grp" transform="translate(724.593017578125, 488.58343505859375)"><path class="dot element" style="fill: rgb(70, 130, 180); stroke: black; opacity: 1; stroke-width: 1.5;" d="M0,4.51351666838205A4.51351666838205,4.51351666838205 0 1,1 0,-4.51351666838205A4.51351666838205,4.51351666838205 0 1,1 0,4.51351666838205Z"></path><text class="dot_text" transform="translate(4, -4)" display="none">Dot58</text></g><g class="object_grp" transform="translate(805.9618530273438, 525.0060424804688)"><path class="dot element" style="fill: rgb(70, 130, 180); stroke: black; opacity: 1; stroke-width: 1.5;" d="M0,4.51351666838205A4.51351666838205,4.51351666838205 0 1,1 0,-4.51351666838205A4.51351666838205,4.51351666838205 0 1,1 0,4.51351666838205Z"></path><text class="dot_text" transform="translate(4, -4)" display="none">Dot59</text></g><g class="object_grp" transform="translate(749.8233642578125, 546.1453247070312)"><path class="dot element" style="fill: rgb(70, 130, 180); stroke: black; opacity: 1; stroke-width: 1.5;" d="M0,4.51351666838205A4.51351666838205,4.51351666838205 0 1,1 0,-4.51351666838205A4.51351666838205,4.51351666838205 0 1,1 0,4.51351666838205Z"></path><text class="dot_text" transform="translate(4, -4)" display="none">Dot60</text></g><g class="object_grp" transform="translate(746.8204956054688, 480.0303039550781)"><path class="dot element" style="fill: rgb(70, 130, 180); stroke: black; opacity: 1; stroke-width: 1.5;" d="M0,4.51351666838205A4.51351666838205,4.51351666838205 0 1,1 0,-4.51351666838205A4.51351666838205,4.51351666838205 0 1,1 0,4.51351666838205Z"></path><text class="dot_text" transform="translate(4, -4)" display="none">Dot61</text></g><g class="object_grp" transform="translate(92.16975402832031, 611.3482666015625)"><path class="dot element" style="fill: rgb(70, 130, 180); stroke: black; opacity: 1; stroke-width: 1.5;" d="M0,4.51351666838205A4.51351666838205,4.51351666838205 0 1,1 0,-4.51351666838205A4.51351666838205,4.51351666838205 0 1,1 0,4.51351666838205Z"></path><text class="dot_text" transform="translate(4, -4)" display="none">Dot62</text></g><g class="object_grp" transform="translate(381.1409606933594, 45.62639617919922)"><path class="dot element" style="fill: rgb(70, 130, 180); stroke: black; opacity: 1; stroke-width: 1.5;" d="M0,4.51351666838205A4.51351666838205,4.51351666838205 0 1,1 0,-4.51351666838205A4.51351666838205,4.51351666838205 0 1,1 0,4.51351666838205Z"></path><text class="dot_text" transform="translate(4, -4)" display="none">Dot63</text></g><g class="object_grp" transform="translate(357.9878234863281, 65.02326202392578)"><path class="dot element" style="fill: rgb(70, 130, 180); stroke: black; opacity: 1; stroke-width: 1.5;" d="M0,4.51351666838205A4.51351666838205,4.51351666838205 0 1,1 0,-4.51351666838205A4.51351666838205,4.51351666838205 0 1,1 0,4.51351666838205Z"></path><text class="dot_text" transform="translate(4, -4)" display="none">Dot64</text></g><g class="object_grp" transform="translate(345.7406005859375, 77.86489868164062)"><path class="dot element" style="fill: rgb(70, 130, 180); stroke: black; opacity: 1; stroke-width: 1.5;" d="M0,4.51351666838205A4.51351666838205,4.51351666838205 0 1,1 0,-4.51351666838205A4.51351666838205,4.51351666838205 0 1,1 0,4.51351666838205Z"></path><text class="dot_text" transform="translate(4, -4)" display="none">Dot65</text></g><g class="object_grp" transform="translate(747.0580444335938, 493.7784729003906)"><path class="dot element" style="fill: rgb(70, 130, 180); stroke: black; opacity: 1; stroke-width: 1.5;" d="M0,4.51351666838205A4.51351666838205,4.51351666838205 0 1,1 0,-4.51351666838205A4.51351666838205,4.51351666838205 0 1,1 0,4.51351666838205Z"></path><text class="dot_text" transform="translate(4, -4)" display="none">Dot66</text></g><g class="object_grp" transform="translate(731.5551147460938, 515.537109375)"><path class="dot element" style="fill: rgb(70, 130, 180); stroke: black; opacity: 1; stroke-width: 1.5;" d="M0,4.51351666838205A4.51351666838205,4.51351666838205 0 1,1 0,-4.51351666838205A4.51351666838205,4.51351666838205 0 1,1 0,4.51351666838205Z"></path><text class="dot_text" transform="translate(4, -4)" display="none">Dot67</text></g><g class="object_grp" transform="translate(302.69659423828125, 61.726715087890625)"><path class="dot element" style="fill: rgb(70, 130, 180); stroke: black; opacity: 1; stroke-width: 1.5;" d="M0,4.51351666838205A4.51351666838205,4.51351666838205 0 1,1 0,-4.51351666838205A4.51351666838205,4.51351666838205 0 1,1 0,4.51351666838205Z"></path><text class="dot_text" transform="translate(4, -4)" display="none">Dot68</text></g><g class="object_grp" transform="translate(151.34185791015625, 566.06201171875)"><path class="dot element" style="fill: rgb(70, 130, 180); stroke: black; opacity: 1; stroke-width: 1.5;" d="M0,4.51351666838205A4.51351666838205,4.51351666838205 0 1,1 0,-4.51351666838205A4.51351666838205,4.51351666838205 0 1,1 0,4.51351666838205Z"></path><text class="dot_text" transform="translate(4, -4)" display="none">Dot69</text></g><g class="object_grp" transform="translate(722.188232421875, 562.2037353515625)"><path class="dot element" style="fill: rgb(70, 130, 180); stroke: black; opacity: 1; stroke-width: 1.5;" d="M0,4.51351666838205A4.51351666838205,4.51351666838205 0 1,1 0,-4.51351666838205A4.51351666838205,4.51351666838205 0 1,1 0,4.51351666838205Z"></path><text class="dot_text" transform="translate(4, -4)" display="none">Dot70</text></g><g class="object_grp" transform="translate(316.0233154296875, 63.472713470458984)"><path class="dot element" style="fill: rgb(70, 130, 180); stroke: black; opacity: 1; stroke-width: 1.5;" d="M0,4.51351666838205A4.51351666838205,4.51351666838205 0 1,1 0,-4.51351666838205A4.51351666838205,4.51351666838205 0 1,1 0,4.51351666838205Z"></path><text class="dot_text" transform="translate(4, -4)" display="none">Dot71</text></g><g class="object_grp" transform="translate(140.3879852294922, 642.6974487304688)"><path class="dot element" style="fill: rgb(70, 130, 180); stroke: black; opacity: 1; stroke-width: 1.5;" d="M0,4.51351666838205A4.51351666838205,4.51351666838205 0 1,1 0,-4.51351666838205A4.51351666838205,4.51351666838205 0 1,1 0,4.51351666838205Z"></path><text class="dot_text" transform="translate(4, -4)" display="none">Dot72</text></g><g class="object_grp" transform="translate(757.7774658203125, 527.4775390625)"><path class="dot element" style="fill: rgb(70, 130, 180); stroke: black; opacity: 1; stroke-width: 1.5;" d="M0,4.51351666838205A4.51351666838205,4.51351666838205 0 1,1 0,-4.51351666838205A4.51351666838205,4.51351666838205 0 1,1 0,4.51351666838205Z"></path><text class="dot_text" transform="translate(4, -4)" display="none">Dot73</text></g><g class="object_grp" transform="translate(770.2778930664062, 538.5804443359375)"><path class="dot element" style="fill: rgb(70, 130, 180); stroke: black; opacity: 1; stroke-width: 1.5;" d="M0,4.51351666838205A4.51351666838205,4.51351666838205 0 1,1 0,-4.51351666838205A4.51351666838205,4.51351666838205 0 1,1 0,4.51351666838205Z"></path><text class="dot_text" transform="translate(4, -4)" display="none">Dot74</text></g><g class="object_grp" transform="translate(48.83433532714844, 607.596435546875)"><path class="dot element" style="fill: rgb(70, 130, 180); stroke: black; opacity: 1; stroke-width: 1.5;" d="M0,4.51351666838205A4.51351666838205,4.51351666838205 0 1,1 0,-4.51351666838205A4.51351666838205,4.51351666838205 0 1,1 0,4.51351666838205Z"></path><text class="dot_text" transform="translate(4, -4)" display="none">Dot75</text></g><g class="object_grp" transform="translate(770.1410522460938, 566.6104125976562)"><path class="dot element" style="fill: rgb(70, 130, 180); stroke: black; opacity: 1; stroke-width: 1.5;" d="M0,4.51351666838205A4.51351666838205,4.51351666838205 0 1,1 0,-4.51351666838205A4.51351666838205,4.51351666838205 0 1,1 0,4.51351666838205Z"></path><text class="dot_text" transform="translate(4, -4)" display="none">Dot76</text></g><g class="object_grp" transform="translate(736.8014526367188, 551.7280883789062)"><path class="dot element" style="fill: rgb(70, 130, 180); stroke: black; opacity: 1; stroke-width: 1.5;" d="M0,4.51351666838205A4.51351666838205,4.51351666838205 0 1,1 0,-4.51351666838205A4.51351666838205,4.51351666838205 0 1,1 0,4.51351666838205Z"></path><text class="dot_text" transform="translate(4, -4)" display="none">Dot77</text></g><g class="object_grp" transform="translate(136.62355041503906, 569.3307495117188)"><path class="dot element" style="fill: rgb(70, 130, 180); stroke: black; opacity: 1; stroke-width: 1.5;" d="M0,4.51351666838205A4.51351666838205,4.51351666838205 0 1,1 0,-4.51351666838205A4.51351666838205,4.51351666838205 0 1,1 0,4.51351666838205Z"></path><text class="dot_text" transform="translate(4, -4)" display="none">Dot78</text></g><g class="object_grp" transform="translate(790.91455078125, 512.4111328125)"><path class="dot element" style="fill: rgb(70, 130, 180); stroke: black; opacity: 1; stroke-width: 1.5;" d="M0,4.51351666838205A4.51351666838205,4.51351666838205 0 1,1 0,-4.51351666838205A4.51351666838205,4.51351666838205 0 1,1 0,4.51351666838205Z"></path><text class="dot_text" transform="translate(4, -4)" display="none">Dot79</text></g><g class="object_grp" transform="translate(224.1392822265625, 106.59392547607422)"><path class="dot element" style="fill: rgb(70, 130, 180); stroke: black; opacity: 1; stroke-width: 1.5;" d="M0,4.51351666838205A4.51351666838205,4.51351666838205 0 1,1 0,-4.51351666838205A4.51351666838205,4.51351666838205 0 1,1 0,4.51351666838205Z"></path><text class="dot_text" transform="translate(4, -4)" display="none">Dot80</text></g><g class="object_grp" transform="translate(797.62353515625, 515.2456665039062)"><path class="dot element" style="fill: rgb(70, 130, 180); stroke: black; opacity: 1; stroke-width: 1.5;" d="M0,4.51351666838205A4.51351666838205,4.51351666838205 0 1,1 0,-4.51351666838205A4.51351666838205,4.51351666838205 0 1,1 0,4.51351666838205Z"></path><text class="dot_text" transform="translate(4, -4)" display="none">Dot81</text></g><g class="object_grp" transform="translate(80.42792510986328, 583.3566284179688)"><path class="dot element" style="fill: rgb(70, 130, 180); stroke: black; opacity: 1; stroke-width: 1.5;" d="M0,4.51351666838205A4.51351666838205,4.51351666838205 0 1,1 0,-4.51351666838205A4.51351666838205,4.51351666838205 0 1,1 0,4.51351666838205Z"></path><text class="dot_text" transform="translate(4, -4)" display="none">Dot82</text></g><g class="object_grp" transform="translate(683.1171875, 526.0611572265625)"><path class="dot element" style="fill: rgb(70, 130, 180); stroke: black; opacity: 1; stroke-width: 1.5;" d="M0,4.51351666838205A4.51351666838205,4.51351666838205 0 1,1 0,-4.51351666838205A4.51351666838205,4.51351666838205 0 1,1 0,4.51351666838205Z"></path><text class="dot_text" transform="translate(4, -4)" display="none">Dot83</text></g><g class="object_grp" transform="translate(757.1807250976562, 532.5103759765625)"><path class="dot element" style="fill: rgb(70, 130, 180); stroke: black; opacity: 1; stroke-width: 1.5;" d="M0,4.51351666838205A4.51351666838205,4.51351666838205 0 1,1 0,-4.51351666838205A4.51351666838205,4.51351666838205 0 1,1 0,4.51351666838205Z"></path><text class="dot_text" transform="translate(4, -4)" display="none">Dot84</text></g><g class="object_grp" transform="translate(331.121337890625, 104.28776550292969)"><path class="dot element" style="fill: rgb(70, 130, 180); stroke: black; opacity: 1; stroke-width: 1.5;" d="M0,4.51351666838205A4.51351666838205,4.51351666838205 0 1,1 0,-4.51351666838205A4.51351666838205,4.51351666838205 0 1,1 0,4.51351666838205Z"></path><text class="dot_text" transform="translate(4, -4)" display="none">Dot85</text></g><g class="object_grp" transform="translate(88.46391296386719, 601.9201049804688)"><path class="dot element" style="fill: rgb(70, 130, 180); stroke: black; opacity: 1; stroke-width: 1.5;" d="M0,4.51351666838205A4.51351666838205,4.51351666838205 0 1,1 0,-4.51351666838205A4.51351666838205,4.51351666838205 0 1,1 0,4.51351666838205Z"></path><text class="dot_text" transform="translate(4, -4)" display="none">Dot86</text></g><g class="object_grp" transform="translate(59.941497802734375, 593.4844360351562)"><path class="dot element" style="fill: rgb(70, 130, 180); stroke: black; opacity: 1; stroke-width: 1.5;" d="M0,4.51351666838205A4.51351666838205,4.51351666838205 0 1,1 0,-4.51351666838205A4.51351666838205,4.51351666838205 0 1,1 0,4.51351666838205Z"></path><text class="dot_text" transform="translate(4, -4)" display="none">Dot87</text></g><g class="object_grp" transform="translate(731.9612426757812, 526.7872314453125)"><path class="dot element" style="fill: rgb(70, 130, 180); stroke: black; opacity: 1; stroke-width: 1.5;" d="M0,4.51351666838205A4.51351666838205,4.51351666838205 0 1,1 0,-4.51351666838205A4.51351666838205,4.51351666838205 0 1,1 0,4.51351666838205Z"></path><text class="dot_text" transform="translate(4, -4)" display="none">Dot88</text></g><g class="object_grp" transform="translate(755.9623413085938, 546.7619018554688)"><path class="dot element" style="fill: rgb(70, 130, 180); stroke: black; opacity: 1; stroke-width: 1.5;" d="M0,4.51351666838205A4.51351666838205,4.51351666838205 0 1,1 0,-4.51351666838205A4.51351666838205,4.51351666838205 0 1,1 0,4.51351666838205Z"></path><text class="dot_text" transform="translate(4, -4)" display="none">Dot89</text></g><g class="object_grp" transform="translate(715.1807250976562, 533.4749145507812)"><path class="dot element" style="fill: rgb(70, 130, 180); stroke: black; opacity: 1; stroke-width: 1.5;" d="M0,4.51351666838205A4.51351666838205,4.51351666838205 0 1,1 0,-4.51351666838205A4.51351666838205,4.51351666838205 0 1,1 0,4.51351666838205Z"></path><text class="dot_text" transform="translate(4, -4)" display="none">Dot90</text></g><g class="object_grp" transform="translate(52.48295974731445, 611.328369140625)"><path class="dot element" style="fill: rgb(70, 130, 180); stroke: black; opacity: 1; stroke-width: 1.5;" d="M0,4.51351666838205A4.51351666838205,4.51351666838205 0 1,1 0,-4.51351666838205A4.51351666838205,4.51351666838205 0 1,1 0,4.51351666838205Z"></path><text class="dot_text" transform="translate(4, -4)" display="none">Dot91</text></g><g class="object_grp" transform="translate(267.9677734375, 84.45729064941406)"><path class="dot element" style="fill: rgb(70, 130, 180); stroke: black; opacity: 1; stroke-width: 1.5;" d="M0,4.51351666838205A4.51351666838205,4.51351666838205 0 1,1 0,-4.51351666838205A4.51351666838205,4.51351666838205 0 1,1 0,4.51351666838205Z"></path><text class="dot_text" transform="translate(4, -4)" display="none">Dot92</text></g><g class="object_grp" transform="translate(292.42578125, 40.6604118347168)"><path class="dot element" style="fill: rgb(70, 130, 180); stroke: black; opacity: 1; stroke-width: 1.5;" d="M0,4.51351666838205A4.51351666838205,4.51351666838205 0 1,1 0,-4.51351666838205A4.51351666838205,4.51351666838205 0 1,1 0,4.51351666838205Z"></path><text class="dot_text" transform="translate(4, -4)" display="none">Dot93</text></g><g class="object_grp" transform="translate(47.560508728027344, 548.09912109375)"><path class="dot element" style="fill: rgb(70, 130, 180); stroke: black; opacity: 1; stroke-width: 1.5;" d="M0,4.51351666838205A4.51351666838205,4.51351666838205 0 1,1 0,-4.51351666838205A4.51351666838205,4.51351666838205 0 1,1 0,4.51351666838205Z"></path><text class="dot_text" transform="translate(4, -4)" display="none">Dot94</text></g><g class="object_grp" transform="translate(27.18414306640625, 601.8812255859375)"><path class="dot element" style="fill: rgb(70, 130, 180); stroke: black; opacity: 1; stroke-width: 1.5;" d="M0,4.51351666838205A4.51351666838205,4.51351666838205 0 1,1 0,-4.51351666838205A4.51351666838205,4.51351666838205 0 1,1 0,4.51351666838205Z"></path><text class="dot_text" transform="translate(4, -4)" display="none">Dot95</text></g><g class="object_grp" transform="translate(708.6024780273438, 502.8599853515625)"><path class="dot element" style="fill: rgb(70, 130, 180); stroke: black; opacity: 1; stroke-width: 1.5;" d="M0,4.51351666838205A4.51351666838205,4.51351666838205 0 1,1 0,-4.51351666838205A4.51351666838205,4.51351666838205 0 1,1 0,4.51351666838205Z"></path><text class="dot_text" transform="translate(4, -4)" display="none">Dot96</text></g><g class="object_grp" transform="translate(58.74632263183594, 623.1022338867188)"><path class="dot element" style="fill: rgb(70, 130, 180); stroke: black; opacity: 1; stroke-width: 1.5;" d="M0,4.51351666838205A4.51351666838205,4.51351666838205 0 1,1 0,-4.51351666838205A4.51351666838205,4.51351666838205 0 1,1 0,4.51351666838205Z"></path><text class="dot_text" transform="translate(4, -4)" display="none">Dot97</text></g><g class="object_grp" transform="translate(104.55087280273438, 589.7449340820312)"><path class="dot element" style="fill: rgb(70, 130, 180); stroke: black; opacity: 1; stroke-width: 1.5;" d="M0,4.51351666838205A4.51351666838205,4.51351666838205 0 1,1 0,-4.51351666838205A4.51351666838205,4.51351666838205 0 1,1 0,4.51351666838205Z"></path><text class="dot_text" transform="translate(4, -4)" display="none">Dot98</text></g><g class="object_grp" transform="translate(342.499755859375, 94.91092681884766)"><path class="dot element" style="fill: rgb(70, 130, 180); stroke: black; opacity: 1; stroke-width: 1.5;" d="M0,4.51351666838205A4.51351666838205,4.51351666838205 0 1,1 0,-4.51351666838205A4.51351666838205,4.51351666838205 0 1,1 0,4.51351666838205Z"></path><text class="dot_text" transform="translate(4, -4)" display="none">Dot99</text></g><g class="object_grp" transform="translate(109.44425964355469, 579.7650146484375)"><path class="dot element" style="fill: rgb(70, 130, 180); stroke: black; opacity: 1; stroke-width: 1.5;" d="M0,4.51351666838205A4.51351666838205,4.51351666838205 0 1,1 0,-4.51351666838205A4.51351666838205,4.51351666838205 0 1,1 0,4.51351666838205Z"></path><text class="dot_text" transform="translate(4, -4)" display="none">Dot100</text></g><g class="object_grp" transform="translate(296.88818359375, 48.32954025268555)"><path class="dot element" style="fill: rgb(70, 130, 180); stroke: black; opacity: 1; stroke-width: 1.5;" d="M0,4.51351666838205A4.51351666838205,4.51351666838205 0 1,1 0,-4.51351666838205A4.51351666838205,4.51351666838205 0 1,1 0,4.51351666838205Z"></path><text class="dot_text" transform="translate(4, -4)" display="none">Dot101</text></g><g class="object_grp" transform="translate(704.1996459960938, 510.0543212890625)"><path class="dot element" style="fill: rgb(70, 130, 180); stroke: black; opacity: 1; stroke-width: 1.5;" d="M0,4.51351666838205A4.51351666838205,4.51351666838205 0 1,1 0,-4.51351666838205A4.51351666838205,4.51351666838205 0 1,1 0,4.51351666838205Z"></path><text class="dot_text" transform="translate(4, -4)" display="none">Dot102</text></g><g class="object_grp" transform="translate(144.64007568359375, 597.4708862304688)"><path class="dot element" style="fill: rgb(70, 130, 180); stroke: black; opacity: 1; stroke-width: 1.5;" d="M0,4.51351666838205A4.51351666838205,4.51351666838205 0 1,1 0,-4.51351666838205A4.51351666838205,4.51351666838205 0 1,1 0,4.51351666838205Z"></path><text class="dot_text" transform="translate(4, -4)" display="none">Dot103</text></g><g class="object_grp" transform="translate(106.78485870361328, 583.34716796875)"><path class="dot element" style="fill: rgb(70, 130, 180); stroke: black; opacity: 1; stroke-width: 1.5;" d="M0,4.51351666838205A4.51351666838205,4.51351666838205 0 1,1 0,-4.51351666838205A4.51351666838205,4.51351666838205 0 1,1 0,4.51351666838205Z"></path><text class="dot_text" transform="translate(4, -4)" display="none">Dot104</text></g><g class="object_grp" transform="translate(785.200927734375, 537.16748046875)"><path class="dot element" style="fill: rgb(70, 130, 180); stroke: black; opacity: 1; stroke-width: 1.5;" d="M0,4.51351666838205A4.51351666838205,4.51351666838205 0 1,1 0,-4.51351666838205A4.51351666838205,4.51351666838205 0 1,1 0,4.51351666838205Z"></path><text class="dot_text" transform="translate(4, -4)" display="none">Dot105</text></g><g class="object_grp" transform="translate(776.5809936523438, 537.9662475585938)"><path class="dot element" style="fill: rgb(70, 130, 180); stroke: black; opacity: 1; stroke-width: 1.5;" d="M0,4.51351666838205A4.51351666838205,4.51351666838205 0 1,1 0,-4.51351666838205A4.51351666838205,4.51351666838205 0 1,1 0,4.51351666838205Z"></path><text class="dot_text" transform="translate(4, -4)" display="none">Dot106</text></g><g class="object_grp" transform="translate(275.7962951660156, 143.6519317626953)"><path class="dot element" style="fill: rgb(70, 130, 180); stroke: black; opacity: 1; stroke-width: 1.5;" d="M0,4.51351666838205A4.51351666838205,4.51351666838205 0 1,1 0,-4.51351666838205A4.51351666838205,4.51351666838205 0 1,1 0,4.51351666838205Z"></path><text class="dot_text" transform="translate(4, -4)" display="none">Dot107</text></g><g class="object_grp" transform="translate(711.8419799804688, 536.0380859375)"><path class="dot element" style="fill: rgb(70, 130, 180); stroke: black; opacity: 1; stroke-width: 1.5;" d="M0,4.51351666838205A4.51351666838205,4.51351666838205 0 1,1 0,-4.51351666838205A4.51351666838205,4.51351666838205 0 1,1 0,4.51351666838205Z"></path><text class="dot_text" transform="translate(4, -4)" display="none">Dot108</text></g><g class="object_grp" transform="translate(787.59423828125, 542.88427734375)"><path class="dot element" style="fill: rgb(70, 130, 180); stroke: black; opacity: 1; stroke-width: 1.5;" d="M0,4.51351666838205A4.51351666838205,4.51351666838205 0 1,1 0,-4.51351666838205A4.51351666838205,4.51351666838205 0 1,1 0,4.51351666838205Z"></path><text class="dot_text" transform="translate(4, -4)" display="none">Dot109</text></g><g class="object_grp" transform="translate(82.72781372070312, 548.1751708984375)"><path class="dot element" style="fill: rgb(70, 130, 180); stroke: black; opacity: 1; stroke-width: 1.5;" d="M0,4.51351666838205A4.51351666838205,4.51351666838205 0 1,1 0,-4.51351666838205A4.51351666838205,4.51351666838205 0 1,1 0,4.51351666838205Z"></path><text class="dot_text" transform="translate(4, -4)" display="none">Dot110</text></g><g class="object_grp" transform="translate(220.49661254882812, 93.63485717773438)"><path class="dot element" style="fill: rgb(70, 130, 180); stroke: black; opacity: 1; stroke-width: 1.5;" d="M0,4.51351666838205A4.51351666838205,4.51351666838205 0 1,1 0,-4.51351666838205A4.51351666838205,4.51351666838205 0 1,1 0,4.51351666838205Z"></path><text class="dot_text" transform="translate(4, -4)" display="none">Dot111</text></g><g class="object_grp" transform="translate(117.55802917480469, 562.8446655273438)"><path class="dot element" style="fill: rgb(70, 130, 180); stroke: black; opacity: 1; stroke-width: 1.5;" d="M0,4.51351666838205A4.51351666838205,4.51351666838205 0 1,1 0,-4.51351666838205A4.51351666838205,4.51351666838205 0 1,1 0,4.51351666838205Z"></path><text class="dot_text" transform="translate(4, -4)" display="none">Dot112</text></g><g class="object_grp" transform="translate(55.21083450317383, 633.9337768554688)"><path class="dot element" style="fill: rgb(70, 130, 180); stroke: black; opacity: 1; stroke-width: 1.5;" d="M0,4.51351666838205A4.51351666838205,4.51351666838205 0 1,1 0,-4.51351666838205A4.51351666838205,4.51351666838205 0 1,1 0,4.51351666838205Z"></path><text class="dot_text" transform="translate(4, -4)" display="none">Dot113</text></g><g class="object_grp" transform="translate(333.50213623046875, 43.385738372802734)"><path class="dot element" style="fill: rgb(70, 130, 180); stroke: black; opacity: 1; stroke-width: 1.5;" d="M0,4.51351666838205A4.51351666838205,4.51351666838205 0 1,1 0,-4.51351666838205A4.51351666838205,4.51351666838205 0 1,1 0,4.51351666838205Z"></path><text class="dot_text" transform="translate(4, -4)" display="none">Dot114</text></g><g class="object_grp" transform="translate(318.7313232421875, 103.87290954589844)"><path class="dot element" style="fill: rgb(70, 130, 180); stroke: black; opacity: 1; stroke-width: 1.5;" d="M0,4.51351666838205A4.51351666838205,4.51351666838205 0 1,1 0,-4.51351666838205A4.51351666838205,4.51351666838205 0 1,1 0,4.51351666838205Z"></path><text class="dot_text" transform="translate(4, -4)" display="none">Dot115</text></g><g class="object_grp" transform="translate(80.18976593017578, 652)"><path class="dot element" style="fill: rgb(70, 130, 180); stroke: black; opacity: 1; stroke-width: 1.5;" d="M0,4.51351666838205A4.51351666838205,4.51351666838205 0 1,1 0,-4.51351666838205A4.51351666838205,4.51351666838205 0 1,1 0,4.51351666838205Z"></path><text class="dot_text" transform="translate(4, -4)" display="none">Dot116</text></g><g class="object_grp" transform="translate(294.59124755859375, 87.87437438964844)"><path class="dot element" style="fill: rgb(70, 130, 180); stroke: black; opacity: 1; stroke-width: 1.5;" d="M0,4.51351666838205A4.51351666838205,4.51351666838205 0 1,1 0,-4.51351666838205A4.51351666838205,4.51351666838205 0 1,1 0,4.51351666838205Z"></path><text class="dot_text" transform="translate(4, -4)" display="none">Dot117</text></g><g class="object_grp" transform="translate(93.76130676269531, 608.5361328125)"><path class="dot element" style="fill: rgb(70, 130, 180); stroke: black; opacity: 1; stroke-width: 1.5;" d="M0,4.51351666838205A4.51351666838205,4.51351666838205 0 1,1 0,-4.51351666838205A4.51351666838205,4.51351666838205 0 1,1 0,4.51351666838205Z"></path><text class="dot_text" transform="translate(4, -4)" display="none">Dot118</text></g><g class="object_grp" transform="translate(258.31268310546875, 107.2193603515625)"><path class="dot element" style="fill: rgb(70, 130, 180); stroke: black; opacity: 1; stroke-width: 1.5;" d="M0,4.51351666838205A4.51351666838205,4.51351666838205 0 1,1 0,-4.51351666838205A4.51351666838205,4.51351666838205 0 1,1 0,4.51351666838205Z"></path><text class="dot_text" transform="translate(4, -4)" display="none">Dot119</text></g><g class="object_grp" transform="translate(362.3254699707031, 28)"><path class="dot element" style="fill: rgb(70, 130, 180); stroke: black; opacity: 1; stroke-width: 1.5;" d="M0,4.51351666838205A4.51351666838205,4.51351666838205 0 1,1 0,-4.51351666838205A4.51351666838205,4.51351666838205 0 1,1 0,4.51351666838205Z"></path><text class="dot_text" transform="translate(4, -4)" display="none">Dot120</text></g><g class="object_grp" transform="translate(151.70556640625, 603.3310546875)"><path class="dot element" style="fill: rgb(70, 130, 180); stroke: black; opacity: 1; stroke-width: 1.5;" d="M0,4.51351666838205A4.51351666838205,4.51351666838205 0 1,1 0,-4.51351666838205A4.51351666838205,4.51351666838205 0 1,1 0,4.51351666838205Z"></path><text class="dot_text" transform="translate(4, -4)" display="none">Dot121</text></g><g class="object_grp" transform="translate(117.09051513671875, 561.8231811523438)"><path class="dot element" style="fill: rgb(70, 130, 180); stroke: black; opacity: 1; stroke-width: 1.5;" d="M0,4.51351666838205A4.51351666838205,4.51351666838205 0 1,1 0,-4.51351666838205A4.51351666838205,4.51351666838205 0 1,1 0,4.51351666838205Z"></path><text class="dot_text" transform="translate(4, -4)" display="none">Dot122</text></g><g class="object_grp" transform="translate(99.53002166748047, 630.0799560546875)"><path class="dot element" style="fill: rgb(70, 130, 180); stroke: black; opacity: 1; stroke-width: 1.5;" d="M0,4.51351666838205A4.51351666838205,4.51351666838205 0 1,1 0,-4.51351666838205A4.51351666838205,4.51351666838205 0 1,1 0,4.51351666838205Z"></path><text class="dot_text" transform="translate(4, -4)" display="none">Dot123</text></g><g class="object_grp" transform="translate(819.7549438476562, 464.1261291503906)"><path class="dot element" style="fill: rgb(70, 130, 180); stroke: black; opacity: 1; stroke-width: 1.5;" d="M0,4.51351666838205A4.51351666838205,4.51351666838205 0 1,1 0,-4.51351666838205A4.51351666838205,4.51351666838205 0 1,1 0,4.51351666838205Z"></path><text class="dot_text" transform="translate(4, -4)" display="none">Dot124</text></g><g class="object_grp" transform="translate(709.8621215820312, 575.4229125976562)"><path class="dot element" style="fill: rgb(70, 130, 180); stroke: black; opacity: 1; stroke-width: 1.5;" d="M0,4.51351666838205A4.51351666838205,4.51351666838205 0 1,1 0,-4.51351666838205A4.51351666838205,4.51351666838205 0 1,1 0,4.51351666838205Z"></path><text class="dot_text" transform="translate(4, -4)" display="none">Dot125</text></g><g class="object_grp" transform="translate(123.0239486694336, 628.1175537109375)"><path class="dot element" style="fill: rgb(70, 130, 180); stroke: black; opacity: 1; stroke-width: 1.5;" d="M0,4.51351666838205A4.51351666838205,4.51351666838205 0 1,1 0,-4.51351666838205A4.51351666838205,4.51351666838205 0 1,1 0,4.51351666838205Z"></path><text class="dot_text" transform="translate(4, -4)" display="none">Dot126</text></g><g class="object_grp" transform="translate(306.78326416015625, 94.88661193847656)"><path class="dot element" style="fill: rgb(70, 130, 180); stroke: black; opacity: 1; stroke-width: 1.5;" d="M0,4.51351666838205A4.51351666838205,4.51351666838205 0 1,1 0,-4.51351666838205A4.51351666838205,4.51351666838205 0 1,1 0,4.51351666838205Z"></path><text class="dot_text" transform="translate(4, -4)" display="none">Dot127</text></g><g class="object_grp" transform="translate(300.6359558105469, 67.51235961914062)"><path class="dot element" style="fill: rgb(70, 130, 180); stroke: black; opacity: 1; stroke-width: 1.5;" d="M0,4.51351666838205A4.51351666838205,4.51351666838205 0 1,1 0,-4.51351666838205A4.51351666838205,4.51351666838205 0 1,1 0,4.51351666838205Z"></path><text class="dot_text" transform="translate(4, -4)" display="none">Dot128</text></g><g class="object_grp" transform="translate(256.9333801269531, 142.9116973876953)"><path class="dot element" style="fill: rgb(70, 130, 180); stroke: black; opacity: 1; stroke-width: 1.5;" d="M0,4.51351666838205A4.51351666838205,4.51351666838205 0 1,1 0,-4.51351666838205A4.51351666838205,4.51351666838205 0 1,1 0,4.51351666838205Z"></path><text class="dot_text" transform="translate(4, -4)" display="none">Dot129</text></g><g class="object_grp" transform="translate(72.98494720458984, 561.5591430664062)"><path class="dot element" style="fill: rgb(70, 130, 180); stroke: black; opacity: 1; stroke-width: 1.5;" d="M0,4.51351666838205A4.51351666838205,4.51351666838205 0 1,1 0,-4.51351666838205A4.51351666838205,4.51351666838205 0 1,1 0,4.51351666838205Z"></path><text class="dot_text" transform="translate(4, -4)" display="none">Dot130</text></g><g class="object_grp" transform="translate(740.05078125, 477.1977233886719)"><path class="dot element" style="fill: rgb(70, 130, 180); stroke: black; opacity: 1; stroke-width: 1.5;" d="M0,4.51351666838205A4.51351666838205,4.51351666838205 0 1,1 0,-4.51351666838205A4.51351666838205,4.51351666838205 0 1,1 0,4.51351666838205Z"></path><text class="dot_text" transform="translate(4, -4)" display="none">Dot131</text></g><g class="object_grp" transform="translate(272.84527587890625, 70.3192367553711)"><path class="dot element" style="fill: rgb(70, 130, 180); stroke: black; opacity: 1; stroke-width: 1.5;" d="M0,4.51351666838205A4.51351666838205,4.51351666838205 0 1,1 0,-4.51351666838205A4.51351666838205,4.51351666838205 0 1,1 0,4.51351666838205Z"></path><text class="dot_text" transform="translate(4, -4)" display="none">Dot132</text></g><g class="object_grp" transform="translate(318.30584716796875, 83.67069244384766)"><path class="dot element" style="fill: rgb(70, 130, 180); stroke: black; opacity: 1; stroke-width: 1.5;" d="M0,4.51351666838205A4.51351666838205,4.51351666838205 0 1,1 0,-4.51351666838205A4.51351666838205,4.51351666838205 0 1,1 0,4.51351666838205Z"></path><text class="dot_text" transform="translate(4, -4)" display="none">Dot133</text></g><g class="object_grp" transform="translate(82.95083618164062, 544.1195678710938)"><path class="dot element" style="fill: rgb(70, 130, 180); stroke: black; opacity: 1; stroke-width: 1.5;" d="M0,4.51351666838205A4.51351666838205,4.51351666838205 0 1,1 0,-4.51351666838205A4.51351666838205,4.51351666838205 0 1,1 0,4.51351666838205Z"></path><text class="dot_text" transform="translate(4, -4)" display="none">Dot134</text></g><g class="object_grp" transform="translate(745.0675659179688, 513.729736328125)"><path class="dot element" style="fill: rgb(70, 130, 180); stroke: black; opacity: 1; stroke-width: 1.5;" d="M0,4.51351666838205A4.51351666838205,4.51351666838205 0 1,1 0,-4.51351666838205A4.51351666838205,4.51351666838205 0 1,1 0,4.51351666838205Z"></path><text class="dot_text" transform="translate(4, -4)" display="none">Dot135</text></g><g class="object_grp" transform="translate(679.1344604492188, 510.1993103027344)"><path class="dot element" style="fill: rgb(70, 130, 180); stroke: black; opacity: 1; stroke-width: 1.5;" d="M0,4.51351666838205A4.51351666838205,4.51351666838205 0 1,1 0,-4.51351666838205A4.51351666838205,4.51351666838205 0 1,1 0,4.51351666838205Z"></path><text class="dot_text" transform="translate(4, -4)" display="none">Dot136</text></g><g class="object_grp" transform="translate(140.08042907714844, 589.40966796875)"><path class="dot element" style="fill: rgb(70, 130, 180); stroke: black; opacity: 1; stroke-width: 1.5;" d="M0,4.51351666838205A4.51351666838205,4.51351666838205 0 1,1 0,-4.51351666838205A4.51351666838205,4.51351666838205 0 1,1 0,4.51351666838205Z"></path><text class="dot_text" transform="translate(4, -4)" display="none">Dot137</text></g><g class="object_grp" transform="translate(290.18328857421875, 86.03864288330078)"><path class="dot element" style="fill: rgb(70, 130, 180); stroke: black; opacity: 1; stroke-width: 1.5;" d="M0,4.51351666838205A4.51351666838205,4.51351666838205 0 1,1 0,-4.51351666838205A4.51351666838205,4.51351666838205 0 1,1 0,4.51351666838205Z"></path><text class="dot_text" transform="translate(4, -4)" display="none">Dot138</text></g><g class="object_grp" transform="translate(725.655029296875, 482.0439147949219)"><path class="dot element" style="fill: rgb(70, 130, 180); stroke: black; opacity: 1; stroke-width: 1.5;" d="M0,4.51351666838205A4.51351666838205,4.51351666838205 0 1,1 0,-4.51351666838205A4.51351666838205,4.51351666838205 0 1,1 0,4.51351666838205Z"></path><text class="dot_text" transform="translate(4, -4)" display="none">Dot139</text></g><g class="object_grp" transform="translate(290.8196105957031, 147.30758666992188)"><path class="dot element" style="fill: rgb(70, 130, 180); stroke: black; opacity: 1; stroke-width: 1.5;" d="M0,4.51351666838205A4.51351666838205,4.51351666838205 0 1,1 0,-4.51351666838205A4.51351666838205,4.51351666838205 0 1,1 0,4.51351666838205Z"></path><text class="dot_text" transform="translate(4, -4)" display="none">Dot140</text></g><g class="object_grp" transform="translate(14.795845031738281, 592.32080078125)"><path class="dot element" style="fill: rgb(70, 130, 180); stroke: black; opacity: 1; stroke-width: 1.5;" d="M0,4.51351666838205A4.51351666838205,4.51351666838205 0 1,1 0,-4.51351666838205A4.51351666838205,4.51351666838205 0 1,1 0,4.51351666838205Z"></path><text class="dot_text" transform="translate(4, -4)" display="none">Dot141</text></g><g class="object_grp" transform="translate(868.9999389648438, 519.1929321289062)"><path class="dot element" style="fill: rgb(70, 130, 180); stroke: black; opacity: 1; stroke-width: 1.5;" d="M0,4.51351666838205A4.51351666838205,4.51351666838205 0 1,1 0,-4.51351666838205A4.51351666838205,4.51351666838205 0 1,1 0,4.51351666838205Z"></path><text class="dot_text" transform="translate(4, -4)" display="none">Dot142</text></g><g class="object_grp" transform="translate(799.7506713867188, 498.868408203125)"><path class="dot element" style="fill: rgb(70, 130, 180); stroke: black; opacity: 1; stroke-width: 1.5;" d="M0,4.51351666838205A4.51351666838205,4.51351666838205 0 1,1 0,-4.51351666838205A4.51351666838205,4.51351666838205 0 1,1 0,4.51351666838205Z"></path><text class="dot_text" transform="translate(4, -4)" display="none">Dot143</text></g><g class="object_grp" transform="translate(295.70623779296875, 28.91776466369629)"><path class="dot element" style="fill: rgb(70, 130, 180); stroke: black; opacity: 1; stroke-width: 1.5;" d="M0,4.51351666838205A4.51351666838205,4.51351666838205 0 1,1 0,-4.51351666838205A4.51351666838205,4.51351666838205 0 1,1 0,4.51351666838205Z"></path><text class="dot_text" transform="translate(4, -4)" display="none">Dot144</text></g><g class="object_grp" transform="translate(768.9379272460938, 491.9969177246094)"><path class="dot element" style="fill: rgb(70, 130, 180); stroke: black; opacity: 1; stroke-width: 1.5;" d="M0,4.51351666838205A4.51351666838205,4.51351666838205 0 1,1 0,-4.51351666838205A4.51351666838205,4.51351666838205 0 1,1 0,4.51351666838205Z"></path><text class="dot_text" transform="translate(4, -4)" display="none">Dot145</text></g><g class="object_grp" transform="translate(77.86858367919922, 594.047607421875)"><path class="dot element" style="fill: rgb(70, 130, 180); stroke: black; opacity: 1; stroke-width: 1.5;" d="M0,4.51351666838205A4.51351666838205,4.51351666838205 0 1,1 0,-4.51351666838205A4.51351666838205,4.51351666838205 0 1,1 0,4.51351666838205Z"></path><text class="dot_text" transform="translate(4, -4)" display="none">Dot146</text></g><g class="object_grp" transform="translate(776.5001831054688, 505.75115966796875)"><path class="dot element" style="fill: rgb(70, 130, 180); stroke: black; opacity: 1; stroke-width: 1.5;" d="M0,4.51351666838205A4.51351666838205,4.51351666838205 0 1,1 0,-4.51351666838205A4.51351666838205,4.51351666838205 0 1,1 0,4.51351666838205Z"></path><text class="dot_text" transform="translate(4, -4)" display="none">Dot147</text></g><g class="object_grp" transform="translate(280.7145690917969, 79.09072875976562)"><path class="dot element" style="fill: rgb(70, 130, 180); stroke: black; opacity: 1; stroke-width: 1.5;" d="M0,4.51351666838205A4.51351666838205,4.51351666838205 0 1,1 0,-4.51351666838205A4.51351666838205,4.51351666838205 0 1,1 0,4.51351666838205Z"></path><text class="dot_text" transform="translate(4, -4)" display="none">Dot148</text></g><g class="object_grp" transform="translate(744.308349609375, 520.4263305664062)"><path class="dot element" style="fill: rgb(70, 130, 180); stroke: black; opacity: 1; stroke-width: 1.5;" d="M0,4.51351666838205A4.51351666838205,4.51351666838205 0 1,1 0,-4.51351666838205A4.51351666838205,4.51351666838205 0 1,1 0,4.51351666838205Z"></path><text class="dot_text" transform="translate(4, -4)" display="none">Dot149</text></g></g><g clip-path="url(#clip_path_2fba14e4-d59f-492a-bb75-27a73a8a8628)" style="display: inline;"><g class="object_grp" transform="translate(302.5623779296875, 82.90731048583984)"><path class="dot element" style="fill: rgb(255, 127, 14); stroke: black; opacity: 1; stroke-width: 3;" d="M0,11.283791670955125A11.283791670955125,11.283791670955125 0 1,1 0,-11.283791670955125A11.283791670955125,11.283791670955125 0 1,1 0,11.283791670955125Z"></path><text class="dot_text" transform="translate(10, -10)" display="none">Dot0</text></g><g class="object_grp" transform="translate(753.4005126953125, 520.2503662109375)"><path class="dot element" style="fill: rgb(31, 119, 180); stroke: black; opacity: 1; stroke-width: 3;" d="M0,11.283791670955125A11.283791670955125,11.283791670955125 0 1,1 0,-11.283791670955125A11.283791670955125,11.283791670955125 0 1,1 0,11.283791670955125Z"></path><text class="dot_text" transform="translate(10, -10)" display="none">Dot1</text></g><g class="object_grp" transform="translate(91.88529205322266, 592.9425048828125)"><path class="dot element" style="fill: rgb(44, 160, 44); stroke: black; opacity: 1; stroke-width: 3;" d="M0,11.283791670955125A11.283791670955125,11.283791670955125 0 1,1 0,-11.283791670955125A11.283791670955125,11.283791670955125 0 1,1 0,11.283791670955125Z"></path><text class="dot_text" transform="translate(10, -10)" display="none">Dot2</text></g></g><g class="g_legend" transform="translate(831.9999389648438 0) "></g></g><g></g><text class="mainheading" x="439.9999694824219" y="-30" dy="1em">K-Means Clustering</text></g><defs><clipPath id="clip_path_2fba14e4-d59f-492a-bb75-27a73a8a8628"><rect x="0" y="0" width="879.9999389648438" height="680"></rect></clipPath></defs></svg>
